<?xml version="1.0" encoding="UTF-8"?>
<svg version="1.1" xmlns="http://www.w3.org/2000/svg" width="500" height="500">
<path d="M0 0 C0.9914091 -0.00307895 0.9914091 -0.00307895 2.00284666 -0.0062201 C4.22120759 -0.01188193 6.43950627 -0.01043386 8.65787315 -0.00901413 C10.26302168 -0.01159824 11.86816956 -0.01461153 13.47331655 -0.01801753 C17.88740007 -0.02608549 22.30146732 -0.02787699 26.71555734 -0.028615 C31.47510162 -0.03046592 36.23463746 -0.03801348 40.99417686 -0.04475021 C51.40337715 -0.05833288 61.81257358 -0.06435822 72.22178125 -0.06876087 C78.7217743 -0.07152355 85.22176585 -0.07576097 91.72175789 -0.08026505 C109.71933524 -0.0924579 127.7169114 -0.102757 145.7144928 -0.10614014 C146.8664184 -0.1063597 148.018344 -0.10657927 149.20517644 -0.10680549 C150.3598556 -0.10702377 151.51453476 -0.10724204 152.7042042 -0.10746694 C155.04401565 -0.1079104 157.38382709 -0.10835697 159.72363853 -0.10880661 C161.46457879 -0.10913875 161.46457879 -0.10913875 163.24068956 -0.10947761 C182.04408384 -0.11342503 200.84743935 -0.1308773 219.65081866 -0.15416613 C238.95729348 -0.17788498 258.26374885 -0.19034224 277.57023847 -0.19150805 C288.40954663 -0.19242454 299.24880428 -0.19817026 310.08809853 -0.21632767 C319.31874497 -0.23173587 328.5493253 -0.23684487 337.77998216 -0.22858956 C342.48814899 -0.22468556 347.19618271 -0.22560052 351.90433311 -0.23964691 C356.21873957 -0.25240067 360.53291309 -0.25117537 364.84731929 -0.2390562 C366.40388507 -0.23710175 367.96046743 -0.24016593 369.51700993 -0.24890056 C391.13672927 -0.36249017 391.13672927 -0.36249017 399.32471275 6.13142776 C399.32471275 6.79142776 399.32471275 7.45142776 399.32471275 8.13142776 C401.30471275 9.12142776 401.30471275 9.12142776 403.32471275 10.13142776 C403.32471275 10.79142776 403.32471275 11.45142776 403.32471275 12.13142776 C403.98471275 12.13142776 404.64471275 12.13142776 405.32471275 12.13142776 C405.32471275 12.79142776 405.32471275 13.45142776 405.32471275 14.13142776 C405.98471275 14.13142776 406.64471275 14.13142776 407.32471275 14.13142776 C408.13486001 15.41158412 408.9215896 16.70655729 409.69971275 18.00642776 C410.36100182 19.08537308 410.36100182 19.08537308 411.03565025 20.18611526 C414.43222134 27.94676556 414.61642972 36.19283772 414.58540916 44.54143143 C414.58923471 45.64815158 414.59306026 46.75487172 414.59700173 47.89512885 C414.6072707 51.58120343 414.60335117 55.26712047 414.59937096 58.95320511 C414.6037208 61.60513189 414.60884088 64.25704737 414.61485863 66.90896988 C414.62757153 73.35128786 414.6294036 79.7935641 414.62705836 86.23589252 C414.62527126 91.47535365 414.62703324 96.71480216 414.63128281 101.95426178 C414.631878 102.7015651 414.63247318 103.44886842 414.63308641 104.2188173 C414.63429823 105.73724019 414.63551237 107.25566307 414.63672879 108.77408595 C414.64759114 122.99592749 414.64544799 137.21774528 414.63934394 151.43958814 C414.63417567 164.431827 414.64543016 177.42399085 414.66444216 190.41621487 C414.68384387 203.77786311 414.69207249 217.13947592 414.68831891 230.50113833 C414.68641044 237.99419221 414.68885983 245.48718227 414.70303345 252.98022461 C414.714978 259.35903582 414.71631781 265.73774392 414.70424328 272.11655663 C414.6983761 275.36671771 414.69883884 278.61665268 414.70924568 281.86680794 C414.71974176 285.40053024 414.71158897 288.93375208 414.69893456 292.46745682 C414.70630884 293.48012851 414.71368312 294.4928002 414.72128087 295.53615892 C414.65290913 304.66048743 413.25557443 314.06573122 408.26221275 321.88142776 C407.75561119 322.70127151 407.24900963 323.52111526 406.7270565 324.36580276 C406.26428307 324.94845901 405.80150963 325.53111526 405.32471275 326.13142776 C404.66471275 326.13142776 404.00471275 326.13142776 403.32471275 326.13142776 C403.32471275 326.79142776 403.32471275 327.45142776 403.32471275 328.13142776 C402.66471275 328.13142776 402.00471275 328.13142776 401.32471275 328.13142776 C401.32471275 328.79142776 401.32471275 329.45142776 401.32471275 330.13142776 C399.453619 331.56892776 399.453619 331.56892776 396.88721275 333.13142776 C396.06350182 333.64705276 395.23979088 334.16267776 394.391119 334.69392776 C385.51556802 338.85469561 376.14839755 338.4154458 366.57300377 338.38539505 C364.97122652 338.38770163 363.36945034 338.39087949 361.76767635 338.39484954 C357.38154641 338.40317898 352.99550378 338.39908068 348.60937357 338.3928771 C343.8731131 338.38834605 339.13686748 338.39533962 334.40060997 338.40083694 C325.12836205 338.40972559 315.85614653 338.40781128 306.58389735 338.40201166 C299.0474774 338.39749311 291.51106653 338.39688311 283.97464561 338.3990593 C282.90162337 338.39936576 281.82860112 338.39967223 280.72306305 338.39998798 C278.54317244 338.40062744 276.36328182 338.40127586 274.18339121 338.40193316 C253.74725277 338.40763491 233.31113228 338.401081 212.87499678 338.39033243 C195.34357801 338.38139706 177.81218573 338.38294915 160.28076744 338.39216995 C139.91726146 338.40287532 119.5537712 338.4070856 99.19026279 338.40094543 C97.01843516 338.40030833 94.84660753 338.39967959 92.67477989 338.3990593 C91.60622641 338.39875074 90.53767292 338.39844219 89.43673903 338.39812429 C81.91022683 338.39639815 74.38372462 338.39931071 66.85721397 338.4040184 C57.68370573 338.40963018 48.51023171 338.40810451 39.33672738 338.39745691 C34.65716497 338.39220423 29.97765959 338.39013662 25.29809761 338.39675522 C21.0123664 338.40272508 16.72674499 338.39942243 12.44102371 338.38880011 C10.89269172 338.38657049 9.34435041 338.38769253 7.79602444 338.39255169 C-11.70504997 338.44904631 -11.70504997 338.44904631 -20.11278725 333.25642776 C-20.93649818 332.76400589 -21.76020912 332.27158401 -22.608881 331.76424026 C-24.84227203 329.99948137 -25.42782549 328.62635127 -26.67528725 326.13142776 C-28.0054258 325.45840945 -29.33889591 324.79194302 -30.67528725 324.13142776 C-32.08934975 322.24861526 -32.08934975 322.24861526 -33.30028725 320.00642776 C-33.70505287 319.28197464 -34.1098185 318.55752151 -34.52684975 317.81111526 C-37.67296184 310.47018704 -37.96600865 303.60241554 -37.94271278 295.72742081 C-37.9472439 294.59720263 -37.95177501 293.46698445 -37.95644343 292.30251724 C-37.96907789 288.52498656 -37.96746765 284.74760024 -37.96581459 280.97005081 C-37.97071532 278.25768365 -37.97854975 275.54532654 -37.98616982 272.83296585 C-38.00274857 266.2356385 -38.00827793 259.6383469 -38.00939457 253.04100045 C-38.01034646 247.67610103 -38.01446379 242.31121337 -38.02079582 236.94631767 C-38.03839915 221.72080382 -38.04763603 206.49531811 -38.04613487 191.26979401 C-38.04605496 190.44980942 -38.04597505 189.62982483 -38.04589272 188.78499222 C-38.04581095 187.96400135 -38.04572919 187.14301049 -38.04564495 186.29714111 C-38.04483215 172.99368756 -38.06397069 159.69034724 -38.09216945 146.38692643 C-38.12092526 132.71233193 -38.13470828 119.03779261 -38.1329819 105.36316711 C-38.13231896 97.69179836 -38.13776897 90.02054836 -38.159338 82.34920692 C-38.17758528 75.81768698 -38.1818681 69.28633963 -38.16831915 62.75480517 C-38.16180731 59.42567781 -38.16379766 56.09715025 -38.17902565 52.76801109 C-38.19449804 49.15050924 -38.18515545 45.5338694 -38.16976357 41.91638565 C-38.18005069 40.87609119 -38.19033782 39.83579672 -38.20093668 38.76397818 C-38.09144478 27.07541374 -34.12672588 17.81549038 -26.05028725 9.44783401 C-18.57834614 2.51207387 -10.03812811 0.01063205 0 0 Z M-4.57219952 29.65449923 C-4.93621847 30.14188565 -5.30023742 30.62927206 -5.67528725 31.13142776 C-3.00281091 33.47430195 -3.00281091 33.47430195 0.32471275 34.13142776 C0.58381432 34.72697464 0.84291588 35.32252151 1.109869 35.93611526 C2.42261789 38.30834958 3.68253202 39.53561086 5.76221275 41.25642776 C9.23605191 44.19778062 12.64222538 47.19611491 16.01221275 50.25642776 C16.90295494 51.06338089 17.79369713 51.87033401 18.7114315 52.70174026 C20.51603142 54.37955962 22.28120837 56.10043568 24.01221275 57.85408401 C26.08985888 59.9001443 27.65478868 61.04368092 30.32471275 62.13142776 C30.32471275 62.79142776 30.32471275 63.45142776 30.32471275 64.13142776 C32.00994004 65.83627243 32.00994004 65.83627243 34.13721275 67.56892776 C38.17666237 70.97560385 38.17666237 70.97560385 39.9614315 72.85408401 C41.25659162 74.35933858 41.25659162 74.35933858 43.32471275 74.13142776 C43.32471275 74.79142776 43.32471275 75.45142776 43.32471275 76.13142776 C44.94270777 77.76818284 44.94270777 77.76818284 47.01221275 79.44392776 C49.52273569 81.56787461 51.93294697 83.6864412 54.19971275 86.06892776 C56.07034974 88.36358622 56.07034974 88.36358622 58.32471275 88.13142776 C58.32471275 88.79142776 58.32471275 89.45142776 58.32471275 90.13142776 C59.73791194 91.60013504 59.73791194 91.60013504 61.63721275 93.13142776 C65.14879802 96.11814975 68.59882465 99.15755239 72.01221275 102.25642776 C72.90295494 103.06338089 73.79369713 103.87033401 74.7114315 104.70174026 C77.31309804 107.12062903 79.812921 109.61963601 82.32471275 112.13142776 C84.70344763 114.39982908 87.10649722 116.64169743 89.51221275 118.88142776 C90.17205162 119.49687454 90.83189049 120.11232132 91.51172447 120.746418 C96.01908522 124.94139285 100.56735339 129.08324096 105.17627525 133.16658401 C107.6359601 135.41607761 109.96959043 137.77277981 112.32471275 140.13142776 C114.34593698 142.07052928 116.39374622 143.97927419 118.44971275 145.88142776 C118.97436119 146.3751387 119.49900963 146.86884964 120.0395565 147.37752151 C122.46040931 149.61451208 124.15928052 151.07628369 127.32471275 152.13142776 C127.32471275 152.79142776 127.32471275 153.45142776 127.32471275 154.13142776 C127.98471275 154.13142776 128.64471275 154.13142776 129.32471275 154.13142776 C129.32471275 154.79142776 129.32471275 155.45142776 129.32471275 156.13142776 C130.82795551 157.66908933 130.82795551 157.66908933 132.80127525 159.26033401 C135.79057648 161.80104244 138.69793858 164.38694201 141.53565025 167.09627151 C142.22272057 167.75047073 142.90979088 168.40466995 143.6176815 169.07869339 C145.03160949 170.43028121 146.44298339 171.78454496 147.8520565 173.14119339 C148.53139244 173.78636917 149.21072838 174.43154495 149.91065025 175.09627151 C150.51957115 175.68013626 151.12849205 176.26400101 151.7558651 176.86555862 C153.24815234 178.34074565 153.24815234 178.34074565 155.32471275 178.13142776 C155.32471275 178.79142776 155.32471275 179.45142776 155.32471275 180.13142776 C155.98471275 180.13142776 156.64471275 180.13142776 157.32471275 180.13142776 C157.32471275 180.79142776 157.32471275 181.45142776 157.32471275 182.13142776 C158.87247274 183.73623055 158.87247274 183.73623055 160.88721275 185.38142776 C161.61682213 186.00275589 162.3464315 186.62408401 163.09815025 187.26424026 C163.83291588 187.88041214 164.5676815 188.49658401 165.32471275 189.13142776 C166.55543184 190.17125981 167.78472027 191.21278878 169.01221275 192.25642776 C169.58197838 192.7398262 170.151744 193.22322464 170.73877525 193.72127151 C172.19128729 195.01279084 173.54594107 196.4122282 174.88721275 197.81892776 C178.55768346 201.30116921 181.6711626 202.91707867 186.69971275 203.56892776 C195.31222911 202.52948614 200.00249752 197.79518698 205.8520565 191.67439651 C208.69393293 188.75170844 211.70522714 186.12077589 214.828619 183.50642776 C216.44765207 182.18215233 216.44765207 182.18215233 217.32471275 180.13142776 C216.45519981 179.80718826 216.45519981 179.80718826 215.56812096 179.47639847 C212.91900147 178.47950343 210.27827377 177.46196997 207.63721275 176.44392776 C206.26919518 175.93442581 206.26919518 175.93442581 204.87354088 175.41463089 C198.60832146 172.97689097 194.0792199 170.81589278 191.07471275 164.50642776 C190.01778338 159.75024559 189.65297626 154.98627226 189.32471275 150.13142776 C187.68530918 153.03494976 187.07688316 155.25256947 186.88721275 158.56892776 C186.54037204 162.47409733 185.59448306 164.8748008 183.32471275 168.13142776 C183.32471275 168.79142776 183.32471275 169.45142776 183.32471275 170.13142776 C179.90391071 171.85431346 176.4675723 173.5413645 173.01221275 175.19392776 C171.92295494 175.72115433 170.83369713 176.24838089 169.7114315 176.79158401 C165.0665492 178.62917874 161.14031305 179.73662786 156.32471275 178.13142776 C156.73519188 159.10572028 156.73519188 159.10572028 161.32471275 151.13142776 C161.65471275 150.14142776 161.98471275 149.15142776 162.32471275 148.13142776 C165.38721275 146.94392776 165.38721275 146.94392776 168.32471275 146.13142776 C168.32471275 145.80142776 168.32471275 145.47142776 168.32471275 145.13142776 C167.75623619 145.02185745 167.18775963 144.91228714 166.6020565 144.79939651 C153.66578303 142.14303318 153.66578303 142.14303318 150.32471275 137.13142776 C149.66471275 137.13142776 149.00471275 137.13142776 148.32471275 137.13142776 C148.05658775 136.57455276 147.78846275 136.01767776 147.51221275 135.44392776 C145.25759477 130.5056769 145.25759477 130.5056769 141.32471275 127.13142776 C141.65471275 124.82142776 141.98471275 122.51142776 142.32471275 120.13142776 C150.84557021 117.15532786 159.32089986 116.07093248 168.32471275 117.13142776 C171.14502525 118.65486526 171.14502525 118.65486526 173.32471275 120.13142776 C173.98471275 120.13142776 174.64471275 120.13142776 175.32471275 120.13142776 C175.2783065 119.28580276 175.23190025 118.44017776 175.18408775 117.56892776 C174.94973115 110.20343438 175.29123016 105.29438874 179.32471275 99.13142776 C179.97826744 97.90166214 179.97826744 97.90166214 180.64502525 96.64705276 C182.0479539 94.17851165 183.3132899 92.13829988 185.32471275 90.13142776 C188.33650135 89.34314375 190.17979957 89.64342399 193.32471275 90.13142776 C193.66502525 91.36892776 193.66502525 91.36892776 194.01221275 92.63142776 C195.37177454 96.25692586 197.09731615 99.17197183 199.203619 102.39705276 C201.63973952 106.16582457 201.43955877 109.39157507 201.38721275 113.75642776 C201.38270103 114.46283401 201.37818932 115.16924026 201.37354088 115.89705276 C201.3617515 117.64188052 201.343816 119.38666476 201.32471275 121.13142776 C202.17033775 120.47142776 203.01596275 119.81142776 203.88721275 119.13142776 C211.4498352 114.82088637 221.72006746 116.45703143 229.76221275 118.63142776 C231.28942264 119.11159856 232.81333163 119.60354413 234.32471275 120.13142776 C235.12940025 123.21345901 235.12940025 123.21345901 235.32471275 127.13142776 C233.7753236 129.76538933 232.46629118 131.61142874 230.44971275 133.81892776 C229.94738121 134.38837112 229.44504967 134.95781448 228.92749596 135.5445137 C223.34533436 141.60590277 217.55245111 144.28755716 209.32471275 145.13142776 C210.04658775 145.60580276 210.76846275 146.08017776 211.51221275 146.56892776 C220.37340914 154.64246225 220.50895273 164.84471816 221.32471275 176.13142776 C221.98471275 176.13142776 222.64471275 176.13142776 223.32471275 176.13142776 C223.32471275 175.47142776 223.32471275 174.81142776 223.32471275 174.13142776 C223.8970565 173.88779495 224.46940025 173.64416214 225.05908775 173.39314651 C227.72904814 171.90625478 229.46300282 170.15058868 231.57471275 167.94392776 C236.45336077 162.95294246 241.53763131 158.33516658 247.01221275 154.00642776 C249.64845688 151.86893253 251.95058288 149.55951513 254.32471275 147.13142776 C255.88404605 145.54497563 257.44679355 143.96187499 259.01221275 142.38142776 C259.77920494 141.60283401 260.54619713 140.82424026 261.3364315 140.02205276 C263.32471275 138.13142776 263.32471275 138.13142776 265.32471275 137.13142776 C265.32471275 136.47142776 265.32471275 135.81142776 265.32471275 135.13142776 C265.8970565 134.87361526 266.46940025 134.61580276 267.05908775 134.35017776 C269.5360027 133.01776834 271.45882936 131.48086658 273.57471275 129.63142776 C274.63432213 128.71877151 274.63432213 128.71877151 275.71533775 127.78767776 C277.5570078 126.27726409 277.5570078 126.27726409 277.32471275 124.13142776 C277.98471275 124.13142776 278.64471275 124.13142776 279.32471275 124.13142776 C279.32471275 123.47142776 279.32471275 122.81142776 279.32471275 122.13142776 C279.98471275 122.13142776 280.64471275 122.13142776 281.32471275 122.13142776 C281.32471275 121.47142776 281.32471275 120.81142776 281.32471275 120.13142776 C281.91260582 119.86571976 282.50049889 119.60001175 283.10620689 119.32625198 C285.38293729 118.10006969 286.95704108 116.79688168 288.8208065 115.01424026 C289.78276939 114.10351761 289.78276939 114.10351761 290.76416588 113.17439651 C291.75319908 112.22500198 291.75319908 112.22500198 292.76221275 111.25642776 C294.07181058 110.00735216 295.3829746 108.75991628 296.6958065 107.51424026 C297.6236898 106.63300491 297.6236898 106.63300491 298.57031822 105.73396683 C300.0821361 104.35300767 301.68326846 103.07100452 303.297369 101.81111526 C303.96639244 101.25681839 304.63541588 100.70252151 305.32471275 100.13142776 C305.32471275 99.47142776 305.32471275 98.81142776 305.32471275 98.13142776 C305.8970565 97.88908401 306.46940025 97.64674026 307.05908775 97.39705276 C309.74374725 95.89734643 311.46346492 94.11418627 313.57471275 91.88142776 C316.43267633 88.94355402 319.23928123 86.32547641 322.57471275 83.94392776 C326.1148852 81.40726877 328.56311569 78.51438416 331.32471275 75.13142776 C334.80967984 71.84619199 338.33780012 68.78936952 342.32471275 66.13142776 C342.32471275 65.47142776 342.32471275 64.81142776 342.32471275 64.13142776 C342.98471275 64.13142776 343.64471275 64.13142776 344.32471275 64.13142776 C344.32471275 63.47142776 344.32471275 62.81142776 344.32471275 62.13142776 C344.86096275 61.90455276 345.39721275 61.67767776 345.94971275 61.44392776 C350.94018215 58.68603678 354.40901503 55.10899474 357.94190025 50.70955276 C360.03857821 48.31673385 362.44226416 46.33371551 364.85596275 44.26814651 C368.05587342 41.49860358 371.19674654 38.66924877 374.32471275 35.81892776 C374.91316978 35.29089554 375.50162682 34.76286331 376.10791588 34.21883011 C377.55235142 32.89760645 378.94367301 31.51878324 380.32471275 30.13142776 C380.32471275 29.47142776 380.32471275 28.81142776 380.32471275 28.13142776 C331.58385287 28.06281878 282.84299786 28.00992806 234.10209922 27.97823178 C228.35281732 27.97447948 222.60353552 27.97059653 216.85425377 27.96663284 C215.13732598 27.96545245 215.13732598 27.96545245 213.38571278 27.9642482 C194.83202705 27.95118058 176.2783691 27.9275193 157.72469988 27.89996938 C138.69866834 27.87195287 119.67265139 27.85525947 100.64660007 27.84916228 C88.89866859 27.84503803 77.15081562 27.83199406 65.4029083 27.80767836 C57.35599235 27.79186748 49.30911722 27.78701682 41.26218685 27.79092363 C36.61377464 27.79285245 31.96549996 27.7898163 27.31711197 27.77381134 C23.06646008 27.75928205 18.81603906 27.75842965 14.56537686 27.76873108 C13.02293337 27.77000547 11.48047585 27.76614095 9.93806025 27.75677822 C7.85018951 27.74483552 5.76316536 27.75116739 3.67530918 27.76228428 C2.51298525 27.76114512 1.35066132 27.76000596 0.15311545 27.75883228 C-2.70651093 27.88669592 -2.70651093 27.88669592 -4.57219952 29.65449923 Z M377.32471275 72.13142776 C377.32471275 72.79142776 377.32471275 73.45142776 377.32471275 74.13142776 C376.66471275 74.13142776 376.00471275 74.13142776 375.32471275 74.13142776 C375.32471275 74.79142776 375.32471275 75.45142776 375.32471275 76.13142776 C374.66471275 76.13142776 374.00471275 76.13142776 373.32471275 76.13142776 C373.32471275 76.79142776 373.32471275 77.45142776 373.32471275 78.13142776 C372.73947838 78.3879512 372.154244 78.64447464 371.55127525 78.90877151 C369.13236667 80.23704939 367.59272403 81.69667578 365.69971275 83.69392776 C362.5191572 87.03420554 362.5191572 87.03420554 360.32471275 88.13142776 C360.32471275 88.79142776 360.32471275 89.45142776 360.32471275 90.13142776 C359.73947838 90.3879512 359.154244 90.64447464 358.55127525 90.90877151 C356.13236667 92.23704939 354.59272403 93.69667578 352.69971275 95.69392776 C349.5191572 99.03420554 349.5191572 99.03420554 347.32471275 100.13142776 C347.32471275 100.79142776 347.32471275 101.45142776 347.32471275 102.13142776 C346.66471275 102.13142776 346.00471275 102.13142776 345.32471275 102.13142776 C345.32471275 102.79142776 345.32471275 103.45142776 345.32471275 104.13142776 C344.66471275 104.13142776 344.00471275 104.13142776 343.32471275 104.13142776 C343.32471275 104.79142776 343.32471275 105.45142776 343.32471275 106.13142776 C342.78846275 106.35830276 342.25221275 106.58517776 341.69971275 106.81892776 C336.52227209 109.68014497 332.42790302 113.93281447 328.32471275 118.13142776 C326.76540308 119.71790311 325.20264396 121.30099243 323.63721275 122.88142776 C322.48672447 124.04931839 322.48672447 124.04931839 321.312994 125.24080276 C319.32471275 127.13142776 319.32471275 127.13142776 317.32471275 128.13142776 C317.32471275 128.79142776 317.32471275 129.45142776 317.32471275 130.13142776 C316.48553307 130.47754105 316.48553307 130.47754105 315.62940025 130.83064651 C312.71835381 132.47366087 310.76622198 134.53721179 308.44971275 136.94392776 C305.63150244 139.83301023 302.8632301 142.62321044 299.69971275 145.13142776 C298.91596275 145.79142776 298.13221275 146.45142776 297.32471275 147.13142776 C297.32471275 147.79142776 297.32471275 148.45142776 297.32471275 149.13142776 C296.78846275 149.35830276 296.25221275 149.58517776 295.69971275 149.81892776 C292.50011114 151.58712866 290.03434052 153.66812979 287.32471275 156.13142776 C287.32471275 156.79142776 287.32471275 157.45142776 287.32471275 158.13142776 C286.76783775 158.35830276 286.21096275 158.58517776 285.63721275 158.81892776 C282.66311688 160.50692813 280.6046241 162.59819293 278.32471275 165.13142776 C278.32471275 165.79142776 278.32471275 166.45142776 278.32471275 167.13142776 C279.83176889 168.6778737 279.83176889 168.6778737 281.80908775 170.27595901 C286.1880408 173.99999816 290.39111638 177.87791635 294.57471275 181.81892776 C295.61498619 182.79442581 295.61498619 182.79442581 296.67627525 183.78963089 C299.39834252 186.34743547 302.09638812 188.89365261 304.68408775 191.58845901 C306.19216433 193.35979248 306.19216433 193.35979248 308.32471275 193.13142776 C308.32471275 193.79142776 308.32471275 194.45142776 308.32471275 195.13142776 C308.98471275 195.13142776 309.64471275 195.13142776 310.32471275 195.13142776 C310.32471275 195.79142776 310.32471275 196.45142776 310.32471275 197.13142776 C311.90910197 198.73412895 311.90910197 198.73412895 313.94971275 200.38142776 C316.66519035 202.67802849 319.23733539 205.00293551 321.69971275 207.56892776 C323.95184038 210.36427334 323.95184038 210.36427334 326.32471275 210.13142776 C326.57607994 210.72052933 326.82744713 211.30963089 327.0864315 211.91658401 C328.47926676 214.40786979 329.94556995 215.75443191 332.13721275 217.56892776 C334.60905723 219.65048101 336.97182803 221.7279862 339.19971275 224.06892776 C341.07034974 226.36358622 341.07034974 226.36358622 343.32471275 226.13142776 C343.32471275 226.79142776 343.32471275 227.45142776 343.32471275 228.13142776 C343.98471275 228.13142776 344.64471275 228.13142776 345.32471275 228.13142776 C345.32471275 228.79142776 345.32471275 229.45142776 345.32471275 230.13142776 C345.98471275 230.13142776 346.64471275 230.13142776 347.32471275 230.13142776 C347.32471275 230.79142776 347.32471275 231.45142776 347.32471275 232.13142776 C347.98471275 232.13142776 348.64471275 232.13142776 349.32471275 232.13142776 C349.32471275 232.79142776 349.32471275 233.45142776 349.32471275 234.13142776 C349.98471275 234.13142776 350.64471275 234.13142776 351.32471275 234.13142776 C351.32471275 234.79142776 351.32471275 235.45142776 351.32471275 236.13142776 C352.90612696 237.77024229 352.90612696 237.77024229 354.94971275 239.44392776 C355.68061119 240.06654495 356.41150963 240.68916214 357.1645565 241.33064651 C358.94196884 242.81235915 360.72502724 244.28654934 362.51221275 245.75642776 C366.09296999 248.78017832 369.30916201 252.08226123 372.56690025 255.44783401 C373.37385338 256.27154495 374.1808065 257.09525589 375.01221275 257.94392776 C375.77920494 258.73412308 376.54619713 259.52431839 377.3364315 260.33845901 C379.12604105 262.35465773 379.12604105 262.35465773 381.32471275 262.13142776 C381.98471275 263.45142776 382.64471275 264.77142776 383.32471275 266.13142776 C383.65471275 266.13142776 383.98471275 266.13142776 384.32471275 266.13142776 C384.32471275 200.46142776 384.32471275 134.79142776 384.32471275 67.13142776 C381.80394991 67.13142776 379.07677686 70.56575346 377.32471275 72.13142776 Z M-8.67528725 69.13142776 C-8.67528725 134.14142776 -8.67528725 199.15142776 -8.67528725 266.13142776 C-5.67835587 265.13245064 -4.64819312 264.48012523 -2.67528725 262.13142776 C-2.67528725 261.47142776 -2.67528725 260.81142776 -2.67528725 260.13142776 C-2.01528725 260.13142776 -1.35528725 260.13142776 -0.67528725 260.13142776 C-0.67528725 259.47142776 -0.67528725 258.81142776 -0.67528725 258.13142776 C-0.01528725 258.13142776 0.64471275 258.13142776 1.32471275 258.13142776 C1.32471275 257.47142776 1.32471275 256.81142776 1.32471275 256.13142776 C1.85967369 255.92517776 2.39463463 255.71892776 2.9458065 255.50642776 C6.30419002 253.56529312 8.71283175 250.91409659 11.38721275 248.13142776 C16.96218504 242.37311291 16.96218504 242.37311291 20.32471275 240.13142776 C20.32471275 239.47142776 20.32471275 238.81142776 20.32471275 238.13142776 C20.98471275 238.13142776 21.64471275 238.13142776 22.32471275 238.13142776 C22.32471275 237.47142776 22.32471275 236.81142776 22.32471275 236.13142776 C22.907369 235.87748245 23.49002525 235.62353714 24.09033775 235.36189651 C26.56659308 233.99822444 28.12991901 232.48917573 30.07471275 230.44392776 C33.49464901 226.91470783 37.07008066 223.70737353 40.85596275 220.57674026 C41.582994 219.86131058 41.582994 219.86131058 42.32471275 219.13142776 C42.32471275 218.47142776 42.32471275 217.81142776 42.32471275 217.13142776 C42.98471275 217.13142776 43.64471275 217.13142776 44.32471275 217.13142776 C44.32471275 216.47142776 44.32471275 215.81142776 44.32471275 215.13142776 C44.87385338 214.91099808 45.422994 214.69056839 45.98877525 214.46345901 C49.0519061 212.71675731 51.28393854 210.34221789 53.69971275 207.81892776 C56.68812003 204.74979313 59.64903541 201.73378428 63.01221275 199.06892776 C64.15690025 198.10986526 64.15690025 198.10986526 65.32471275 197.13142776 C65.32471275 196.47142776 65.32471275 195.81142776 65.32471275 195.13142776 C65.87900963 194.90584183 66.4333065 194.68025589 67.00440025 194.44783401 C70.0097743 192.7427649 72.05458278 190.55342826 74.44971275 188.06892776 C79.13026831 183.22864999 79.13026831 183.22864999 81.32471275 182.13142776 C81.32471275 181.47142776 81.32471275 180.81142776 81.32471275 180.13142776 C81.98471275 180.13142776 82.64471275 180.13142776 83.32471275 180.13142776 C83.32471275 179.47142776 83.32471275 178.81142776 83.32471275 178.13142776 C83.98471275 178.13142776 84.64471275 178.13142776 85.32471275 178.13142776 C85.32471275 177.47142776 85.32471275 176.81142776 85.32471275 176.13142776 C85.98471275 176.13142776 86.64471275 176.13142776 87.32471275 176.13142776 C87.32471275 175.47142776 87.32471275 174.81142776 87.32471275 174.13142776 C87.98471275 174.13142776 88.64471275 174.13142776 89.32471275 174.13142776 C89.32471275 173.47142776 89.32471275 172.81142776 89.32471275 172.13142776 C89.92283775 171.88392776 90.52096275 171.63642776 91.13721275 171.38142776 C93.61118796 169.96772764 94.75841531 168.48087393 96.32471275 166.13142776 C95.99471275 165.47142776 95.66471275 164.81142776 95.32471275 164.13142776 C94.66471275 164.13142776 94.00471275 164.13142776 93.32471275 164.13142776 C93.32471275 163.47142776 93.32471275 162.81142776 93.32471275 162.13142776 C92.66471275 162.13142776 92.00471275 162.13142776 91.32471275 162.13142776 C91.32471275 161.47142776 91.32471275 160.81142776 91.32471275 160.13142776 C89.678833 158.38867 89.678833 158.38867 87.57471275 156.63142776 C86.878619 156.02299026 86.18252525 155.41455276 85.46533775 154.78767776 C83.48010484 153.25165814 81.60599231 152.15903117 79.32471275 151.13142776 C79.32471275 150.47142776 79.32471275 149.81142776 79.32471275 149.13142776 C78.66471275 149.13142776 78.00471275 149.13142776 77.32471275 149.13142776 C77.32471275 148.47142776 77.32471275 147.81142776 77.32471275 147.13142776 C75.70963912 145.45860596 75.70963912 145.45860596 73.63721275 143.75642776 C72.9101815 143.1363887 72.18315025 142.51634964 71.43408775 141.87752151 C69.7711294 140.50096155 68.08345102 139.15426427 66.38721275 137.81892776 C64.32471275 136.13142776 64.32471275 136.13142776 63.32471275 134.13142776 C62.66471275 134.13142776 62.00471275 134.13142776 61.32471275 134.13142776 C61.32471275 133.47142776 61.32471275 132.81142776 61.32471275 132.13142776 C59.74329854 130.49261324 59.74329854 130.49261324 57.69971275 128.81892776 C56.96881432 128.19631058 56.23791588 127.57369339 55.484869 126.93220901 C53.70745666 125.45049638 51.92439826 123.97630619 50.13721275 122.50642776 C46.74725489 119.64379668 43.65896546 116.564514 40.63721275 113.31892776 C39.37253004 111.90778999 39.37253004 111.90778999 37.32471275 112.13142776 C37.32471275 111.47142776 37.32471275 110.81142776 37.32471275 110.13142776 C36.66471275 110.13142776 36.00471275 110.13142776 35.32471275 110.13142776 C35.32471275 109.47142776 35.32471275 108.81142776 35.32471275 108.13142776 C33.67310494 106.46062495 33.67310494 106.46062495 31.57471275 104.75642776 C29.25567573 102.7938505 27.07251991 100.87259827 24.94971275 98.69392776 C23.46015775 96.90039153 23.46015775 96.90039153 21.32471275 97.13142776 C20.99471275 96.14142776 20.66471275 95.15142776 20.32471275 94.13142776 C18.56589369 92.34887768 18.56589369 92.34887768 16.44971275 90.63142776 C12.46441864 87.27848659 12.46441864 87.27848659 10.69190025 85.41267776 C9.39377597 83.90349362 9.39377597 83.90349362 7.32471275 84.13142776 C7.32471275 83.47142776 7.32471275 82.81142776 7.32471275 82.13142776 C6.66471275 82.13142776 6.00471275 82.13142776 5.32471275 82.13142776 C5.32471275 81.47142776 5.32471275 80.81142776 5.32471275 80.13142776 C3.64511438 78.35471079 3.64511438 78.35471079 1.51221275 76.56892776 C0.80451744 75.9488887 0.09682213 75.32884964 -0.6323185 74.69002151 C-2.68802192 72.94718023 -2.68802192 72.94718023 -5.67528725 72.13142776 C-5.67528725 71.47142776 -5.67528725 70.81142776 -5.67528725 70.13142776 C-6.66528725 69.80142776 -7.65528725 69.47142776 -8.67528725 69.13142776 Z M118.32471275 186.13142776 C117.27670494 187.19683792 117.27670494 187.19683792 116.20752525 188.28377151 C115.29744713 189.20287308 114.387369 190.12197464 113.44971275 191.06892776 C112.54479088 191.9854512 111.639869 192.90197464 110.70752525 193.84627151 C108.32471275 196.13142776 108.32471275 196.13142776 106.32471275 197.13142776 C106.32471275 197.79142776 106.32471275 198.45142776 106.32471275 199.13142776 C105.66471275 199.13142776 105.00471275 199.13142776 104.32471275 199.13142776 C104.32471275 199.79142776 104.32471275 200.45142776 104.32471275 201.13142776 C103.79104088 201.3363887 103.257369 201.54134964 102.70752525 201.75252151 C99.32533841 203.70975423 96.89433787 206.39112426 94.19971275 209.19392776 C88.56457762 215.01149533 88.56457762 215.01149533 86.32471275 216.13142776 C86.32471275 216.79142776 86.32471275 217.45142776 86.32471275 218.13142776 C85.66471275 218.13142776 85.00471275 218.13142776 84.32471275 218.13142776 C84.32471275 218.79142776 84.32471275 219.45142776 84.32471275 220.13142776 C83.66471275 220.13142776 83.00471275 220.13142776 82.32471275 220.13142776 C82.32471275 220.79142776 82.32471275 221.45142776 82.32471275 222.13142776 C81.793619 222.33381058 81.26252525 222.53619339 80.71533775 222.74470901 C77.28253015 224.73596179 74.81576042 227.47610951 72.07471275 230.31892776 C67.9951212 234.4800319 63.88949168 238.47171111 59.437994 242.23689651 C55.92923246 245.38245908 52.65227607 248.76413012 49.35962486 252.13362503 C45.52897479 256.02929675 45.52897479 256.02929675 43.32471275 257.13142776 C43.32471275 257.79142776 43.32471275 258.45142776 43.32471275 259.13142776 C42.66471275 259.13142776 42.00471275 259.13142776 41.32471275 259.13142776 C39.15804609 260.9647611 39.15804609 260.9647611 37.32471275 263.13142776 C37.32471275 263.79142776 37.32471275 264.45142776 37.32471275 265.13142776 C36.33471275 265.46142776 35.34471275 265.79142776 34.32471275 266.13142776 C34.32471275 266.79142776 34.32471275 267.45142776 34.32471275 268.13142776 C33.66471275 268.13142776 33.00471275 268.13142776 32.32471275 268.13142776 C32.32471275 268.79142776 32.32471275 269.45142776 32.32471275 270.13142776 C31.72924644 270.4001973 31.13378014 270.66896683 30.52026939 270.94588089 C28.31814571 272.13497381 26.92704118 273.31117076 25.1958065 275.10017776 C24.63570885 275.67123245 24.07561119 276.24228714 23.49854088 276.83064651 C22.9255526 277.42490433 22.35256432 278.01916214 21.76221275 278.63142776 C20.61740328 279.81077339 19.47034819 280.98794428 18.3208065 282.16267776 C17.81734703 282.68410355 17.31388756 283.20552933 16.79517174 283.74275589 C15.32471275 285.13142776 15.32471275 285.13142776 12.32471275 287.13142776 C12.32471275 287.79142776 12.32471275 288.45142776 12.32471275 289.13142776 C11.74979088 289.3776387 11.174869 289.62384964 10.58252525 289.87752151 C7.96831448 291.32935829 6.26135067 293.03430326 4.19971275 295.19392776 C0.5191572 299.03420554 0.5191572 299.03420554 -1.67528725 300.13142776 C-1.67528725 300.79142776 -1.67528725 301.45142776 -1.67528725 302.13142776 C-2.33528725 302.13142776 -2.99528725 302.13142776 -3.67528725 302.13142776 C-4.33528725 303.78142776 -4.99528725 305.43142776 -5.67528725 307.13142776 C-4.60404781 308.42685122 -4.60404781 308.42685122 -2.07604545 308.25562626 C-0.90384879 308.25524654 0.26834787 308.25486682 1.47606564 308.25447559 C2.12893172 308.25562944 2.78179781 308.25678328 3.45444772 308.25797209 C5.66932998 308.2606451 7.88414134 308.25611103 10.09902 308.25168228 C11.69205617 308.25211784 13.28509228 308.25299247 14.87812799 308.25427145 C19.27688519 308.25651935 23.67561828 308.25249111 28.07437241 308.24749339 C32.80991374 308.24319328 37.54545359 308.244635 42.28099632 308.24539566 C50.49269053 308.24592118 58.70437682 308.2427715 66.91606903 308.23715782 C78.78894218 308.22904654 90.66181148 308.22642798 102.53468709 308.22516983 C121.79550837 308.22297872 141.05632542 308.21631705 160.31714439 308.20686722 C179.03231345 308.19769462 197.74748136 308.19061304 216.46265221 308.18635941 C217.61536978 308.18609668 218.76808735 308.18583396 219.95573575 308.18556327 C225.73831661 308.18425828 231.52089748 308.18299456 237.30347836 308.18175137 C285.31055941 308.17137693 333.31763588 308.15375702 381.32471275 308.13142776 C381.7175614 304.31871708 381.7175614 304.31871708 380.08252525 302.42830276 C379.54369713 301.91783401 379.004869 301.40736526 378.44971275 300.88142776 C377.91604088 300.36064651 377.382369 299.83986526 376.83252525 299.30330276 C375.37979809 297.92687532 375.37979809 297.92687532 373.32471275 298.13142776 C372.99471275 297.14142776 372.66471275 296.15142776 372.32471275 295.13142776 C370.63317531 293.41690435 370.63317531 293.41690435 368.57471275 291.75642776 C366.08354929 289.65367151 363.69702747 287.55562676 361.44971275 285.19392776 C359.57907576 282.89926931 359.57907576 282.89926931 357.32471275 283.13142776 C357.09139244 282.56037308 356.85807213 281.98931839 356.6176815 281.40095901 C355.01512964 278.58802054 353.08709094 276.93115046 350.63721275 274.81892776 C347.56370983 272.12465189 344.5567793 269.42947737 341.69971275 266.50642776 C339.39158477 264.15525777 337.01482665 261.96188457 334.51221275 259.81892776 C330.22942527 256.14796707 326.33644205 252.13432306 322.42627525 248.07283401 C320.55670767 245.9052399 320.55670767 245.9052399 318.32471275 246.13142776 C318.32471275 245.47142776 318.32471275 244.81142776 318.32471275 244.13142776 C317.66471275 244.13142776 317.00471275 244.13142776 316.32471275 244.13142776 C316.32471275 243.47142776 316.32471275 242.81142776 316.32471275 242.13142776 C314.67310494 240.46062495 314.67310494 240.46062495 312.57471275 238.75642776 C310.25567573 236.7938505 308.07251991 234.87259827 305.94971275 232.69392776 C304.46015775 230.90039153 304.46015775 230.90039153 302.32471275 231.13142776 C301.66471275 229.81142776 301.00471275 228.49142776 300.32471275 227.13142776 C299.66471275 227.13142776 299.00471275 227.13142776 298.32471275 227.13142776 C298.32471275 226.47142776 298.32471275 225.81142776 298.32471275 225.13142776 C297.66471275 225.13142776 297.00471275 225.13142776 296.32471275 225.13142776 C296.32471275 224.47142776 296.32471275 223.81142776 296.32471275 223.13142776 C294.77392205 221.56278694 294.77392205 221.56278694 292.76221275 219.94392776 C289.21475102 216.94465283 285.95948403 213.79147644 282.77002525 210.41658401 C281.39795536 208.90993137 281.39795536 208.90993137 279.32471275 209.13142776 C279.32471275 208.47142776 279.32471275 207.81142776 279.32471275 207.13142776 C278.66471275 207.13142776 278.00471275 207.13142776 277.32471275 207.13142776 C277.32471275 206.47142776 277.32471275 205.81142776 277.32471275 205.13142776 C275.77392205 203.56278694 275.77392205 203.56278694 273.76221275 201.94392776 C270.21475102 198.94465283 266.95948403 195.79147644 263.77002525 192.41658401 C262.39795536 190.90993137 262.39795536 190.90993137 260.32471275 191.13142776 C260.32471275 190.47142776 260.32471275 189.81142776 260.32471275 189.13142776 C259.0541475 187.44410732 259.0541475 187.44410732 257.32471275 186.13142776 C256.33471275 186.13142776 255.34471275 186.13142776 254.32471275 186.13142776 C254.32471275 186.79142776 254.32471275 187.45142776 254.32471275 188.13142776 C253.43525963 188.52781448 253.43525963 188.52781448 252.52783775 188.93220901 C250.24442221 190.17513202 248.85044552 191.43544422 247.07471275 193.31892776 C244.58456043 195.88889266 242.03998077 198.3002965 239.32471275 200.63142776 C235.96764132 203.51824795 232.84238546 206.56193468 229.77002525 209.74861526 C228.32471275 211.13142776 228.32471275 211.13142776 226.32471275 212.13142776 C226.32471275 212.79142776 226.32471275 213.45142776 226.32471275 214.13142776 C225.66471275 214.13142776 225.00471275 214.13142776 224.32471275 214.13142776 C224.32471275 214.79142776 224.32471275 215.45142776 224.32471275 216.13142776 C223.66471275 216.13142776 223.00471275 216.13142776 222.32471275 216.13142776 C222.32471275 216.79142776 222.32471275 217.45142776 222.32471275 218.13142776 C221.66471275 218.13142776 221.00471275 218.13142776 220.32471275 218.13142776 C220.32471275 218.79142776 220.32471275 219.45142776 220.32471275 220.13142776 C219.7626815 220.40084183 219.20065025 220.67025589 218.62158775 220.94783401 C216.18425165 222.20380823 213.89871929 223.61457336 211.57471275 225.06892776 C200.76907055 231.60331317 189.22342203 233.99661482 176.69190025 231.63533401 C170.96118316 229.8175259 165.63700199 226.91143405 160.32471275 224.13142776 C158.99274367 223.46203955 157.65987422 222.79442556 156.32471275 222.13142776 C156.32471275 221.47142776 156.32471275 220.81142776 156.32471275 220.13142776 C154.836566 218.60413162 154.836566 218.60413162 152.875494 217.02205276 C148.2816657 213.11542636 143.89187283 209.02528973 139.51221275 204.88142776 C138.76262291 204.17502151 138.01303307 203.46861526 137.24072838 202.74080276 C131.53301787 197.35443789 131.53301787 197.35443789 129.71655846 195.40974808 C128.39417748 193.90595037 128.39417748 193.90595037 126.32471275 194.13142776 C126.32471275 193.47142776 126.32471275 192.81142776 126.32471275 192.13142776 C125.66471275 192.13142776 125.00471275 192.13142776 124.32471275 192.13142776 C124.32471275 191.47142776 124.32471275 190.81142776 124.32471275 190.13142776 C122.36323401 188.74204699 120.363047 187.40538667 118.32471275 186.13142776 Z " fill="#FC7CAA" transform="translate(61.6752872467041,80.86857223510742)"/>
<path d="M0 0 C0.66 0 1.32 0 2 0 C2.06872464 34.31952435 2.12155847 68.63903295 2.15319599 102.95861129 C2.15694793 107.01391155 2.16083092 111.06921167 2.16479492 115.12451172 C2.16558185 115.9318206 2.16636878 116.73912947 2.16717956 117.57090226 C2.18021971 130.62843329 2.20386587 143.68592455 2.23145839 156.74343202 C2.25955134 170.1499546 2.27618447 183.5564564 2.28226548 196.96300721 C2.28637387 205.23000946 2.2993317 213.49689925 2.3237494 221.76386687 C2.33965465 227.43925593 2.34438956 233.11458718 2.34050413 238.78999689 C2.33858999 242.06035125 2.34310434 245.33046939 2.35761642 248.60079765 C2.37261918 252.15693205 2.3689249 255.7125916 2.36076355 259.26873779 C2.36950207 260.28823068 2.3782406 261.30772357 2.38724393 262.35811019 C2.34261534 269.58975908 1.01711613 276.06518675 -1 283 C-1.33 283 -1.66 283 -2 283 C-1.92964808 282.19861817 -1.85929616 281.39723634 -1.78681237 280.57157022 C-1.16556012 273.09379831 -0.84902701 265.68800937 -0.84178162 258.18644714 C-0.83684364 257.07278048 -0.83190566 255.95911382 -0.82681805 254.81169969 C-0.81159394 251.1208057 -0.80312383 247.4299289 -0.79467773 243.73901367 C-0.78508731 241.077029 -0.77511837 238.41504824 -0.76467896 235.75306702 C-0.74303356 230.04292188 -0.72484616 224.33277436 -0.70907402 218.62261009 C-0.68626565 210.36688853 -0.6581387 202.11119166 -0.62875474 193.8554912 C-0.58121238 180.45795236 -0.53791246 167.06040335 -0.49731445 153.6628418 C-0.45789126 140.65599783 -0.41644893 127.64916285 -0.37231445 114.64233398 C-0.36959018 113.83926058 -0.36686591 113.03618718 -0.36405908 112.20877822 C-0.35037848 108.17959712 -0.33665843 104.15041615 -0.32291877 100.12123525 C-0.20916406 66.7475088 -0.10230877 33.3737635 0 0 Z " fill="#F1B8CE" transform="translate(474,114)"/>
<path d="M0 0 C3.37503669 1.1858237 5.64722731 2.27573689 8 5 C7.01 5.495 7.01 5.495 6 6 C5.34 5.67 4.68 5.34 4 5 C4 4.34 4 3.68 4 3 C3.34 3 2.68 3 2 3 C2 67.35 2 131.7 2 198 C2.66 198 3.32 198 4 198 C4.33 197.01 4.66 196.02 5 195 C5.66 195 6.32 195 7 195 C7 194.34 7 193.68 7 193 C7.66 193.33 8.32 193.66 9 194 C8.38125 194.763125 7.7625 195.52625 7.125 196.3125 C4.94402948 198.99625809 4.94402948 198.99625809 3 202 C1.68 202 0.36 202 -1 202 C-1.02332574 175.81012728 -1.04097758 149.6202561 -1.05181217 123.4303751 C-1.05697582 111.27088131 -1.06401983 99.11139396 -1.07543945 86.9519043 C-1.08538419 76.35784032 -1.09185292 65.763781 -1.09408849 55.16971248 C-1.09539596 49.55650597 -1.09848406 43.9433128 -1.10573006 38.33011055 C-1.11248696 33.05333464 -1.11461764 27.77657765 -1.11310768 22.49979782 C-1.11338416 20.55708527 -1.11539123 18.61437212 -1.11920547 16.67166328 C-1.12413758 14.03141574 -1.12300009 11.39124084 -1.12025452 8.75099182 C-1.12316736 7.97182406 -1.1260802 7.19265629 -1.12908131 6.38987738 C-1.11412121 1.11412121 -1.11412121 1.11412121 0 0 Z " fill="#EE94B5" transform="translate(52,148)"/>
<path d="M0 0 C1.6254308 0.14095064 3.25034051 0.28792087 4.875 0.4375 C5.77992187 0.51871094 6.68484375 0.59992188 7.6171875 0.68359375 C10 1 10 1 12 2 C14.06873653 2.10015552 16.1407771 2.13391796 18.21193123 2.1386652 C18.85919766 2.14150742 19.5064641 2.14434964 20.17334467 2.14727798 C22.36314447 2.1556636 24.55289164 2.1568962 26.7427063 2.15821838 C28.32010744 2.16278111 29.89750736 2.1677807 31.47490585 2.17318195 C35.82578569 2.18680548 40.17665769 2.19419356 44.52755332 2.20060861 C49.21332457 2.2085941 53.8990794 2.22229821 58.58483887 2.23532104 C66.70865491 2.25711013 74.8324726 2.2752457 82.95630264 2.29092598 C94.70211416 2.3136025 106.4479075 2.34174837 118.19370364 2.37124526 C137.24875666 2.41894841 156.30381709 2.4622052 175.35888672 2.50268555 C193.87321551 2.54202663 212.3875377 2.58344951 230.90185547 2.62768555 C232.04236233 2.63040982 233.1828692 2.63313409 234.35793687 2.63594092 C240.07931091 2.64962017 245.80068484 2.66334048 251.52205873 2.67708123 C299.01469207 2.79108878 346.50733969 2.89788865 394 3 C394 3.33 394 3.66 394 4 C344.81765078 4.06864137 295.63530639 4.12151621 246.4529187 4.15319599 C240.64870679 4.15694818 234.84449497 4.16083114 229.0402832 4.16479492 C227.88475146 4.16558185 226.72921972 4.16636878 225.53867186 4.16717956 C206.81955881 4.18023947 188.10047335 4.20389654 169.38137668 4.23145839 C150.17904388 4.2594963 130.97672554 4.27617284 111.77437311 4.28226548 C99.9220413 4.28638527 88.06978747 4.29940521 76.21747965 4.3237494 C68.09391122 4.33958665 59.9703832 4.34440492 51.84680044 4.34050413 C47.15738768 4.33857946 42.46811137 4.34156482 37.77872276 4.35761642 C33.48591951 4.37220341 29.1933446 4.37296017 24.90053088 4.36269668 C23.34724917 4.36142797 21.79395327 4.36524373 20.24069952 4.37464955 C18.12860683 4.38669614 16.01733747 4.38019607 13.90525723 4.36914349 C12.73230112 4.37028265 11.55934502 4.37142181 10.3508448 4.37259549 C6.34690527 3.92737946 3.61542733 2.74021982 0 1 C0 0.67 0 0.34 0 0 Z " fill="#F181AA" transform="translate(43,414)"/>
<path d="M0 0 C128.37 0 256.74 0 389 0 C388.67 0.99 388.34 1.98 388 3 C387.34 3 386.68 3 386 3 C386 2.34 386 1.68 386 1 C258.62 1 131.24 1 0 1 C0 0.67 0 0.34 0 0 Z " fill="#ED89AB" transform="translate(56,108)"/>
<path d="M0 0 C3.0625 0.125 3.0625 0.125 5.0625 1.125 C5.0625 1.785 5.0625 2.445 5.0625 3.125 C3.4125 3.125 1.7625 3.125 0.0625 3.125 C0.0625 3.785 0.0625 4.445 0.0625 5.125 C-0.824375 5.41375 -1.71125 5.7025 -2.625 6 C-7.40221968 9.06463149 -9.17017541 12.8079209 -10.9375 18.125 C-11.93047031 24.27017475 -10.84361559 29.47560327 -8.59375 35.21484375 C-7.9375 37.125 -7.9375 37.125 -7.9375 40.125 C-8.26363281 39.6196875 -8.58976562 39.114375 -8.92578125 38.59375 C-9.36277344 37.9440625 -9.79976562 37.294375 -10.25 36.625 C-10.67925781 35.9753125 -11.10851562 35.325625 -11.55078125 34.65625 C-12.00839844 34.1509375 -12.46601563 33.645625 -12.9375 33.125 C-13.9275 33.125 -14.9175 33.125 -15.9375 33.125 C-15.9375 32.465 -15.9375 31.805 -15.9375 31.125 C-19.65029469 29.88740177 -23.25056346 29.76891103 -27.125 29.5625 C-27.87458984 29.51931641 -28.62417969 29.47613281 -29.39648438 29.43164062 C-31.24328375 29.32577315 -33.09036834 29.2249024 -34.9375 29.125 C-34.9375 28.465 -34.9375 27.805 -34.9375 27.125 C-19.00811503 26.386959 -19.00811503 26.386959 -12.9375 31.125 C-13.2675 30.465 -13.5975 29.805 -13.9375 29.125 C-14.69669913 21.73214287 -13.96395317 16.35437588 -9.9375 10.125 C-9.42058594 9.31417969 -8.90367187 8.50335938 -8.37109375 7.66796875 C-3.45585258 0.14705756 -3.45585258 0.14705756 0 0 Z " fill="#F3A7C4" transform="translate(249.9375,169.875)"/>
<path d="M0 0 C1.12148437 0.25136719 1.12148437 0.25136719 2.265625 0.5078125 C3.74289063 0.81332031 3.74289063 0.81332031 5.25 1.125 C6.22453125 1.33382813 7.1990625 1.54265625 8.203125 1.7578125 C11.23442766 2.0202996 12.48017346 1.61988849 15 0 C15.33 2.31 15.66 4.62 16 7 C23.92 7 31.84 7 40 7 C39 9 39 9 37.38671875 9.609375 C28.51529234 11.06132695 19.2035638 10.8093331 11 7 C10.09894531 6.59007812 9.19789063 6.18015625 8.26953125 5.7578125 C1.19184028 2.38368056 1.19184028 2.38368056 0 0 Z " fill="#F3A4C2" transform="translate(221,304)"/>
<path d="M0 0 C0.33 1.32 0.66 2.64 1 4 C-0.24517965 5.13033298 -1.49636652 6.25405036 -2.75 7.375 C-3.44609375 8.00148437 -4.1421875 8.62796875 -4.859375 9.2734375 C-7 11 -7 11 -9.16796875 12.06640625 C-11.78291048 13.39896718 -12.5354858 15.51669332 -14 18 C-14.99 18.33 -15.98 18.66 -17 19 C-17 19.66 -17 20.32 -17 21 C-19.75 23.6875 -19.75 23.6875 -23 26 C-25.375 25.8125 -25.375 25.8125 -27 25 C-26.01 24.67 -25.02 24.34 -24 24 C-23.31987742 22.67347993 -22.65499685 21.33910468 -22 20 C-20.1953125 18.21875 -20.1953125 18.21875 -18.125 16.5 C-15.84362363 14.57818838 -13.70998808 12.70235618 -11.625 10.5625 C-10 9 -10 9 -8 9 C-8 8.34 -8 7.68 -8 7 C-6.25 5.2734375 -6.25 5.2734375 -4 3.375 C-3.2575 2.74335938 -2.515 2.11171875 -1.75 1.4609375 C-0.88375 0.73777344 -0.88375 0.73777344 0 0 Z " fill="#F38BB0" transform="translate(335,209)"/>
<path d="M0 0 C0 3.45140758 -0.29880523 5.26510937 -2.70703125 7.7890625 C-3.74923828 8.69785156 -3.74923828 8.69785156 -4.8125 9.625 C-5.49957031 10.23601562 -6.18664062 10.84703125 -6.89453125 11.4765625 C-8.99520438 12.99653007 -10.46771872 13.57890154 -13 14 C-13.061875 14.556875 -13.12375 15.11375 -13.1875 15.6875 C-14.37688786 19.07268083 -16.24859671 20.74885185 -19 23 C-21.8125 23.3125 -21.8125 23.3125 -24 23 C-23.28199219 22.28457031 -22.56398438 21.56914062 -21.82421875 20.83203125 C-20.00377522 19.00655192 -18.19306481 17.17128845 -16.39453125 15.32421875 C-15.11642578 14.01904297 -15.11642578 14.01904297 -13.8125 12.6875 C-12.95269531 11.80449219 -12.09289062 10.92148438 -11.20703125 10.01171875 C-9 8 -9 8 -7 8 C-7 7.34 -7 6.68 -7 6 C-5.46875 4.4921875 -5.46875 4.4921875 -3.5 2.875 C-2.8503125 2.33617187 -2.200625 1.79734375 -1.53125 1.2421875 C-1.0259375 0.83226562 -0.520625 0.42234375 0 0 Z " fill="#F5A3C1" transform="translate(374,173)"/>
<path d="M0 0 C0.33 0.66 0.66 1.32 1 2 C-0.1875 4.5625 -0.1875 4.5625 -2 7 C-3.32594105 7.36162029 -4.65938457 7.69728039 -6 8 C-7.44147299 10.27600998 -8.14445422 12.43336266 -9 15 C-12.21284338 16.88579937 -14.24633583 18 -18 18 C-16.45212498 14.16549144 -14.06277254 11.97444301 -11 9.25 C-9.6696875 8.05117187 -9.6696875 8.05117187 -8.3125 6.828125 C-6 5 -6 5 -4 5 C-4 4.34 -4 3.68 -4 3 C-3.34 3 -2.68 3 -2 3 C-2 2.34 -2 1.68 -2 1 C-1.34 0.67 -0.68 0.34 0 0 Z " fill="#F692B4" transform="translate(408,142)"/>
<path d="M0 0 C0.33 0.66 0.66 1.32 1 2 C0.54625 2.350625 0.0925 2.70125 -0.375 3.0625 C-2.28239651 5.0667353 -2.28239651 5.0667353 -3 8.5625 C-4 12 -4 12 -7 14 C-9.26171875 14.6328125 -9.26171875 14.6328125 -11.6875 15.125 C-12.49574219 15.29257812 -13.30398437 15.46015625 -14.13671875 15.6328125 C-14.75160156 15.75398438 -15.36648437 15.87515625 -16 16 C-10.03225806 8.74193548 -10.03225806 8.74193548 -8 7 C-7.34 7 -6.68 7 -6 7 C-6 6.34 -6 5.68 -6 5 C-4.04072937 3.2856382 -2.04119788 1.61594832 0 0 Z " fill="#F887B0" transform="translate(90,312)"/>
<path d="M0 0 C0.33 0.99 0.66 1.98 1 3 C0.01 3.33 -0.98 3.66 -2 4 C-2.33 5.65 -2.66 7.3 -3 9 C-4.65 9 -6.3 9 -8 9 C-8.061875 9.598125 -8.12375 10.19625 -8.1875 10.8125 C-9.32282895 13.86915486 -11.21152775 14.46634026 -14 16 C-14.33 16.66 -14.66 17.32 -15 18 C-15.99 17.67 -16.98 17.34 -18 17 C-12.52817321 11.41417682 -6.93615794 6.08813538 -1 1 C-0.67 0.67 -0.34 0.34 0 0 Z " fill="#F3A5C2" transform="translate(307,235)"/>
<path d="M0 0 C4.76560621 1.40164889 7.95882443 4.15411474 11 8 C11 8.66 11 9.32 11 10 C11.5775 10.268125 12.155 10.53625 12.75 10.8125 C15.05550043 12.02929189 17.02056192 13.30333879 19 15 C19 15.66 19 16.32 19 17 C19.66 17.33 20.32 17.66 21 18 C20.01 18 19.02 18 18 18 C18 17.34 18 16.68 18 16 C15.525 15.505 15.525 15.505 13 15 C12.67 14.01 12.34 13.02 12 12 C8.55835627 8.17302847 8.55835627 8.17302847 4 6 C3.34 5.01 2.68 4.02 2 3 C1.34 2.67 0.68 2.34 0 2 C0 1.34 0 0.68 0 0 Z " fill="#F2A0BD" transform="translate(73,128)"/>
<path d="M0 0 C-1.36439152 5.15436796 -4.72573615 8.06648401 -9 11 C-9.66 11 -10.32 11 -11 11 C-11 11.66 -11 12.32 -11 13 C-11.99 13.33 -12.98 13.66 -14 14 C-12.66445565 10.02119078 -11.01381696 7.65301487 -8 4.75 C-6.948125 3.72132812 -6.948125 3.72132812 -5.875 2.671875 C-3.81008923 0.8306629 -2.7842857 0 0 0 Z " fill="#F3A4C2" transform="translate(43,86)"/>
<path d="M0 0 C1.12148437 0.25136719 1.12148437 0.25136719 2.265625 0.5078125 C3.74289063 0.81332031 3.74289063 0.81332031 5.25 1.125 C6.22453125 1.33382813 7.1990625 1.54265625 8.203125 1.7578125 C11.23442766 2.0202996 12.48017346 1.61988849 15 0 C15.042721 1.66611905 15.04063832 3.33382885 15 5 C14 6 14 6 11.4375 6.375 C6.81279983 5.87048725 3.64580726 3.82226197 0 1 C0 0.67 0 0.34 0 0 Z " fill="#FB7BA9" transform="translate(221,304)"/>
<path d="M0 0 C0.33 1.32 0.66 2.64 1 4 C-10.04109589 14 -10.04109589 14 -15 14 C-13.37660195 12.29115995 -11.70680947 10.62553283 -10 9 C-9.34 9 -8.68 9 -8 9 C-8 8.34 -8 7.68 -8 7 C-6.25 5.2734375 -6.25 5.2734375 -4 3.375 C-3.2575 2.74335938 -2.515 2.11171875 -1.75 1.4609375 C-1.1725 0.97882813 -0.595 0.49671875 0 0 Z " fill="#F6A5C4" transform="translate(335,209)"/>
<path d="M0 0 C0.99 0.66 1.98 1.32 3 2 C1.19047409 3.83635578 -0.62240638 5.66916208 -2.4375 7.5 C-2.95376953 8.02464844 -3.47003906 8.54929687 -4.00195312 9.08984375 C-5.31576787 10.41224552 -6.65593505 11.70835568 -8 13 C-8.33 13 -8.66 13 -9 13 C-9 10.69 -9 8.38 -9 6 C-8.236875 5.855625 -7.47375 5.71125 -6.6875 5.5625 C-3.91827092 5.0367406 -3.91827092 5.0367406 -1 4 C-0.26676204 1.98491642 -0.26676204 1.98491642 0 0 Z " fill="#F399BB" transform="translate(116,324)"/>
<path d="M0 0 C3 0.1875 3 0.1875 5 1.1875 C5 1.8475 5 2.5075 5 3.1875 C3.35 3.1875 1.7 3.1875 0 3.1875 C0 3.8475 0 4.5075 0 5.1875 C-1.98 5.8475 -3.96 6.5075 -6 7.1875 C-4.91362126 0.30710133 -4.91362126 0.30710133 0 0 Z " fill="#F599B9" transform="translate(250,169.8125)"/>
<path d="M0 0 C0 3 0 3 -1.32421875 4.46484375 C-1.87722656 4.97144531 -2.43023437 5.47804687 -3 6 C-3.94159923 7.18425225 -4.87900755 8.37184709 -5.8125 9.5625 C-8.53118323 12.79221391 -10.79352036 14.09861151 -15 15 C-13.38405168 12.95880212 -11.7143618 10.95927063 -10 9 C-9.34 9 -8.68 9 -8 9 C-7.34 7.68 -6.68 6.36 -6 5 C-5.34 5 -4.68 5 -4 5 C-3.67 4.01 -3.34 3.02 -3 2 C-2.01 1.34 -1.02 0.68 0 0 Z " fill="#F3A6C2" transform="translate(424,127)"/>
<path d="M0 0 C0.33 1.98 0.66 3.96 1 6 C1.66 6 2.32 6 3 6 C3 6.66 3 7.32 3 8 C3.99 8.33 4.98 8.66 6 9 C6.6875 11.0625 6.6875 11.0625 7 13 C5.7010161 12.09373216 4.41106833 11.17450463 3.125 10.25 C2.40570313 9.73953125 1.68640625 9.2290625 0.9453125 8.703125 C-1.10462017 6.90840483 -1.80160267 5.39679466 -3 3 C-3.99 2.67 -4.98 2.34 -6 2 C-2.25 0 -2.25 0 0 0 Z " fill="#F39DBC" transform="translate(398,336)"/>
<path d="M0 0 C0.66 0.33 1.32 0.66 2 1 C0.25 6.75 0.25 6.75 -2 9 C-4.32275177 9.40047444 -6.65739357 9.7397104 -9 10 C-7.38405168 7.95880212 -5.7143618 5.95927063 -4 4 C-3.34 4 -2.68 4 -2 4 C-1.34 2.68 -0.68 1.36 0 0 Z " fill="#F49BBB" transform="translate(100,302)"/>
<path d="M0 0 C0.99 0.33 1.98 0.66 3 1 C3 5.95 3 10.9 3 16 C3.66 16.33 4.32 16.66 5 17 C4.67 17.66 4.34 18.32 4 19 C4.66 19.33 5.32 19.66 6 20 C5.01 20 4.02 20 3 20 C1.28878246 15.47849025 0.64776388 11.44382847 0.375 6.625 C0.30023438 5.37976563 0.22546875 4.13453125 0.1484375 2.8515625 C0.09945312 1.91054687 0.05046875 0.96953125 0 0 Z " fill="#F3A1C0" transform="translate(250,228)"/>
<path d="M0 0 C5.75 0.75 5.75 0.75 8 3 C8 3.99 8 4.98 8 6 C9.32 6 10.64 6 12 6 C12.33 7.98 12.66 9.96 13 12 C2.34328358 4.68656716 2.34328358 4.68656716 0 0 Z " fill="#F09CBA" transform="translate(77,171)"/>
<path d="M0 0 C0.33 0 0.66 0 1 0 C1.02698189 1.62490954 1.04638757 3.24994633 1.0625 4.875 C1.07410156 5.77992188 1.08570313 6.68484375 1.09765625 7.6171875 C1 10 1 10 0 12 C-0.07065617 14.04055005 -0.08421976 16.08334257 -0.0625 18.125 C-0.04896484 19.76855469 -0.04896484 19.76855469 -0.03515625 21.4453125 C-0.02355469 22.28835938 -0.01195312 23.13140625 0 24 C-0.66 24 -1.32 24 -2 24 C-2.98022307 20.04225722 -3.00767515 16.61964486 -2.6875 12.5625 C-2.60886719 11.47066406 -2.53023437 10.37882813 -2.44921875 9.25390625 C-1.99533264 5.96619211 -1.14809873 3.10689573 0 0 Z " fill="#EFA0C0" transform="translate(220,235)"/>
<path d="M0 0 C0.66 0.33 1.32 0.66 2 1 C1.65978036 4.17538332 0.97533396 5.02276865 -1.4375 7.25 C-4 9 -4 9 -6 9 C-6 9.66 -6 10.32 -6 11 C-7.65 11.33 -9.3 11.66 -11 12 C-9.38405168 9.95880212 -7.7143618 7.95927063 -6 6 C-5.34 6 -4.68 6 -4 6 C-4 5.34 -4 4.68 -4 4 C-3.34 4 -2.68 4 -2 4 C-2 3.34 -2 2.68 -2 2 C-1.34 2 -0.68 2 0 2 C0 1.34 0 0.68 0 0 Z " fill="#F2A2BF" transform="translate(147,257)"/>
<path d="M0 0 C0.33 0.66 0.66 1.32 1 2 C-0.28627711 3.17260611 -1.57919783 4.3379283 -2.875 5.5 C-3.95394531 6.47453125 -3.95394531 6.47453125 -5.0546875 7.46875 C-7 9 -7 9 -9 9 C-9 9.66 -9 10.32 -9 11 C-9.99 11.33 -10.98 11.66 -12 12 C-11.38722388 9.03824877 -10.74627478 7.61941217 -9 5 C-7.68 5 -6.36 5 -5 5 C-5 4.01 -5 3.02 -5 2 C-3.35 1.34 -1.7 0.68 0 0 Z " fill="#F2A4C1" transform="translate(358,228)"/>
<path d="M0 0 C-0.9520721 1.00596297 -1.91187346 2.00461563 -2.875 3 C-3.40867187 3.556875 -3.94234375 4.11375 -4.4921875 4.6875 C-6 6 -6 6 -8 6 C-8.33 6.99 -8.66 7.98 -9 9 C-9.66 9 -10.32 9 -11 9 C-11 8.01 -11 7.02 -11 6 C-11.66 5.67 -12.32 5.34 -13 5 C-11.68 5 -10.36 5 -9 5 C-8.67 4.34 -8.34 3.68 -8 3 C-7.01 3 -6.02 3 -5 3 C-5.33 2.01 -5.66 1.02 -6 0 C-3.50907189 -1.24546405 -2.58919267 -0.7767578 0 0 Z " fill="#F3A3C1" transform="translate(403,188)"/>
<path d="M0 0 C-0.47386028 4.26474248 -2.77031321 6.35752899 -6 9 C-8.8125 9.3125 -8.8125 9.3125 -11 9 C-9.33333333 7.33333333 -7.66666667 5.66666667 -6 4 C-5.278125 3.236875 -4.55625 2.47375 -3.8125 1.6875 C-2 0 -2 0 0 0 Z " fill="#F397B8" transform="translate(361,187)"/>
<path d="M0 0 C4.13621084 3.3810038 7.81316569 6.66590534 11 11 C10.01 11 9.02 11 8 11 C8 10.34 8 9.68 8 9 C5.69 8.34 3.38 7.68 1 7 C0.67 4.69 0.34 2.38 0 0 Z " fill="#F4A7C3" transform="translate(425,327)"/>
<path d="M0 0 C0.33 0.66 0.66 1.32 1 2 C-0.51957803 5.48609078 -1.79086861 6.87196038 -5.0625 8.875 C-6.5165625 9.431875 -6.5165625 9.431875 -8 10 C-8.66 9.67 -9.32 9.34 -10 9 C-8.71034824 7.62437146 -7.37310707 6.29233607 -6 5 C-5.34 5 -4.68 5 -4 5 C-4 4.34 -4 3.68 -4 3 C-3.34 3 -2.68 3 -2 3 C-2 2.34 -2 1.68 -2 1 C-1.34 0.67 -0.68 0.34 0 0 Z " fill="#F4A0BF" transform="translate(408,142)"/>
<path d="M0 0 C0.66 0 1.32 0 2 0 C0.68573326 3.94280022 -0.74730514 6.37977359 -4 9 C-7.25 10.25 -7.25 10.25 -10 11 C-4.03225806 3.74193548 -4.03225806 3.74193548 -2 2 C-1.34 2 -0.68 2 0 2 C0 1.34 0 0.68 0 0 Z " fill="#F0ABC4" transform="translate(84,317)"/>
<path d="M0 0 C1.35544922 0.10828125 1.35544922 0.10828125 2.73828125 0.21875 C3.91777344 0.3115625 5.09726562 0.404375 6.3125 0.5 C7.48425781 0.5928125 8.65601563 0.685625 9.86328125 0.78125 C11.905194 0.92364989 13.9531279 1 16 1 C14.68 2.65 13.36 4.3 12 6 C11.505 5.731875 11.01 5.46375 10.5 5.1875 C7.0763054 3.56124507 3.55867715 2.30484829 0 1 C0 0.67 0 0.34 0 0 Z " fill="#F6C0D6" transform="translate(268,257)"/>
<path d="M0 0 C0.99 0.33 1.98 0.66 3 1 C3 1.66 3 2.32 3 3 C3.66 3 4.32 3 5 3 C5 3.66 5 4.32 5 5 C5.61875 5.268125 6.2375 5.53625 6.875 5.8125 C9 7 9 7 11 10 C10.01 10 9.02 10 8 10 C8 9.34 8 8.68 8 8 C6.68 7.67 5.36 7.34 4 7 C4 6.34 4 5.68 4 5 C3.01 5 2.02 5 1 5 C0.67 3.35 0.34 1.7 0 0 Z " fill="#F5ACC5" transform="translate(186,232)"/>
<path d="M0 0 C0.33 0.99 0.66 1.98 1 3 C-0.98 3.99 -0.98 3.99 -3 5 C-3 5.66 -3 6.32 -3 7 C-3.66 7 -4.32 7 -5 7 C-5 8.32 -5 9.64 -5 11 C-5.66 11 -6.32 11 -7 11 C-7 10.34 -7 9.68 -7 9 C-7.66 8.67 -8.32 8.34 -9 8 C-8.01 7.67 -7.02 7.34 -6 7 C-6 6.34 -6 5.68 -6 5 C-5.34 5 -4.68 5 -4 5 C-4 4.34 -4 3.68 -4 3 C-3.34 3 -2.68 3 -2 3 C-2 2.34 -2 1.68 -2 1 C-1.34 0.67 -0.68 0.34 0 0 Z " fill="#F6A1BE" transform="translate(345,200)"/>
<path d="M0 0 C2.64 0 5.28 0 8 0 C8.625 2.3125 8.625 2.3125 9 5 C8.01 6.485 8.01 6.485 7 8 C6.67 7.01 6.34 6.02 6 5 C4.67532254 4.3162955 3.34136367 3.65035814 2 3 C1.34 2.01 0.68 1.02 0 0 Z " fill="#F99BBF" transform="translate(102,194)"/>
<path d="M0 0 C0.144375 0.598125 0.28875 1.19625 0.4375 1.8125 C0.8872439 3.56150404 1.42892341 5.28677023 2 7 C1.67 7.66 1.34 8.32 1 9 C-1.97 8.505 -1.97 8.505 -5 8 C-3.62845496 5.04590299 -2.01136276 2.55991624 0 0 Z " fill="#F688B0" transform="translate(285,255)"/>
<path d="M0 0 C0.61875 0.33 1.2375 0.66 1.875 1 C3.91018344 2.14193235 3.91018344 2.14193235 6 2 C7.625 4 7.625 4 9 6 C6 7 6 7 3.95703125 6.22265625 C3.24933594 5.83980469 2.54164063 5.45695313 1.8125 5.0625 C1.09707031 4.68222656 0.38164062 4.30195313 -0.35546875 3.91015625 C-0.89816406 3.60980469 -1.44085938 3.30945313 -2 3 C-1.34 2.67 -0.68 2.34 0 2 C0 1.34 0 0.68 0 0 Z " fill="#F59DBE" transform="translate(260,250)"/>
<path d="M0 0 C1.11651815 3.34955444 0.99822121 4.67259596 0 8 C-1.5625 9.8125 -1.5625 9.8125 -3 11 C-3.99 10.67 -4.98 10.34 -6 10 C-5.67 9.34 -5.34 8.68 -5 8 C-4.34 8 -3.68 8 -3 8 C-2.690625 6.865625 -2.38125 5.73125 -2.0625 4.5625 C-1 1 -1 1 0 0 Z " fill="#F9A1C6" transform="translate(262,200)"/>
<path d="M0 0 C9.9127789 1.8356998 9.9127789 1.8356998 14 5 C14 5.66 14 6.32 14 7 C14.66 7.33 15.32 7.66 16 8 C15.01 8 14.02 8 13 8 C13 7.34 13 6.68 13 6 C11.58398286 5.51891725 10.16715563 5.04021859 8.75 4.5625 C7.96109375 4.29566406 7.1721875 4.02882813 6.359375 3.75390625 C4.25178012 3.08045292 2.15246027 2.50849405 0 2 C0 1.34 0 0.68 0 0 Z " fill="#F3B4CC" transform="translate(447,82)"/>
<path d="M0 0 C0.66 1.32 1.32 2.64 2 4 C1.13375 4.0928125 1.13375 4.0928125 0.25 4.1875 C-2.88690987 5.32027301 -4.09167504 7.34197595 -6 10 C-6.66 9.67 -7.32 9.34 -8 9 C-8 8.34 -8 7.68 -8 7 C-6.25 5.2734375 -6.25 5.2734375 -4 3.375 C-3.2575 2.74335938 -2.515 2.11171875 -1.75 1.4609375 C-1.1725 0.97882813 -0.595 0.49671875 0 0 Z " fill="#F39FBE" transform="translate(114,289)"/>
<path d="M0 0 C-0.598125 0.268125 -1.19625 0.53625 -1.8125 0.8125 C-4.07100952 2.03854802 -5.47062652 2.93534581 -7 5 C-7.25069913 7.62570704 -7.25069913 7.62570704 -7 10 C-7.99 9.67 -8.98 9.34 -10 9 C-9.75 5.625 -9.75 5.625 -9 2 C-6.19227664 -0.30634419 -3.53567531 -0.19642641 0 0 Z " fill="#F1AEC6" transform="translate(212,199)"/>
<path d="M0 0 C0.33 0.99 0.66 1.98 1 3 C-0.1196986 4.00593243 -1.2459412 5.0045849 -2.375 6 C-3.00148438 6.556875 -3.62796875 7.11375 -4.2734375 7.6875 C-6 9 -6 9 -8 9 C-8 8.34 -8 7.68 -8 7 C-7.34 7 -6.68 7 -6 7 C-6 6.34 -6 5.68 -6 5 C-4.04072937 3.2856382 -2.04119788 1.61594832 0 0 Z " fill="#F49DBE" transform="translate(69,332)"/>
<path d="M0 0 C0.33 0.66 0.66 1.32 1 2 C1.61875 2.28875 2.2375 2.5775 2.875 2.875 C5.36796335 4.19480413 6.45147781 5.67721672 8 8 C7.34 8 6.68 8 6 8 C5.67 8.66 5.34 9.32 5 10 C5 9.34 5 8.68 5 8 C4.01 7.67 3.02 7.34 2 7 C1.22227595 4.66682784 0.57584432 2.38564077 0 0 Z " fill="#F6ABC6" transform="translate(119,169)"/>
<path d="M0 0 C2.04119788 1.61594832 4.04072937 3.2856382 6 5 C6 5.66 6 6.32 6 7 C6.66 7.33 7.32 7.66 8 8 C7.01 8 6.02 8 5 8 C5 7.34 5 6.68 5 6 C3.68 6.33 2.36 6.66 1 7 C0.67 4.69 0.34 2.38 0 0 Z " fill="#F5AAC6" transform="translate(134,183)"/>
<path d="M0 0 C0.99 0.33 1.98 0.66 3 1 C3 1.66 3 2.32 3 3 C3.598125 3.0825 4.19625 3.165 4.8125 3.25 C7.5966296 4.20455872 8.43311142 5.57132271 10 8 C9.01 8.495 9.01 8.495 8 9 C6 7.625 6 7.625 4 6 C4 5.34 4 4.68 4 4 C2.68 3.34 1.36 2.68 0 2 C0 1.34 0 0.68 0 0 Z " fill="#F3ACC6" transform="translate(31,403)"/>
<path d="M0 0 C1.65 0.33 3.3 0.66 5 1 C0.25 5.875 0.25 5.875 -2 7 C-2.33 5.68 -2.66 4.36 -3 3 C-2.01 3 -1.02 3 0 3 C0 2.01 0 1.02 0 0 Z " fill="#F397B9" transform="translate(139,301)"/>
<path d="M0 0 C2.475 0.99 2.475 0.99 5 2 C4.6875 3.9375 4.6875 3.9375 4 6 C3.01 6.33 2.02 6.66 1 7 C0.67 4.69 0.34 2.38 0 0 Z " fill="#F490B3" transform="translate(298,276)"/>
<path d="M0 0 C3.53600465 1.91135386 5.78972846 3.62642766 8 7 C5.03 6.505 5.03 6.505 2 6 C1.34 4.02 0.68 2.04 0 0 Z " fill="#F3A9C4" transform="translate(352,259)"/>
<path d="M0 0 C2.31 1.65 4.62 3.3 7 5 C5.02 5.99 5.02 5.99 3 7 C2.01 6.34 1.02 5.68 0 5 C-0.1875 2.375 -0.1875 2.375 0 0 Z " fill="#F59BBC" transform="translate(127,177)"/>
<path d="M0 0 C5.01113235 1.4317521 6.94469549 3.98445693 10 8 C9.01 8.495 9.01 8.495 8 9 C7.67 8.34 7.34 7.68 7 7 C6.01 6.67 5.02 6.34 4 6 C3.34 5.01 2.68 4.02 2 3 C1.34 2.67 0.68 2.34 0 2 C0 1.34 0 0.68 0 0 Z " fill="#F4B3CB" transform="translate(73,128)"/>
<path d="M0 0 C0.33 0.99 0.66 1.98 1 3 C0.34 3 -0.32 3 -1 3 C-1.66 4.32 -2.32 5.64 -3 7 C-4.32 6.67 -5.64 6.34 -7 6 C-4.69 4.02 -2.38 2.04 0 0 Z " fill="#F3A8C2" transform="translate(434,118)"/>
<path d="M0 0 C1.98 0 3.96 0 6 0 C6 1.32 6 2.64 6 4 C6.66 4 7.32 4 8 4 C8.33 4.99 8.66 5.98 9 7 C8.34 7 7.68 7 7 7 C7 6.34 7 5.68 7 5 C4.66785852 3.79371992 2.50357861 2.8345262 0 2 C0 1.34 0 0.68 0 0 Z " fill="#F4ADC8" transform="translate(179,266)"/>
<path d="M0 0 C0.99 0.33 1.98 0.66 3 1 C2.01 1.495 2.01 1.495 1 2 C-0.13350534 4.01669827 -0.13350534 4.01669827 -1 6 C-2.32 5.67 -3.64 5.34 -5 5 C-3.35 3.35 -1.7 1.7 0 0 Z " fill="#F2AAC3" transform="translate(380,167)"/>
<path d="M0 0 C0.99 0.495 0.99 0.495 2 1 C2 1.66 2 2.32 2 3 C2.66 3 3.32 3 4 3 C4 3.66 4 4.32 4 5 C4.66 5 5.32 5 6 5 C6.33 6.32 6.66 7.64 7 9 C6.01 9.33 5.02 9.66 4 10 C3.67 8.02 3.34 6.04 3 4 C2.34 4 1.68 4 1 4 C0.67 2.68 0.34 1.36 0 0 Z " fill="#F3A8C3" transform="translate(463,90)"/>
<path d="M0 0 C3.3125 0.1875 3.3125 0.1875 7 1 C8.9375 3.5625 8.9375 3.5625 10 6 C5.56909529 4.79157144 3.01887244 3.48331435 0 0 Z " fill="#F5B2CB" transform="translate(221,304)"/>
<path d="M0 0 C0.66 0.33 1.32 0.66 2 1 C1.3125 2.9375 1.3125 2.9375 0 5 C-2.625 5.75 -2.625 5.75 -5 6 C-4.67 5.34 -4.34 4.68 -4 4 C-3.34 4 -2.68 4 -2 4 C-1.34 2.68 -0.68 1.36 0 0 Z " fill="#F6ACC6" transform="translate(313,229)"/>
<path d="M0 0 C0.99 0.33 1.98 0.66 3 1 C3 1.66 3 2.32 3 3 C3.639375 3.28875 4.27875 3.5775 4.9375 3.875 C7 5 7 5 8 7 C6.68 7 5.36 7 4 7 C4 6.01 4 5.02 4 4 C3.01 4 2.02 4 1 4 C0.67 2.68 0.34 1.36 0 0 Z " fill="#F4AFC8" transform="translate(102,154)"/>
<path d="M0 0 C1.27875 0.103125 2.5575 0.20625 3.875 0.3125 C4.95394531 0.39951172 4.95394531 0.39951172 6.0546875 0.48828125 C8 1 8 1 10 4 C5.78087253 3.5205537 3.20336822 2.83374881 0 0 Z " fill="#F4ABC5" transform="translate(43,414)"/>
<path d="M0 0 C0.66 0.33 1.32 0.66 2 1 C-0.83430453 4.2542015 -2.68607774 5.5206753 -7 6 C-5.01180815 3.01771223 -3.42353587 1.21480305 0 0 Z " fill="#F48DB7" transform="translate(77,326)"/>
<path d="M0 0 C0.33 0.99 0.66 1.98 1 3 C0.01 4.485 0.01 4.485 -1 6 C-2.32 4.35 -3.64 2.7 -5 1 C-3.35 0.67 -1.7 0.34 0 0 Z " fill="#F19ABA" transform="translate(211,289)"/>
<path d="M0 0 C4.35535069 1.16142685 6.64619703 2.07699505 9 6 C4.58763974 6 3.21615077 3.9302707 0 1 C0 0.67 0 0.34 0 0 Z " fill="#F4ACC6" transform="translate(125,216)"/>
<path d="M0 0 C0.33 0 0.66 0 1 0 C1.38922918 1.28745036 1.76098036 2.58019597 2.125 3.875 C2.33382813 4.59429687 2.54265625 5.31359375 2.7578125 6.0546875 C2.83773438 6.69664062 2.91765625 7.33859375 3 8 C2.34 8.66 1.68 9.32 1 10 C-0.83691257 6.21812119 -1.15837626 4.05431692 0 0 Z " fill="#F59CBD" transform="translate(26,387)"/>
<path d="M0 0 C1.65 0 3.3 0 5 0 C5 0.66 5 1.32 5 2 C1.53846154 5 1.53846154 5 -1 5 C-0.67 3.35 -0.34 1.7 0 0 Z " fill="#F5A4C2" transform="translate(277,299)"/>
<path d="M0 0 C1.65 0 3.3 0 5 0 C5.33 1.65 5.66 3.3 6 5 C5.34 5 4.68 5 4 5 C4 4.34 4 3.68 4 3 C2.68 2.34 1.36 1.68 0 1 C0 0.67 0 0.34 0 0 Z " fill="#EFA3BF" transform="translate(335,283)"/>
<path d="M0 0 C1.98 0.99 3.96 1.98 6 3 C6.33 2.34 6.66 1.68 7 1 C6.67 2.32 6.34 3.64 6 5 C5.01 5 4.02 5 3 5 C3 4.34 3 3.68 3 3 C2.01 2.67 1.02 2.34 0 2 C0 1.34 0 0.68 0 0 Z " fill="#F5B4CC" transform="translate(231,198)"/>
<path d="M0 0 C1.98 0 3.96 0 6 0 C6.33 1.98 6.66 3.96 7 6 C5.83054208 5.19152271 4.66449539 4.37810888 3.5 3.5625 C2.8503125 3.11003906 2.200625 2.65757812 1.53125 2.19140625 C1.0259375 1.79824219 0.520625 1.40507812 0 1 C0 0.67 0 0.34 0 0 Z " fill="#F5A3C3" transform="translate(83,177)"/>
<path d="M0 0 C1.98 0.66 3.96 1.32 6 2 C6 2.66 6 3.32 6 4 C4.02 4 2.04 4 0 4 C0 2.68 0 1.36 0 0 Z " fill="#F593B7" transform="translate(56,113)"/>
</svg>
