<?xml version="1.0" encoding="UTF-8"?>
<svg version="1.1" xmlns="http://www.w3.org/2000/svg" width="1200" height="1200">
<path d="M0 0 C5.12539573 -0.00050095 10.25078971 -0.00280667 15.3761847 -0.00549722 C32.43532407 -0.0142648 49.49445726 -0.01892268 66.5535989 -0.01816674 C67.46559228 -0.01812679 68.37758566 -0.01808683 69.3172152 -0.01804566 C70.68695219 -0.01798434 70.68695219 -0.01798434 72.08436064 -0.01792178 C86.84614776 -0.01751628 101.60790927 -0.02707211 116.36968901 -0.04118403 C131.67263801 -0.05569325 146.97557464 -0.06244637 162.27853066 -0.06159025 C170.81141741 -0.06126327 179.34427703 -0.06384253 187.87715745 -0.0747683 C394.0941955 -0.32600415 394.0941955 -0.32600415 485.24714684 64.06960082 C486.91548249 65.43243975 488.59350773 66.78353261 490.28254724 68.12062621 C496.90161165 73.40682667 503.02136297 79.061036 508.97712731 85.06862426 C510.43914955 86.5413823 511.91159282 88.00310752 513.38533044 89.46413207 C522.49473827 98.55793051 530.48363725 108.34043939 537.81501794 118.91725707 C538.41676843 119.78503783 539.01851892 120.65281859 539.63850427 121.54689574 C583.43393103 185.22317986 592.03964561 261.48190318 593.76015091 336.77551365 C593.79766939 338.41100554 593.83569522 340.04648585 593.87415743 341.68195581 C594.7117683 377.30698003 594.97890147 412.91823813 594.98227501 448.55225277 C594.98278134 452.81115368 594.98510166 457.07005252 594.98777223 461.32895255 C594.99651041 475.56812611 595.00120226 489.80729236 595.00044175 504.04646862 C595.00038182 505.18121618 595.00038182 505.18121618 595.00032067 506.33888793 C595.00025935 507.47512967 595.00025935 507.47512967 595.00019679 508.63432579 C594.9997918 520.86247082 595.00934252 533.09058485 595.02345904 545.31872094 C595.03806906 558.08192288 595.04471615 570.84510996 595.04386526 583.60832042 C595.04354167 590.69057171 595.0459614 597.77279018 595.05704331 604.85503364 C595.10121442 634.57206501 594.84963044 664.25840802 593.97762801 693.96209125 C593.91517607 696.0958951 593.85432472 698.22974019 593.79363883 700.36359489 C592.85676529 732.8690912 591.01645579 765.36607999 583.81501794 797.16725707 C583.58556481 798.19254516 583.35611169 799.21783324 583.11970544 800.27419066 C579.87398415 814.53440982 575.76538613 828.40923325 570.81501794 842.16725707 C570.39566979 843.34626586 570.39566979 843.34626586 569.96784997 844.54909301 C566.10539682 855.30443541 561.38698291 865.33069297 555.83894372 875.31618285 C554.92728366 876.96430077 554.03935834 878.62549712 553.15486169 880.28835082 C541.34009262 902.50011668 525.33806213 921.75552491 507.69001794 939.54225707 C506.84753503 940.39408568 506.00505212 941.2459143 505.13703942 942.1235559 C504.34756921 942.90883666 503.55809899 943.69411742 502.74470544 944.50319457 C502.03555993 945.21008422 501.32641442 945.91697387 500.59577966 946.64528441 C498.81501794 948.16725707 498.81501794 948.16725707 496.81501794 948.16725707 C496.81501794 948.82725707 496.81501794 949.48725707 496.81501794 950.16725707 C489.5925646 956.95702887 480.94770084 962.51457211 472.81501794 968.16725707 C471.8994613 968.8063098 471.8994613 968.8063098 470.96540856 969.4582727 C433.70545522 995.33214967 389.5982641 1009.03781535 345.12751794 1015.91725707 C343.84707604 1016.11617553 342.56663415 1016.31509398 341.24739099 1016.52004027 C322.48563819 1019.27075703 303.60233471 1020.43776793 284.66462731 1021.11769652 C281.66232597 1021.22623908 278.66060192 1021.34538728 275.65876794 1021.4660852 C232.07889754 1023.14535195 188.46588708 1023.33044605 144.85976577 1023.33451414 C140.54443509 1023.33502 136.22910645 1023.33733906 131.91377664 1023.34001136 C117.49255103 1023.34875157 103.07133266 1023.35344103 88.65010439 1023.35268088 C87.88355418 1023.35264093 87.11700397 1023.35260097 86.32722497 1023.3525598 C85.55966851 1023.35251892 84.79211205 1023.35247804 84.0012963 1023.35243592 C71.60684033 1023.35203082 59.21241492 1023.36158401 46.81796776 1023.37569817 C33.88982535 1023.39029634 20.96169761 1023.3969559 8.03354681 1023.3961044 C0.85632927 1023.39578043 -6.32085589 1023.39821663 -13.49806571 1023.40928245 C-43.84433123 1023.45378779 -74.1576922 1023.17464593 -104.48918128 1022.23488402 C-105.5215585 1022.20331583 -105.5215585 1022.20331583 -106.57479182 1022.1711099 C-162.78332312 1020.44775937 -217.50754981 1013.7208357 -269.18498206 990.16725707 C-270.19963538 989.70633666 -270.19963538 989.70633666 -271.23478675 989.23610473 C-291.14608606 980.05634594 -312.15262994 967.2391457 -328.18498206 952.16725707 C-328.18498206 951.50725707 -328.18498206 950.84725707 -328.18498206 950.16725707 C-328.72123206 949.94038207 -329.25748206 949.71350707 -329.80998206 949.47975707 C-335.43020021 946.37384704 -339.17873605 942.09802139 -343.18498206 937.16725707 C-345.4153022 934.87665801 -347.69017516 932.64180248 -349.99748206 930.42897582 C-355.21443962 925.34448008 -359.7721758 919.95906529 -364.18498206 914.16725707 C-364.80179847 913.36505736 -364.80179847 913.36505736 -365.43107581 912.5466516 C-408.24866193 856.62650297 -421.7438216 788.9818105 -426.18498206 720.16725707 C-426.23011939 719.47819274 -426.27525672 718.78912841 -426.32176185 718.07918334 C-428.07630247 690.55059598 -428.33978759 662.92228571 -428.33036578 635.34678197 C-428.33015582 631.482753 -428.33573516 627.61873074 -428.34042335 623.75470519 C-428.34860606 616.23592486 -428.35147246 608.71715236 -428.35203572 601.19836794 C-428.35251689 595.0640405 -428.3546009 588.92971558 -428.35773635 582.79538894 C-428.36650923 565.2656936 -428.37116106 547.73600429 -428.37040588 530.20630674 C-428.37036592 529.26819574 -428.37032596 528.33008474 -428.3702848 527.36354613 C-428.37024392 526.4242421 -428.37020303 525.48493806 -428.37016091 524.51717027 C-428.36975543 509.33351737 -428.37930919 494.14988938 -428.39342316 478.96624367 C-428.40792125 463.24077471 -428.41468607 447.51531779 -428.41382939 431.78984201 C-428.41350199 423.01552404 -428.41610013 414.24123245 -428.42700744 405.46692061 C-428.64527218 220.94002009 -428.64527218 220.94002009 -389.18498206 147.16725707 C-388.66750403 146.19030883 -388.66750403 146.19030883 -388.13957191 145.19362426 C-380.94912756 131.70702038 -372.46905084 119.24804597 -363.12248206 107.16725707 C-362.65729163 106.56123656 -362.1921012 105.95521605 -361.71281409 105.33083129 C-360.58583164 103.90292902 -359.391256 102.52883612 -358.18498206 101.16725707 C-357.52498206 101.16725707 -356.86498206 101.16725707 -356.18498206 101.16725707 C-355.91427894 100.57944457 -355.64357581 99.99163207 -355.36466956 99.38600707 C-352.72350915 94.41852655 -348.36102257 89.89586466 -344.18498206 86.16725707 C-343.52498206 86.16725707 -342.86498206 86.16725707 -342.18498206 86.16725707 C-341.68998206 84.68225707 -341.68998206 84.68225707 -341.18498206 83.16725707 C-339.68888831 81.65944457 -339.68888831 81.65944457 -337.74748206 80.04225707 C-334.57370643 77.35892279 -331.4874231 74.61292956 -328.43498206 71.79225707 C-315.27943471 59.9562631 -300.0002355 49.13934814 -284.18498206 41.16725707 C-282.99718198 40.54934399 -281.80970343 39.93081257 -280.62248206 39.31178832 C-232.28862604 14.36016031 -179.9670504 5.30820005 -126.18498206 2.16725707 C-125.30036292 2.11472777 -124.41574378 2.06219848 -123.504318 2.00807738 C-117.06731808 1.64017827 -110.62808075 1.39961637 -104.18498206 1.16725707 C-102.52236618 1.10481842 -102.52236618 1.10481842 -100.8261621 1.04111838 C-67.23012993 -0.17021088 -33.61247104 0.00261089 0 0 Z M-46.14298987 94.62087035 C-47.36797171 94.64081612 -48.59295355 94.6607619 -49.85505605 94.68131208 C-118.45919135 95.35162307 -118.45919135 95.35162307 -186.18498206 105.16725707 C-187.05993323 105.36045531 -187.93488441 105.55365355 -188.83634925 105.75270629 C-218.83612481 112.56337102 -247.37154086 125.82161856 -269.86466956 147.00319457 C-272.18498206 149.16725707 -272.18498206 149.16725707 -275.30998206 151.60475707 C-278.97856084 154.87457729 -281.89590658 158.56819085 -284.95451331 162.40553832 C-286.83972229 164.73976379 -288.78283269 166.95789203 -290.80998206 169.16725707 C-294.88609025 173.77994301 -297.99129765 178.9236729 -301.18498206 184.16725707 C-301.67740394 184.9123352 -302.16982581 185.65741332 -302.67716956 186.42506957 C-308.04828587 194.75755811 -311.5499468 203.98588576 -315.18498206 213.16725707 C-315.46374183 213.85674438 -315.74250159 214.54623168 -316.02970862 215.25661254 C-328.65041783 246.7927465 -331.517332 282.28953251 -332.83227539 315.94587684 C-332.918304 318.14649178 -333.00848493 320.34691677 -333.09857726 322.54736876 C-335.21670734 375.51204933 -334.59908885 428.59588599 -334.51764224 481.59395635 C-334.50015598 493.0733206 -334.49552463 504.55262741 -334.50065589 516.03200316 C-334.67100743 596.93079171 -334.67100743 596.93079171 -333.25529456 677.81178832 C-333.23459159 678.53183358 -333.21388862 679.25187884 -333.19255829 679.99374366 C-332.55905988 701.769452 -331.55824813 723.50476335 -329.18498206 745.16725707 C-329.07041663 746.24024047 -328.9558512 747.31322387 -328.83781409 748.41872191 C-326.67645244 767.95881148 -323.24995481 787.76593837 -316.18498206 806.16725707 C-315.94054358 806.81646117 -315.69610511 807.46566527 -315.44425941 808.13454223 C-309.37976423 824.1151524 -301.92193289 839.78342373 -291.18498206 853.16725707 C-290.54689612 854.00643676 -289.90881019 854.84561645 -289.25138831 855.71022582 C-284.47437121 861.82372408 -279.20667411 867.35007176 -273.74748206 872.85475707 C-272.68110511 873.93503173 -272.68110511 873.93503173 -271.59318519 875.03713012 C-270.58868323 876.03546874 -270.58868323 876.03546874 -269.56388831 877.05397582 C-268.66005408 877.95442626 -268.66005408 877.95442626 -267.73796058 878.87306762 C-266.26583677 880.38065583 -266.26583677 880.38065583 -264.18498206 880.16725707 C-263.68998206 881.65225707 -263.68998206 881.65225707 -263.18498206 883.16725707 C-234.90717484 909.60916966 -190.54438479 920.09073103 -153.24748206 924.22975707 C-152.49664344 924.31407989 -151.74580482 924.3984027 -150.97221351 924.48528075 C-137.15176077 926.00638963 -123.32471662 926.7982461 -109.43498206 927.35475707 C-108.52016059 927.39150542 -107.60533912 927.42825377 -106.66279578 927.46611571 C-100.70063331 927.69778915 -94.73773213 927.88662306 -88.77360511 928.0598352 C-85.61337574 928.15443353 -82.45359607 928.25867627 -79.29375052 928.36517215 C-46.53900151 929.44822656 -13.77054981 929.32503224 18.99764657 929.29623199 C23.86720003 929.29199562 28.73675347 929.28972383 33.60630822 929.28755736 C146.35331625 929.48393368 146.35331625 929.48393368 259.06501794 927.22975707 C260.20518365 927.19223327 261.34534936 927.15470946 262.52006555 927.11604857 C293.04501058 926.06565795 324.05019626 924.65131362 353.86824059 917.62282348 C355.56843402 917.2249603 357.27528314 916.85575783 358.98298669 916.49147582 C367.85473033 914.49686311 376.27572731 911.19912024 384.74909997 907.95143676 C386.36590818 907.33772984 387.99300429 906.75111168 389.62361169 906.17506957 C408.89799813 899.16012823 426.12523842 886.22711466 440.81501794 872.16725707 C441.59747888 871.4479602 442.37993981 870.72866332 443.18611169 869.98756957 C460.11408151 853.89922705 472.17025306 833.69761487 480.81501794 812.16725707 C481.17982263 811.28553832 481.54462731 810.40381957 481.92048669 809.49538207 C494.53188817 777.16901419 497.40505527 742.37719746 498.69001794 708.05714965 C498.81149544 704.82352295 498.93791576 701.59012004 499.06501794 698.3567102 C500.31254863 666.03123001 500.97247374 633.73254571 500.94921708 601.38327217 C500.94731285 597.64272176 500.94906471 593.90217617 500.95077991 590.16162592 C500.95578509 579.1783545 500.95147887 568.19510095 500.94399285 557.21183181 C500.94048717 552.04563997 500.93822738 546.87944851 500.93641412 541.71325582 C504.14647699 400.95670588 504.14647699 400.95670588 461.81501794 175.16725707 C461.10990075 174.14503051 460.40478356 173.12280395 459.67829919 172.06960082 C456.85897645 168.03206049 456.85897645 168.03206049 453.81501794 164.16725707 C453.15501794 164.16725707 452.49501794 164.16725707 451.81501794 164.16725707 C451.53915856 163.57557738 451.26329919 162.9838977 450.97908044 162.37428832 C447.98109584 156.69019001 443.12134659 152.35681939 438.27204919 148.24928832 C436.3515286 146.62188375 434.45992925 144.97375078 432.57673669 143.30397582 C425.66792372 137.21613522 418.7675375 131.86314669 410.81501794 127.16725707 C410.07767419 126.68128051 409.34033044 126.19530395 408.58064294 125.69460082 C400.24742917 120.30674709 391.00473605 116.80559695 381.81501794 113.16725707 C381.12553063 112.8884973 380.43604333 112.60973754 379.72566247 112.32253051 C344.23679042 98.11994199 305.07835315 96.57559716 267.35594201 95.38428283 C263.08237093 95.24672761 258.81031808 95.08864046 254.53808618 94.91464782 C229.19026361 93.93837611 203.84051112 94.01973349 178.47753644 94.03293157 C172.60923507 94.03524713 166.74093559 94.03345581 160.87263414 94.03200437 C148.50722067 94.02917438 136.14181469 94.03239391 123.77640244 94.03780474 C113.31905564 94.04224072 102.86172 94.04151864 92.40437341 94.03688598 C80.11420876 94.03144349 67.82405069 94.02947936 55.533885 94.03249824 C49.08370138 94.03402201 42.63352529 94.03436785 36.18334222 94.03096175 C8.73722135 94.01849592 -18.70075014 94.1657165 -46.14298987 94.62087035 Z " fill="#FF78A7" transform="translate(517.1849820613861,88.83274292945862)"/>
<path d="M0 0 C0.55606934 0.36206543 1.11213867 0.72413086 1.68505859 1.09716797 C13.04912984 8.50696054 24.04390355 16.25135877 34.4921875 24.921875 C36.20629497 26.34228805 37.93497466 27.74524987 39.67578125 29.1328125 C41.96236549 30.96976589 44.03751891 32.81946545 46 35 C46 35.66 46 36.32 46 37 C46.598125 37.268125 47.19625 37.53625 47.8125 37.8125 C49.99847854 38.99917406 51.41332594 40.09599113 53 42 C53 42.66 53 43.32 53 44 C53.99 44.33 54.98 44.66 56 45 C57.4375 46.390625 57.4375 46.390625 59 48.25 C59.61359375 48.97703125 60.2271875 49.7040625 60.859375 50.453125 C61.91898438 51.71382812 61.91898438 51.71382812 63 53 C63.83015625 53.94359375 64.6603125 54.8871875 65.515625 55.859375 C72.73434608 64.10560216 79.00724637 72.83113424 85 82 C85.69867187 83.06863281 86.39734375 84.13726562 87.1171875 85.23828125 C109.73592893 120.98315977 122.80530774 161.00294168 127 203 C127.13148438 204.14726563 127.26296875 205.29453125 127.3984375 206.4765625 C132.72778563 259.91408026 119.50461067 323.64973866 87.15551758 367.35766602 C85.62476874 369.53331516 84.38144634 371.8561605 83.08984375 374.17871094 C80.99321577 377.6824844 78.47549573 380.88357118 76 384.125 C75.47921875 384.81464844 74.9584375 385.50429688 74.421875 386.21484375 C72.95659964 388.15004328 71.47886312 390.07518028 70 392 C68.88625 393.48113281 68.88625 393.48113281 67.75 394.9921875 C67.1725 395.65476562 66.595 396.31734375 66 397 C65.34 397 64.68 397 64 397 C63.75507812 397.56203125 63.51015625 398.1240625 63.2578125 398.703125 C57.72023769 408.81521813 46.2148482 419.0780483 37 426 C36.34 426 35.68 426 35 426 C34.67 426.99 34.34 427.98 34 429 C32.54467773 430.34692383 32.54467773 430.34692383 30.68359375 431.70703125 C30.00103516 432.21169922 29.31847656 432.71636719 28.61523438 433.23632812 C27.89658203 433.75646484 27.17792969 434.27660156 26.4375 434.8125 C25.40012695 435.57530273 25.40012695 435.57530273 24.34179688 436.35351562 C22.93963226 437.38455745 21.53514931 438.41245354 20.12841797 439.43725586 C17.34094708 441.48389513 14.5906753 443.57822907 11.84399414 445.67919922 C9.2556703 447.53314229 6.52653067 449.03072029 3.72265625 450.53125 C1.60797219 451.67202648 -0.48163682 452.83776732 -2.56640625 454.03125 C-31.42365228 470.53909119 -61.05320455 481.65231885 -94 487 C-94.67772461 487.11182617 -95.35544922 487.22365234 -96.05371094 487.33886719 C-139.93264515 494.46104955 -185.43268267 489.3085497 -227 474 C-227.86431641 473.68691895 -228.72863281 473.37383789 -229.61914062 473.05126953 C-257.51043578 462.84858623 -281.85981407 447.39782969 -305 429 C-305.8981543 428.29786377 -305.8981543 428.29786377 -306.81445312 427.58154297 C-308.24852625 426.43470379 -309.63027364 425.22296997 -311 424 C-311 423.34 -311 422.68 -311 422 C-311.57524414 421.74927734 -312.15048828 421.49855469 -312.74316406 421.24023438 C-315.30441196 419.83271173 -317.04057392 418.21829975 -319.109375 416.15625 C-320.24052734 415.02896484 -320.24052734 415.02896484 -321.39453125 413.87890625 C-322.17183594 413.09386719 -322.94914062 412.30882812 -323.75 411.5 C-324.93916016 410.32244141 -324.93916016 410.32244141 -326.15234375 409.12109375 C-326.90128906 408.36957031 -327.65023437 407.61804688 -328.421875 406.84375 C-329.10862305 406.15474609 -329.79537109 405.46574219 -330.50292969 404.75585938 C-332 403 -332 403 -332 401 C-332.99 400.67 -333.98 400.34 -335 400 C-336.78271996 397.97404703 -338.43169567 395.95524797 -340.0625 393.8125 C-340.54638184 393.184646 -341.03026367 392.55679199 -341.52880859 391.90991211 C-343.0308973 389.94848477 -344.51832462 387.97688377 -346 386 C-346.44359863 385.40896484 -346.88719727 384.81792969 -347.34423828 384.20898438 C-375.87507326 345.9076126 -392.61006531 301.3391063 -398 254 C-398.09571289 253.26386475 -398.19142578 252.52772949 -398.29003906 251.76928711 C-399.31257286 243.19411342 -399.2437807 234.56103082 -399.25 225.9375 C-399.25101212 224.67486328 -399.25101212 224.67486328 -399.25204468 223.38671875 C-399.2240859 201.34579192 -396.62160784 180.33174433 -391 159 C-390.66959717 157.74243896 -390.66959717 157.74243896 -390.33251953 156.45947266 C-382.02155189 125.52722199 -367.61436422 95.37874345 -348 70 C-346.84951172 68.453125 -346.84951172 68.453125 -345.67578125 66.875 C-340.62059455 60.11436456 -335.23986503 53.80700202 -329.46484375 47.65234375 C-327.50451132 45.54288936 -325.63945317 43.41054058 -323.8125 41.1875 C-320.01262032 36.69171212 -315.65399648 31.88466549 -310 30 C-310 29.34 -310 28.68 -310 28 C-307.95348588 26.22897817 -305.90052794 24.57408632 -303.75 22.9375 C-303.11030273 22.44507813 -302.47060547 21.95265625 -301.81152344 21.4453125 C-300.49756082 20.43587621 -299.1814675 19.4292075 -297.86328125 18.42529297 C-296.24145043 17.18469439 -294.63494023 15.92411737 -293.03125 14.66015625 C-219.51827225 -42.43629978 -116.1971563 -52.21682342 0 0 Z M-176 62 C-176.72477539 62.19255371 -177.44955078 62.38510742 -178.19628906 62.58349609 C-182.21944827 63.69055852 -186.17080804 64.94557101 -190.10546875 66.33349609 C-192.03219653 67.01132687 -193.96827366 67.65591288 -195.90625 68.30078125 C-210.37764374 73.26326931 -223.27867194 80.80626949 -235.6875 89.6875 C-236.41759277 90.20965088 -237.14768555 90.73180176 -237.89990234 91.26977539 C-242.0972737 94.35933185 -245.83142271 97.65208492 -249.43139648 101.42211914 C-250.99755392 102.99753946 -252.63318015 104.373744 -254.375 105.75 C-258.37674862 109.11612412 -261.51715433 113.08949679 -264.7578125 117.17578125 C-266.1161962 118.88677675 -267.50032364 120.57830931 -268.9296875 122.23046875 C-279.79762226 134.96985285 -288.09739481 150.37344985 -294 166 C-294.39759521 167.04655762 -294.39759521 167.04655762 -294.80322266 168.11425781 C-308.70317658 205.43215702 -308.29988284 246.55751459 -295 284 C-294.57074219 285.216875 -294.14148438 286.43375 -293.69921875 287.6875 C-286.01470425 308.1218146 -273.27101855 330.20207778 -257 345 C-256.34 345 -255.68 345 -255 345 C-254.505 346.485 -254.505 346.485 -254 348 C-251.52967165 350.54772767 -248.73121262 352.73764555 -246 355 C-245.2884375 355.60972656 -244.576875 356.21945312 -243.84375 356.84765625 C-213.4129211 382.22404953 -175.61837292 395.16773676 -136.25 395.1875 C-134.9815625 395.19974609 -133.713125 395.21199219 -132.40625 395.22460938 C-123.76728094 395.23783229 -115.50874923 394.47876837 -107 393 C-106.18789063 392.85925049 -105.37578125 392.71850098 -104.5390625 392.57348633 C-73.98895661 386.89760557 -41.93189621 372.48801402 -20 350 C-18.83210937 348.86691406 -18.83210937 348.86691406 -17.640625 347.7109375 C-7.77671787 338.07267531 0.39911036 327.46648495 8 316 C8.52207031 315.2265625 9.04414062 314.453125 9.58203125 313.65625 C30.88300765 280.32579657 38.83070461 235.69391359 31 197 C30.73340576 195.64310059 30.73340576 195.64310059 30.46142578 194.25878906 C21.78348709 151.3868724 -2.50117192 111.70793773 -39.24755859 87.15380859 C-40.11501709 86.58267334 -40.11501709 86.58267334 -41 86 C-42.09957031 85.27425781 -43.19914062 84.54851562 -44.33203125 83.80078125 C-61.2940135 73.03289651 -79.40969776 65.41665131 -99 61 C-99.95277832 60.77352783 -99.95277832 60.77352783 -100.92480469 60.54248047 C-124.57062961 55.11950182 -152.63754048 55.78443828 -176 62 Z " fill="#FF78A8" transform="translate(736,374)"/>
<path d="M0 0 C0.85207031 -0.0515625 1.70414063 -0.103125 2.58203125 -0.15625 C7.89886379 1.18292221 10.35344792 6.66461906 13.01171875 11.1015625 C13.97206938 12.77265143 14.92640377 14.44721076 15.875 16.125 C16.36033203 16.970625 16.84566406 17.81625 17.34570312 18.6875 C23.18848357 28.90632152 25.51957127 36.66857916 22.66015625 48.50390625 C22.11069369 50.48248203 22.11069369 50.48248203 22.1875 52.5 C22.62578125 52.10167969 23.0640625 51.70335937 23.515625 51.29296875 C30.97275196 45.06353952 38.58778016 42.96400096 48.28491211 43.8137207 C51.94655553 44.23690485 55.56400927 44.82727097 59.1875 45.5 C60.31333496 45.70786133 60.31333496 45.70786133 61.46191406 45.91992188 C63.6714943 46.34868906 65.86656435 46.81889273 68.0625 47.3125 C68.73442383 47.45308838 69.40634766 47.59367676 70.09863281 47.73852539 C73.2295174 48.51317309 74.95475737 49.22814502 77.0703125 51.69921875 C78.4296001 55.10694326 79.10141954 57.81903563 79.1875 61.5 C77.73828125 64.1328125 77.73828125 64.1328125 75.5 66.625 C74.66984375 67.55828125 73.8396875 68.4915625 72.984375 69.453125 C72.53126953 69.94361328 72.07816406 70.43410156 71.61132812 70.93945312 C70.123943 72.56965986 68.69407774 74.23989555 67.265625 75.921875 C60.27599671 84.01776719 53.950653 90.02006782 42.875 91.3125 C39.64440445 91.51007361 36.42357565 91.5171827 33.1875 91.5 C34.05761719 92.02787109 34.05761719 92.02787109 34.9453125 92.56640625 C43.56475027 98.01400471 48.83202153 103.79471649 52.1875 113.5 C53.05238092 117.53964763 53.55072629 121.58311811 54 125.6875 C54.13341797 126.74130859 54.26683594 127.79511719 54.40429688 128.88085938 C55.58247366 138.87961104 55.58247366 138.87961104 54.1875 143.5 C51.5625 146.4375 51.5625 146.4375 48.1875 148.5 C41.98213144 148.22262082 36.49754419 145.97222035 30.75 143.75 C29.84701172 143.41484375 28.94402344 143.0796875 28.01367188 142.734375 C17.40175982 138.67710522 8.80498535 133.72801938 3.9375 123.0625 C1.36882106 116.15917534 0.87430313 108.78372791 0.1875 101.5 C0.10113281 102.68335938 0.01476562 103.86671875 -0.07421875 105.0859375 C-0.96247231 115.62127109 -2.21935392 123.91374125 -9.125 132.3125 C-15.94144931 137.86077269 -23.33404384 141.17255141 -31.5 144.3125 C-32.51900391 144.71919922 -33.53800781 145.12589844 -34.58789062 145.54492188 C-35.57337891 145.92841797 -36.55886719 146.31191406 -37.57421875 146.70703125 C-38.46069092 147.0522583 -39.34716309 147.39748535 -40.26049805 147.75317383 C-44.71304649 149.05618212 -47.02744242 148.92955981 -51.125 146.6875 C-53.70668364 144.25885431 -54.26315375 142.51756469 -54.375 139 C-54.24764068 136.82896792 -54.04705421 134.66207887 -53.8125 132.5 C-53.72790527 131.69771973 -53.64331055 130.89543945 -53.55615234 130.06884766 C-53.25270033 127.31261768 -52.91468133 124.56291408 -52.5625 121.8125 C-52.45365479 120.92175781 -52.34480957 120.03101563 -52.23266602 119.11328125 C-50.85859351 109.45073868 -46.95035786 102.19359285 -39.8125 95.5 C-37.52784824 93.91763419 -35.31836528 92.72736259 -32.8125 91.5 C-34.09125 91.561875 -35.37 91.62375 -36.6875 91.6875 C-45.84018525 91.6444623 -53.94222758 88.53751213 -60.8125 82.5 C-72.8125 70.0943662 -72.8125 70.0943662 -72.8125 66.5 C-73.4725 66.5 -74.1325 66.5 -74.8125 66.5 C-78.83883403 61.55336105 -78.83883403 61.55336105 -78.75 58 C-78.440625 57.175 -78.13125 56.35 -77.8125 55.5 C-77.44640625 54.50484375 -77.0803125 53.5096875 -76.703125 52.484375 C-74.63260412 49.21603212 -73.37969754 48.54103557 -69.67260742 47.65087891 C-68.99689697 47.51858887 -68.32118652 47.38629883 -67.625 47.25 C-66.56792847 47.01869385 -66.56792847 47.01869385 -65.48950195 46.78271484 C-63.26941494 46.31618374 -61.04552908 45.89969755 -58.8125 45.5 C-58.10706055 45.37077148 -57.40162109 45.24154297 -56.67480469 45.10839844 C-46.01872736 43.24022219 -36.24681488 42.32150807 -26.8125 48.5 C-25.46974831 49.48731742 -24.13517727 50.48594743 -22.8125 51.5 C-21.8225 52.16 -20.8325 52.82 -19.8125 53.5 C-20.29460938 52.50097656 -20.77671875 51.50195312 -21.2734375 50.47265625 C-24.43426928 43.04078319 -24.14587439 34.39212399 -21.55859375 26.83984375 C-19.82225302 23.26644648 -17.91275611 19.86672354 -15.8125 16.5 C-15.42223633 15.8615918 -15.03197266 15.22318359 -14.62988281 14.56542969 C-5.81212721 0.20913201 -5.81212721 0.20913201 0 0 Z " fill="#FF78A7" transform="translate(872.8125,251.5)"/>
<path d="M0 0 C11.65015591 -0.05737348 23.27535669 0.07119768 34.92001641 0.41993546 C59.71201824 1.14357251 84.50038923 1.14794733 109.30093884 1.1343255 C115.54884709 1.13172883 121.79675415 1.13415982 128.04466248 1.13571167 C139.21393286 1.13763023 150.38319551 1.1345846 161.55246466 1.12945233 C171.51780821 1.1250132 181.48314235 1.12583394 191.44848633 1.13037109 C274.72979576 1.20145408 274.72979576 1.20145408 358 0 C358 0.99 358 1.98 358 3 C325.51427151 4.06912462 293.03464217 4.17945892 260.53438139 4.20018864 C256.15711193 4.20300182 251.77984451 4.20724617 247.40257645 4.21169281 C235.17002441 4.22383367 222.93747392 4.23414908 210.704916 4.2375679 C209.54359565 4.23789725 209.54359565 4.23789725 208.35881428 4.23823325 C207.1955482 4.23856067 207.1955482 4.23856067 206.00878179 4.2388947 C204.43863447 4.23933809 202.86848716 4.23978465 201.29833984 4.24023438 C200.51957897 4.2404558 199.74081809 4.24067723 198.9384584 4.24090537 C186.33645794 4.24484888 173.73451541 4.26231293 161.13253729 4.2855939 C148.04776305 4.30956307 134.96301762 4.32178084 121.87822115 4.32293582 C114.5902024 4.32383739 107.3022604 4.32927458 100.01426315 4.34775543 C66.56134959 4.42936065 33.35069182 3.79018086 0 1 C0 0.67 0 0.34 0 0 Z " fill="#FF6DA0" transform="translate(402,1108)"/>
<path d="M0 0 C5.26442666 0.00461039 10.52884039 0.00511986 15.79326849 0.00296737 C16.93046177 0.00250767 16.93046177 0.00250767 18.09062864 0.00203869 C19.63220635 0.00139904 21.17378405 0.00075061 22.71536175 0.0000935 C37.06425982 -0.00556685 51.41313205 0.00088025 65.76202587 0.01169424 C77.99553774 0.02062945 90.22901161 0.01906951 102.4625228 0.00985672 C116.77403217 -0.0009164 131.08551909 -0.00502172 145.39703196 0.00108124 C146.93135282 0.00171814 148.46567369 0.00234689 149.99999457 0.00296737 C151.13148355 0.0034302 151.13148355 0.0034302 152.28583089 0.00390238 C157.52701658 0.00560809 162.76818767 0.00276103 168.00937109 -0.00199173 C174.42073562 -0.00767959 180.83205139 -0.00592212 187.24341054 0.00456975 C190.49603934 0.00972221 193.74857362 0.01093732 197.00120383 0.00527145 C215.66919635 -0.0242033 234.1558824 0.87509788 252.76281577 2.2705989 C252.76281577 2.6005989 252.76281577 2.9305989 252.76281577 3.2705989 C139.90281577 3.2705989 27.04281577 3.2705989 -89.23718423 3.2705989 C-89.23718423 2.9405989 -89.23718423 2.6105989 -89.23718423 2.2705989 C-59.54832797 -0.35229292 -29.77569463 -0.02682102 0 0 Z " fill="#FF649B" transform="translate(530.2371842339635,88.72940109670162)"/>
<path d="M0 0 C0.98597168 0.00410889 1.97194336 0.00821777 2.98779297 0.01245117 C4.07318359 0.01438477 5.15857422 0.01631836 6.27685547 0.01831055 C7.98615234 0.03667969 7.98615234 0.03667969 9.72998047 0.05541992 C11.40447266 0.05638672 11.40447266 0.05638672 13.11279297 0.05737305 C17.53924241 0.08086246 21.8152641 0.13347079 26.20682526 0.74211025 C30.86142461 1.33518764 35.45951861 1.39578266 40.14685059 1.40113831 C41.07656882 1.40607628 42.00628705 1.41101426 42.96417856 1.41610187 C46.06254312 1.43139337 49.1608871 1.43981474 52.25927734 1.44824219 C54.48703185 1.45782728 56.71478456 1.46783773 58.9425354 1.47824097 C64.97904772 1.50522768 71.0155678 1.52627094 77.05210686 1.54624295 C83.36487104 1.56814102 89.67761146 1.595511 95.99035645 1.62229919 C106.58226483 1.66650969 117.17418205 1.70735357 127.76611328 1.74560547 C138.67302401 1.78500414 149.57992389 1.82644075 160.48681641 1.87060547 C161.15977562 1.87332974 161.83273483 1.87605401 162.52608675 1.87886084 C165.90232191 1.89254104 169.27855691 1.90626117 172.65479183 1.92000115 C200.63816537 2.03383113 228.62156266 2.1405981 256.60498047 2.24291992 C256.60498047 2.57291992 256.60498047 2.90291992 256.60498047 3.24291992 C226.82110596 3.26581186 197.03723175 3.2834703 167.25335032 3.29398525 C163.72423874 3.29523572 160.19512718 3.29653006 156.66601562 3.29785156 C155.96353537 3.29811387 155.26105512 3.29837618 154.53728759 3.29864644 C143.21444429 3.30297871 131.89160614 3.3108526 120.56876588 3.32007272 C108.92048248 3.32947759 97.27220176 3.33498988 85.62391472 3.33700842 C79.09391653 3.33830423 72.56392998 3.34131775 66.03393555 3.34864998 C59.8681884 3.3555161 53.70245753 3.3575157 47.53670692 3.3560276 C45.29243188 3.35629923 43.0481562 3.35824077 40.80388451 3.3621254 C25.71252539 3.38693139 10.67816746 2.99045971 -4.39501953 2.24291992 C-2.39501953 0.24291992 -2.39501953 0.24291992 0 0 Z " fill="#FF5E96" transform="translate(423.39501953125,1016.757080078125)"/>
<path d="M0 0 C1.97265786 2.95898679 2.30640401 3.9238268 2.6328125 7.2890625 C2.71692383 8.13960205 2.80103516 8.9901416 2.88769531 9.86645508 C2.96600586 10.7767749 3.04431641 11.68709473 3.125 12.625 C3.2502002 14.03591919 3.2502002 14.03591919 3.37792969 15.4753418 C4.54730045 29.59012421 4.11016077 43.00134418 2 57 C1.67 57 1.34 57 1 57 C0.67 38.19 0.34 19.38 0 0 Z " fill="#FF699E" transform="translate(768,570)"/>
<path d="M0 0 C0 0.66 0 1.32 0 2 C-0.68513672 2.01981934 -1.37027344 2.03963867 -2.07617188 2.06005859 C-5.21779611 2.15604678 -8.3588215 2.26542401 -11.5 2.375 C-12.57765625 2.4059375 -13.6553125 2.436875 -14.765625 2.46875 C-21.54819481 2.70722451 -21.54819481 2.70722451 -28.17578125 4.03515625 C-32.80112575 5.20212263 -36.94834896 5.17956124 -41.6875 5.0625 C-49.53123414 4.95787813 -57.18915134 5.20181109 -65 6 C-65 5.34 -65 4.68 -65 4 C-16.47815179 -0.13224841 -16.47815179 -0.13224841 0 0 Z " fill="#FF88B8" transform="translate(419,90)"/>
<path d="M0 0 C0.33 0 0.66 0 1 0 C1.3018952 18.92882883 1.52688364 38.31704881 -2 57 C-2.33 57 -2.66 57 -3 57 C-2.8820767 51.03672101 -2.757853 45.07362002 -2.62768555 39.1105957 C-2.58426759 37.08035896 -2.54259774 35.05008408 -2.50268555 33.01977539 C-2.44514854 30.10811849 -2.38140722 27.19665486 -2.31640625 24.28515625 C-2.29969376 23.3716188 -2.28298126 22.45808136 -2.26576233 21.51686096 C-2.11387171 15.11387171 -2.11387171 15.11387171 -1 14 C-0.76472227 11.65012738 -0.58613583 9.29443961 -0.4375 6.9375 C-0.35371094 5.64714844 -0.26992188 4.35679687 -0.18359375 3.02734375 C-0.12300781 2.02832031 -0.06242188 1.02929688 0 0 Z " fill="#FF6A9F" transform="translate(1017,784)"/>
<path d="M0 0 C0.33 0 0.66 0 1 0 C1.10178485 10.52907714 1.0583969 21.0404331 0.625 31.5625 C0.59414307 32.4599292 0.56328613 33.3573584 0.53149414 34.28198242 C0.4927417 35.11834229 0.45398926 35.95470215 0.4140625 36.81640625 C0.3826416 37.55318604 0.3512207 38.28996582 0.31884766 39.04907227 C0 41 0 41 -2 44 C-2.02497996 39.62581751 -2.04299062 35.25167437 -2.05493164 30.87744141 C-2.05991708 29.39371008 -2.06670785 27.90998354 -2.07543945 26.42626953 C-2.20166667 4.40333333 -2.20166667 4.40333333 0 0 Z " fill="#FF689E" transform="translate(431,572)"/>
<path d="M0 0 C6.29646894 1.66671237 9.52654158 6.69158182 12.875 11.9375 C13.24625 12.618125 13.6175 13.29875 14 14 C14.66 13.34 15.32 12.68 16 12 C18.31 15.3 20.62 18.6 23 22 C22.67 22.66 22.34 23.32 22 24 C19 24 19 24 17.63720703 22.71826172 C16.95440674 21.83291748 16.95440674 21.83291748 16.2578125 20.9296875 C15.74863281 20.28 15.23945312 19.6303125 14.71484375 18.9609375 C14.19019531 18.27257812 13.66554688 17.58421875 13.125 16.875 C12.08647547 15.53864425 11.04741879 14.20270188 10.0078125 12.8671875 C9.50411133 12.21717773 9.00041016 11.56716797 8.48144531 10.89746094 C4.82651712 5.76805057 4.82651712 5.76805057 0 2 C0 1.34 0 0.68 0 0 Z " fill="#FF679D" transform="translate(847,303)"/>
<path d="M0 0 C0 0.33 0 0.66 0 1 C-0.87213135 1.08564209 -1.7442627 1.17128418 -2.64282227 1.25952148 C-5.90629139 1.58072822 -9.16961836 1.90331338 -12.43286133 2.22680664 C-13.84003406 2.36602366 -15.24725987 2.5047054 -16.65454102 2.64282227 C-18.68780788 2.84247307 -20.72087039 3.04410575 -22.75390625 3.24609375 C-24.58417358 3.42676392 -24.58417358 3.42676392 -26.45141602 3.61108398 C-28.90154535 3.87961209 -31.34708145 4.19244021 -33.78710938 4.54101562 C-36.56734168 4.93819167 -39.13682979 5.10558723 -41.9375 5.0625 C-42.70964844 5.05347656 -43.48179687 5.04445313 -44.27734375 5.03515625 C-44.84582031 5.02355469 -45.41429687 5.01195313 -46 5 C-45.67 4.34 -45.34 3.68 -45 3 C-31.35906905 -1.5272504 -14.20673068 -0.2116897 0 0 Z " fill="#FF6CA0" transform="translate(381,94)"/>
<path d="M0 0 C4.51398086 0.42990294 8.80387693 0.90067509 13.1875 2.0625 C22.71205082 4.26432261 32.00279979 3.7229794 41 0 C40 3 40 3 37.5625 4.625 C29.11936464 7.883754 21.63974982 6.94338395 13.0625 4.6875 C12.13115234 4.46126953 11.19980469 4.23503906 10.24023438 4.00195312 C6.30596721 3.01625586 3.40942313 2.27294875 0 0 Z " fill="#FF689E" transform="translate(887,336)"/>
<path d="M0 0 C1.08410156 -0.00386719 2.16820312 -0.00773437 3.28515625 -0.01171875 C8.71370863 -0.00509048 13.9038573 0.16269431 19.25 1.125 C19.25 1.455 19.25 1.785 19.25 2.125 C17.27580078 2.10759766 17.27580078 2.10759766 15.26171875 2.08984375 C3.10605204 2.01206789 3.10605204 2.01206789 -9.0078125 2.90234375 C-14.90031438 3.38079476 -20.84277338 3.19674769 -26.75 3.125 C-19.59407351 -1.64561766 -8.33970901 -0.03017989 0 0 Z " fill="#FF649A" transform="translate(599.75,428.875)"/>
<path d="M0 0 C1.07185547 -0.00257813 2.14371094 -0.00515625 3.24804688 -0.0078125 C4.37404297 -0.00007812 5.50003906 0.00765625 6.66015625 0.015625 C7.75134766 0.00789062 8.84253906 0.00015625 9.96679688 -0.0078125 C17.09230734 0.00914291 23.76431495 0.73348114 30.72265625 2.265625 C30.72265625 2.595625 30.72265625 2.925625 30.72265625 3.265625 C18.03683595 3.46663272 5.3916029 2.85269968 -7.27734375 2.265625 C-4.68400588 -0.32771287 -3.60644209 0.00841433 0 0 Z " fill="#FF6A9F" transform="translate(426.27734375,1016.734375)"/>
<path d="M0 0 C5.55011716 -0.04969113 11.10010282 -0.08585685 16.65039062 -0.10986328 C18.53583026 -0.11987847 20.42125453 -0.13349452 22.30664062 -0.15087891 C25.02738249 -0.17532532 27.74791777 -0.18652816 30.46875 -0.1953125 C31.30241089 -0.20563507 32.13607178 -0.21595764 32.99499512 -0.22659302 C38.32762391 -0.22759968 42.87442038 0.51275853 48 2 C48 2.33 48 2.66 48 3 C31.99449329 2.43351399 15.99534455 1.80576762 0 1 C0 0.67 0 0.34 0 0 Z " fill="#FF689D" transform="translate(786,92)"/>
<path d="M0 0 C0.33 0 0.66 0 1 0 C0.49042621 9.26998841 -0.7849978 18.2059131 -2.5625 27.3125 C-2.79646484 28.54162109 -3.03042969 29.77074219 -3.27148438 31.03710938 C-3.84135257 34.02600991 -4.41759348 37.01352206 -5 40 C-5.33 40 -5.66 40 -6 40 C-5.93941406 39.42894531 -5.87882812 38.85789062 -5.81640625 38.26953125 C-5.30805505 33.3502558 -4.86857056 28.43182506 -4.5 23.5 C-4.41492187 22.40429688 -4.32984375 21.30859375 -4.2421875 20.1796875 C-4.09031288 18.18572078 -3.94816757 16.19096334 -3.8203125 14.1953125 C-3.41369864 8.84427412 -2.40504702 4.81009404 0 0 Z " fill="#FF81B4" transform="translate(1106,846)"/>
<path d="M0 0 C0.33 0.66 0.66 1.32 1 2 C0.67 2.66 0.34 3.32 0 4 C0.99 3.67 1.98 3.34 3 3 C1.52186113 6.22973344 -0.31746497 8.88997098 -2.5 11.6875 C-3.1084375 12.47511719 -3.716875 13.26273437 -4.34375 14.07421875 C-6 16 -6 16 -8 17 C-8.66 16.34 -9.32 15.68 -10 15 C-5.05 7.575 -5.05 7.575 0 0 Z " fill="#FF679C" transform="translate(886,311)"/>
<path d="M0 0 C3 1 3 1 4.1484375 3.05859375 C5.20847771 6.7201088 5.46306672 10.27799658 5.625 14.0625 C5.66294678 14.80749756 5.70089355 15.55249512 5.73999023 16.32006836 C6.03485599 22.54701793 6.10809082 28.76676282 6 35 C5.67 35 5.34 35 5 35 C4.82609741 33.67609253 4.82609741 33.67609253 4.64868164 32.32543945 C4.21576993 29.03587296 3.78135965 25.74651146 3.34594727 22.45727539 C3.15817588 21.03645571 2.97099373 19.61555803 2.78442383 18.19458008 C2.51540323 16.14643658 2.24423102 14.09858745 1.97265625 12.05078125 C1.81031494 10.82012939 1.64797363 9.58947754 1.48071289 8.3215332 C1.07521396 5.51969828 0.59030393 2.76776747 0 0 Z " fill="#FF669C" transform="translate(920,359)"/>
<path d="M0 0 C0.33 0.99 0.66 1.98 1 3 C1.66 3 2.32 3 3 3 C4.01334547 5.85003412 5.01080629 8.70408664 6 11.5625 C6.28617188 12.36236328 6.57234375 13.16222656 6.8671875 13.98632812 C8.54441891 18.87825307 9.33313039 22.82953879 9 28 C6.20969817 23.81454726 4.94800387 19.31668041 3.375 14.5625 C3.05015625 13.60794922 2.7253125 12.65339844 2.390625 11.66992188 C2.08382812 10.74888672 1.77703125 9.82785156 1.4609375 8.87890625 C1.18040527 8.0391626 0.89987305 7.19941895 0.61083984 6.33422852 C0 4 0 4 0 0 Z " fill="#FF6EA1" transform="translate(193,874)"/>
<path d="M0 0 C0.66 0 1.32 0 2 0 C2.20496094 1.12019531 2.40992188 2.24039062 2.62109375 3.39453125 C2.89311689 4.86720824 3.16525849 6.33986336 3.4375 7.8125 C3.63956055 8.91948242 3.63956055 8.91948242 3.84570312 10.04882812 C4.41419737 13.11315076 5.01309651 16.03928953 6 19 C6.08209792 20.77313851 6.10746294 22.54920775 6.09765625 24.32421875 C6.09282227 25.86625977 6.09282227 25.86625977 6.08789062 27.43945312 C6.07951172 28.51130859 6.07113281 29.58316406 6.0625 30.6875 C6.05798828 31.77095703 6.05347656 32.85441406 6.04882812 33.97070312 C6.03703743 36.64719085 6.02058063 39.32356777 6 42 C5.67 42 5.34 42 5 42 C4.82609741 40.51790039 4.82609741 40.51790039 4.64868164 39.00585938 C4.21473876 35.30823274 3.78040004 31.61065269 3.34594727 27.91308594 C3.1586663 26.3186974 2.97148988 24.72429658 2.78442383 23.12988281 C2.51411593 20.82613874 2.24342071 18.52244045 1.97265625 16.21875 C1.89032242 15.51633179 1.80798859 14.81391357 1.72315979 14.09020996 C1.17030185 9.39065652 0.59145973 4.69485548 0 0 Z " fill="#FF8BB9" transform="translate(1008,339)"/>
<path d="M0 0 C6.47567652 0.62077626 12.71162243 1.66816458 19.0625 3.0625 C19.92810547 3.24876953 20.79371094 3.43503906 21.68554688 3.62695312 C23.79122451 4.08066267 25.89574007 4.53976004 28 5 C28 5.33 28 5.66 28 6 C18.91990679 6.4490156 10.80578857 5.18842083 2 3 C2 2.34 2 1.68 2 1 C1.34 0.67 0.68 0.34 0 0 Z " fill="#FF69A4" transform="translate(308,1097)"/>
<path d="M0 0 C5.22283205 -0.42810099 5.22283205 -0.42810099 8 0 C11.21502932 3.42245056 12 7.37374482 12 12 C10.57391801 14.3996066 8.99920588 16.00079412 7 18 C6.34 17.67 5.68 17.34 5 17 C6.875 13.125 6.875 13.125 8 12 C7.91062197 10.47480724 7.75462854 8.95318071 7.5625 7.4375 C7.40974609 6.19806641 7.40974609 6.19806641 7.25390625 4.93359375 C7.17011719 4.29550781 7.08632813 3.65742188 7 3 C4.69 2.34 2.38 1.68 0 1 C0 0.67 0 0.34 0 0 Z " fill="#FF6EA8" transform="translate(940,301)"/>
<path d="M0 0 C0.33 0 0.66 0 1 0 C1 10.56 1 21.12 1 32 C0.34 32 -0.32 32 -1 32 C-1.33 35.63 -1.66 39.26 -2 43 C-2.33 43 -2.66 43 -3 43 C-2.85652682 40.85400757 -2.71008875 38.70821331 -2.5625 36.5625 C-2.48128906 35.36753906 -2.40007813 34.17257812 -2.31640625 32.94140625 C-2.09418098 30.17319271 -1.82699201 27.44235426 -1.5 24.6875 C-0.91931225 19.61312402 -0.66577661 14.53817243 -0.4375 9.4375 C-0.39431641 8.52419922 -0.35113281 7.61089844 -0.30664062 6.66992188 C-0.20188243 4.44672009 -0.09970983 2.22343293 0 0 Z " fill="#FF669B" transform="translate(861,602)"/>
<path d="M0 0 C0.33 0.99 0.66 1.98 1 3 C-5.62348812 9.16669584 -14.0504187 12.49341993 -23 13 C-21.22741213 9.45482427 -16.40947495 8.7139332 -12.81054688 7.38671875 C-8.13680177 5.60580502 -3.5989093 3.5989093 0 0 Z " fill="#FF6B9F" transform="translate(861,382)"/>
<path d="M0 0 C0.33 0 0.66 0 1 0 C1.02899599 3.77081722 1.04679729 7.54160583 1.0625 11.3125 C1.07087891 12.38435547 1.07925781 13.45621094 1.08789062 14.56054688 C1.09111328 15.58857422 1.09433594 16.61660156 1.09765625 17.67578125 C1.10289307 18.62364502 1.10812988 19.57150879 1.11352539 20.5480957 C1 23 1 23 0 26 C-0.22179785 27.89212737 -0.40614015 29.78884472 -0.5625 31.6875 C-0.64628906 32.68136719 -0.73007813 33.67523438 -0.81640625 34.69921875 C-0.87699219 35.45847656 -0.93757813 36.21773438 -1 37 C-1.33 37 -1.66 37 -2 37 C-2.3172599 24.5387362 -1.35798878 12.38081265 0 0 Z " fill="#FF6CA0" transform="translate(92,395)"/>
<path d="M0 0 C0.96309082 -0.01289063 1.92618164 -0.02578125 2.91845703 -0.0390625 C11.46648482 -0.05101987 11.46648482 -0.05101987 15.625 2.1875 C15.625 2.5175 15.625 2.8475 15.625 3.1875 C3.085 2.8575 -9.455 2.5275 -22.375 2.1875 C-22.375 1.8575 -22.375 1.5275 -22.375 1.1875 C-14.9362765 0.1909246 -7.49340906 0.04916129 0 0 Z " fill="#FF7DB8" transform="translate(610.375,429.8125)"/>
<path d="M0 0 C-12.19839573 2.79963181 -23.45895862 4.63055515 -36 4 C-36 3.67 -36 3.34 -36 3 C-35.15695312 2.93941406 -34.31390625 2.87882813 -33.4453125 2.81640625 C-32.34960938 2.73261719 -31.25390625 2.64882813 -30.125 2.5625 C-28.48917969 2.44068359 -28.48917969 2.44068359 -26.8203125 2.31640625 C-24.05271029 2.16998297 -24.05271029 2.16998297 -22 1 C-19.05958835 0.49319606 -16.08994943 0.20443883 -13.125 -0.125 C-11.90103516 -0.27388672 -11.90103516 -0.27388672 -10.65234375 -0.42578125 C-9.86214844 -0.51472656 -9.07195313 -0.60367188 -8.2578125 -0.6953125 C-7.5373877 -0.77797363 -6.81696289 -0.86063477 -6.07470703 -0.94580078 C-3.86623 -1.00349458 -2.10820666 -0.6310965 0 0 Z " fill="#FF699E" transform="translate(641,767)"/>
<path d="M0 0 C1.24898071 0.07069702 1.24898071 0.07069702 2.52319336 0.14282227 C3.871875 0.21533203 3.871875 0.21533203 5.24780273 0.28930664 C6.19333008 0.34538086 7.13885742 0.40145508 8.11303711 0.45922852 C9.53712891 0.53753906 9.53712891 0.53753906 10.98999023 0.61743164 C13.34380663 0.74754209 15.6972441 0.88251963 18.05053711 1.02172852 C18.05053711 1.35172852 18.05053711 1.68172852 18.05053711 2.02172852 C14.44710401 2.36331199 10.84270259 2.69342668 7.23803711 3.02172852 C6.23321289 3.11711914 5.22838867 3.21250977 4.19311523 3.31079102 C-2.54149001 3.91712203 -9.18879543 4.14190332 -15.94946289 4.02172852 C-15.94946289 3.69172852 -15.94946289 3.36172852 -15.94946289 3.02172852 C-14.55920898 2.82256836 -14.55920898 2.82256836 -13.14086914 2.61938477 C-11.94333008 2.4427832 -10.74579102 2.26618164 -9.51196289 2.08422852 C-8.31700195 1.91020508 -7.12204102 1.73618164 -5.89086914 1.55688477 C-3.22765616 1.0723427 -2.46873324 0.02751625 0 0 Z " fill="#FF85B2" transform="translate(374.949462890625,184.978271484375)"/>
<path d="M0 0 C3 1 3 1 4.60546875 4.203125 C5.14452765 5.54744472 5.67140963 6.89669636 6.1875 8.25 C6.46013672 8.91902344 6.73277344 9.58804688 7.01367188 10.27734375 C8.45989903 13.96721654 9.34622131 17.02999568 9 21 C6.18816428 17.63086351 4.49924999 13.94821665 2.8125 9.9375 C2.40354492 9.00067383 2.40354492 9.00067383 1.98632812 8.04492188 C0.77075658 5.190309 0 3.13560401 0 0 Z " fill="#FF6EA1" transform="translate(439,657)"/>
<path d="M0 0 C4.20867142 0.30805 8.41686412 0.62222521 12.625 0.9375 C13.81480469 1.02451172 15.00460937 1.11152344 16.23046875 1.20117188 C17.96103516 1.33168945 17.96103516 1.33168945 19.7265625 1.46484375 C20.78439941 1.543396 21.84223633 1.62194824 22.93212891 1.70288086 C25.9883959 1.99887616 28.9782631 2.45941404 32 3 C32 3.33 32 3.66 32 4 C28.54183314 4.08847317 25.08396421 4.14087725 21.625 4.1875 C20.65949219 4.21263672 19.69398438 4.23777344 18.69921875 4.26367188 C11.96102416 4.33150605 6.3287719 3.31140022 0 1 C0 0.67 0 0.34 0 0 Z " fill="#FF7FB4" transform="translate(826,92)"/>
<path d="M0 0 C0.33 0 0.66 0 1 0 C1.28875 0.94875 1.5775 1.8975 1.875 2.875 C2.76825109 6.05211578 2.76825109 6.05211578 5 8 C7.90675183 8.02168637 7.90675183 8.02168637 11.125 7.625 C12.22070312 7.51414062 13.31640625 7.40328125 14.4453125 7.2890625 C15.70988281 7.14597656 15.70988281 7.14597656 17 7 C16.01 7.495 16.01 7.495 15 8 C15 8.66 15 9.32 15 10 C11.53814064 11.58256428 8.79538976 12.75907795 5 12 C1.53526271 8.76624519 0.12637093 7.36480607 -0.3125 2.625 C-0.209375 1.75875 -0.10625 0.8925 0 0 Z " fill="#FF679E" transform="translate(820,388)"/>
<path d="M0 0 C-2.14424102 2.26447883 -4.38220019 4.03212796 -6.9375 5.8125 C-10.60922006 8.51050425 -12.7493044 11.0612827 -15 15 C-15.66 14.67 -16.32 14.34 -17 14 C-16.34 12.68 -15.68 11.36 -15 10 C-14.34 10 -13.68 10 -13 10 C-12.90203125 9.40703125 -12.8040625 8.8140625 -12.703125 8.203125 C-11.01278597 2.90672938 -5.53720316 -1.00676421 0 0 Z " fill="#FF6A9E" transform="translate(906,299)"/>
<path d="M0 0 C0.99 0.99 1.98 1.98 3 3 C-4.26 3 -11.52 3 -19 3 C-18.34 2.67 -17.68 2.34 -17 2 C-17 1.34 -17 0.68 -17 0 C-11.41125112 -1.3594254 -5.60720004 -1.23235166 0 0 Z " fill="#FF6CA0" transform="translate(926,296)"/>
<path d="M0 0 C-1.32 0.33 -2.64 0.66 -4 1 C-4 1.66 -4 2.32 -4 3 C-4.79921875 3.10957031 -5.5984375 3.21914063 -6.421875 3.33203125 C-14.09327125 4.43952155 -21.51858189 5.9779951 -29 8 C-28 6 -28 6 -25.9621582 5.22216797 C-25.08390381 4.98127441 -24.20564941 4.74038086 -23.30078125 4.4921875 C-22.33849609 4.22792969 -21.37621094 3.96367187 -20.38476562 3.69140625 C-19.37091797 3.42199219 -18.35707031 3.15257812 -17.3125 2.875 C-16.31798828 2.59785156 -15.32347656 2.32070313 -14.29882812 2.03515625 C-9.44537169 0.72410947 -5.07661574 -0.39782679 0 0 Z " fill="#FF629A" transform="translate(572,432)"/>
<path d="M0 0 C0 0.66 0 1.32 0 2 C-4.39461883 4.13452915 -4.39461883 4.13452915 -7.25 3.5 C-10.78731455 2.8568519 -13.39004911 3.67488363 -16.81640625 4.625 C-19.22861991 5.0392621 -20.67289049 4.65365162 -23 4 C-19.73257727 3.13240448 -16.46063519 2.28326557 -13.1875 1.4375 C-12.25873047 1.19064453 -11.32996094 0.94378906 -10.37304688 0.68945312 C-9.0340332 0.34624023 -9.0340332 0.34624023 -7.66796875 -0.00390625 C-6.84578857 -0.21861572 -6.0236084 -0.4333252 -5.17651367 -0.65454102 C-3 -1 -3 -1 0 0 Z " fill="#FF5E97" transform="translate(866,335)"/>
<path d="M0 0 C-14.7106599 7 -14.7106599 7 -22 7 C-20.4375 5 -20.4375 5 -18 3 C-14.25 2.75 -14.25 2.75 -11 3 C-11 2.34 -11 1.68 -11 1 C-3.375 -1.125 -3.375 -1.125 0 0 Z " fill="#FF629B" transform="translate(858,340)"/>
<path d="M0 0 C7.67462965 0.93975057 15.33677447 1.9722497 23 3 C23 3.33 23 3.66 23 4 C9.3667426 5.51708428 9.3667426 5.51708428 3 3 C3 2.34 3 1.68 3 1 C2.01 0.67 1.02 0.34 0 0 Z " fill="#FF84B1" transform="translate(334,1008)"/>
<path d="M0 0 C0.99 0.33 1.98 0.66 3 1 C3 9.25 3 17.5 3 26 C2.67 26 2.34 26 2 26 C1.66103732 23.16724047 1.32870306 20.33395339 1 17.5 C0.90460938 16.70851563 0.80921875 15.91703125 0.7109375 15.1015625 C0.12892118 10.02970596 -0.09367085 5.10506141 0 0 Z " fill="#FF81B3" transform="translate(93,828)"/>
<path d="M0 0 C0.33 0 0.66 0 1 0 C1.33 3.63 1.66 7.26 2 11 C1.67 11 1.34 11 1 11 C0.87882812 11.91523438 0.75765625 12.83046875 0.6328125 13.7734375 C0.46523437 14.96195312 0.29765625 16.15046875 0.125 17.375 C-0.11863281 19.15003906 -0.11863281 19.15003906 -0.3671875 20.9609375 C-1 24 -1 24 -3 26 C-2.50610812 17.21392344 -1.63177319 8.64998215 0 0 Z " fill="#FF87B6" transform="translate(96,335)"/>
<path d="M0 0 C0.33 0 0.66 0 1 0 C1.05841253 3.54159657 1.09373452 7.08306793 1.125 10.625 C1.14175781 11.62402344 1.15851563 12.62304688 1.17578125 13.65234375 C1.21014246 18.84088709 1.10254937 23.14923649 -1 28 C-1.33 28 -1.66 28 -2 28 C-1.4426724 18.65586912 -0.83004886 9.32480419 0 0 Z " fill="#FF6199" transform="translate(1106,824)"/>
<path d="M0 0 C0 0.66 0 1.32 0 2 C-1.2375 1.690625 -2.475 1.38125 -3.75 1.0625 C-9.45164503 -0.21968812 -15.17873504 -0.62570547 -21 -1 C-21 -1.33 -21 -1.66 -21 -2 C-12.94778551 -3.31464726 -7.3234189 -3.58698069 0 0 Z " fill="#FF5D99" transform="translate(844,299)"/>
<path d="M0 0 C3.90106795 3.25088996 5.01084013 6.05420065 6 11 C6.1414987 13.69319201 6.09475491 16.2994852 6 19 C3.88565935 15.82848903 2.98044063 13.13567139 1.875 9.5 C1.52179688 8.3553125 1.16859375 7.210625 0.8046875 6.03125 C0 3 0 3 0 0 Z " fill="#FF6CA1" transform="translate(1088,279)"/>
<path d="M0 0 C3.93736123 -0.08696177 7.87447628 -0.14037835 11.8125 -0.1875 C13.49182617 -0.22520508 13.49182617 -0.22520508 15.20507812 -0.26367188 C16.27822266 -0.27333984 17.35136719 -0.28300781 18.45703125 -0.29296875 C19.9416687 -0.31653442 19.9416687 -0.31653442 21.45629883 -0.34057617 C24.3699213 0.04952877 25.22497802 0.72008288 27 3 C20.71628693 3.10064005 14.67190051 2.75941669 8.4375 2 C7.61958984 1.90460938 6.80167969 1.80921875 5.95898438 1.7109375 C3.97211325 1.47855491 1.98597206 1.23994484 0 1 C0 0.67 0 0.34 0 0 Z " fill="#FF84B2" transform="translate(342,1105)"/>
<path d="M0 0 C3.32445643 6.06224407 4.36108506 13.13938387 4 20 C3.67 19.01 3.34 18.02 3 17 C2.34 17 1.68 17 1 17 C-0.13480527 13.39006828 -0.10015767 10.0157673 -0.0625 6.25 C-0.05347656 5.07953125 -0.04445313 3.9090625 -0.03515625 2.703125 C-0.02355469 1.81109375 -0.01195312 0.9190625 0 0 Z " fill="#FF6BA3" transform="translate(341,637)"/>
<path d="M0 0 C-0.33 0.99 -0.66 1.98 -1 3 C-11.89 3.495 -11.89 3.495 -23 4 C-23 3.67 -23 3.34 -23 3 C-19.91747911 2.49490361 -16.83386475 1.99682001 -13.75 1.5 C-12.87730469 1.35691406 -12.00460937 1.21382812 -11.10546875 1.06640625 C-10.26113281 0.93105469 -9.41679688 0.79570313 -8.546875 0.65625 C-7.77182617 0.53056641 -6.99677734 0.40488281 -6.19824219 0.27539062 C-4 0 -4 0 0 0 Z " fill="#FF69A0" transform="translate(875,1100)"/>
<path d="M0 0 C0.33 0 0.66 0 1 0 C1 2.31 1 4.62 1 7 C1.66 7 2.32 7 3 7 C3.33 12.61 3.66 18.22 4 24 C3.34 23.67 2.68 23.34 2 23 C0.31427048 15.42462289 -0.26690797 7.74033115 0 0 Z " fill="#FF649B" transform="translate(186,831)"/>
<path d="M0 0 C0.69867188 -0.02578125 1.39734375 -0.0515625 2.1171875 -0.078125 C4.73495267 0.34968098 6.13230624 1.55218917 8.125 3.25 C0.40910183 3.4067564 -7.19016461 2.92453101 -14.875 2.25 C-14.875 1.92 -14.875 1.59 -14.875 1.25 C-9.92854304 0.67170858 -4.97925532 0.16569901 0 0 Z " fill="#FF86B9" transform="translate(384.875,1106.75)"/>
<path d="M0 0 C1.22010695 3.66032085 0.66318212 5.40960217 -0.25 9.125 C-0.50265625 10.20007813 -0.7553125 11.27515625 -1.015625 12.3828125 C-1.34046875 13.24648438 -1.6653125 14.11015625 -2 15 C-2.99 15.33 -3.98 15.66 -5 16 C-5.33 16.66 -5.66 17.32 -6 18 C-5.31583566 13.82423832 -3.98634991 10.11919593 -2.4375 6.1875 C-1.75494141 4.44533203 -1.75494141 4.44533203 -1.05859375 2.66796875 C-0.70925781 1.78753906 -0.35992188 0.90710938 0 0 Z " fill="#FF6D9F" transform="translate(1087,924)"/>
<path d="M0 0 C6.5705166 -0.24794402 12.56971459 0.67611771 19 2 C19 2.33 19 2.66 19 3 C16.39521117 3.0809313 13.79293347 3.14045434 11.1875 3.1875 C10.08051758 3.22520508 10.08051758 3.22520508 8.95117188 3.26367188 C3.45025238 3.33834499 3.45025238 3.33834499 0.98828125 1.48828125 C0.66214844 0.99714844 0.33601562 0.50601563 0 0 Z " fill="#FF6BA2" transform="translate(837,186)"/>
<path d="M0 0 C4.46146003 1.40217315 7.03144272 3.3895925 10 7 C10.94169502 9.33967526 11.46482794 11.51874771 12 14 C7.76014063 9.88862122 3.72154258 5.59026002 0 1 C0 0.67 0 0.34 0 0 Z " fill="#FF86B4" transform="translate(152,1001)"/>
<path d="M0 0 C1.33599018 3.71208011 0.6625666 6.36336868 -0.3125 10.125 C-0.57675781 11.17945313 -0.84101562 12.23390625 -1.11328125 13.3203125 C-2 16 -2 16 -4 18 C-3.71880143 15.37348569 -3.42556162 12.74930665 -3.125 10.125 C-3.04636719 9.37863281 -2.96773437 8.63226562 -2.88671875 7.86328125 C-2.2265625 2.2265625 -2.2265625 2.2265625 0 0 Z " fill="#FF6CA1" transform="translate(767,634)"/>
<path d="M0 0 C1 2 1 2 0.3125 4.3125 C-1.15245921 7.31217837 -2.70684817 9.57195689 -5 12 C-7.1328125 12.640625 -7.1328125 12.640625 -9 13 C-8.06398754 11.58235006 -7.1261208 10.16592432 -6.1875 8.75 C-5.66542969 7.96109375 -5.14335938 7.1721875 -4.60546875 6.359375 C-3.12865878 4.18907519 -1.59310127 2.08586232 0 0 Z " fill="#FF84B4" transform="translate(980,934)"/>
<path d="M0 0 C0.12109311 7.07721931 -0.14626761 13.97195301 -1 21 C-1.33 21 -1.66 21 -2 21 C-2.33 14.4 -2.66 7.8 -3 1 C-1 0 -1 0 0 0 Z " fill="#FF84B3" transform="translate(1109,819)"/>
<path d="M0 0 C0.66 0 1.32 0 2 0 C1.31195504 6.19240462 -0.28048715 12.01955594 -2 18 C-3.23853632 14.38905609 -2.79209453 11.59428048 -2.125 7.875 C-1.85042969 6.29332031 -1.85042969 6.29332031 -1.5703125 4.6796875 C-1 2 -1 2 0 0 Z " fill="#FF6DA0" transform="translate(106,292)"/>
<path d="M0 0 C0.66 1.32 1.32 2.64 2 4 C1.34 4 0.68 4 0 4 C-0.144375 5.11375 -0.28875 6.2275 -0.4375 7.375 C-1 11 -1 11 -2 13 C-2.66 13 -3.32 13 -4 13 C-4 13.66 -4 14.32 -4 15 C-4.66 14.67 -5.32 14.34 -6 14 C-4.02 9.38 -2.04 4.76 0 0 Z " fill="#FF7BB5" transform="translate(121,250)"/>
<path d="M0 0 C-5.94 2.64 -11.88 5.28 -18 8 C-17.67 6.68 -17.34 5.36 -17 4 C-14.8125 2.875 -14.8125 2.875 -12 2 C-10.948125 1.649375 -9.89625 1.29875 -8.8125 0.9375 C-7.884375 0.628125 -6.95625 0.31875 -6 0 C-4 -1 -4 -1 0 0 Z " fill="#FF87BB" transform="translate(294,207)"/>
<path d="M0 0 C0.33 0 0.66 0 1 0 C1.96205088 6.37358711 2.10655578 12.55929529 2 19 C1.67 19 1.34 19 1 19 C0.67 17.02 0.34 15.04 0 13 C-0.33 13 -0.66 13 -1 13 C-1.02696365 11.20841511 -1.04637917 9.41671527 -1.0625 7.625 C-1.07410156 6.62726563 -1.08570313 5.62953125 -1.09765625 4.6015625 C-1 2 -1 2 0 0 Z " fill="#FF90BD" transform="translate(873,340)"/>
<path d="M0 0 C0.33 0 0.66 0 1 0 C1.19644384 1.89492746 1.38177288 3.79100903 1.5625 5.6875 C1.66691406 6.74324219 1.77132812 7.79898438 1.87890625 8.88671875 C1.99277552 11.81426086 1.70848415 14.17131144 1 17 C0.01 17.33 -0.98 17.66 -2 18 C-1.34 12.06 -0.68 6.12 0 0 Z " fill="#FF84B3" transform="translate(768,617)"/>
<path d="M0 0 C1.79639296 1.09646058 3.58697154 2.20245148 5.375 3.3125 C6.37273438 3.92738281 7.37046875 4.54226562 8.3984375 5.17578125 C11 7 11 7 13 10 C8.96427318 8.77989654 5.39106509 7.54329882 2 5 C1.28012021 3.35561704 0.60636058 1.68954108 0 0 Z " fill="#FF83B2" transform="translate(983,139)"/>
<path d="M0 0 C5.65611463 -0.56561146 9.22642128 1.28608722 14 4 C14 4.66 14 5.32 14 6 C8.93001981 5.34580901 4.58009223 3.1453591 0 1 C0 0.67 0 0.34 0 0 Z " fill="#FF6AA1" transform="translate(938,118)"/>
<path d="M0 0 C0 0.66 0 1.32 0 2 C1.32 2.33 2.64 2.66 4 3 C-2.11090483 3.09945415 -7.97403427 3.0712828 -14 2 C-14 1.67 -14 1.34 -14 1 C-4.58997722 -0.14806378 -4.58997722 -0.14806378 0 0 Z " fill="#FF7FB2" transform="translate(580,860)"/>
<path d="M0 0 C3.03852705 1.40976705 5.5939595 3.08870228 8.25 5.125 C8.95640625 5.66382813 9.6628125 6.20265625 10.390625 6.7578125 C10.92171875 7.16773438 11.4528125 7.57765625 12 8 C10.23046875 8.671875 10.23046875 8.671875 8 9 C6.11328125 7.890625 6.11328125 7.890625 4.3125 6.25 C3.71050781 5.71890625 3.10851562 5.1878125 2.48828125 4.640625 C1 3 1 3 0 0 Z " fill="#FF699E" transform="translate(437,805)"/>
<path d="M0 0 C0.33 0 0.66 0 1 0 C1 6.27 1 12.54 1 19 C0.34 19 -0.32 19 -1 19 C-1.33 19.66 -1.66 20.32 -2 21 C-1.03644647 6.21867882 -1.03644647 6.21867882 0 0 Z " fill="#FF8AB2" transform="translate(340,555)"/>
<path d="M0 0 C-0.66 0 -1.32 0 -2 0 C-2 0.66 -2 1.32 -2 2 C-6.95 2.33 -11.9 2.66 -17 3 C-14.08149788 1.05433192 -12.42377152 0.4847543 -9.0625 -0.1875 C-8.20785156 -0.36667969 -7.35320313 -0.54585937 -6.47265625 -0.73046875 C-3.98865141 -1.00123705 -2.35550498 -0.77059444 0 0 Z " fill="#FF639E" transform="translate(899,1096)"/>
<path d="M0 0 C1.93922422 0.45098238 3.87633594 0.91105559 5.8125 1.375 C6.89144531 1.63023438 7.97039062 1.88546875 9.08203125 2.1484375 C12 3 12 3 15 5 C13.24929483 4.88529863 11.49942464 4.75780972 9.75 4.625 C8.77546875 4.55539062 7.8009375 4.48578125 6.796875 4.4140625 C4.10366811 4.01534751 2.33036721 3.36492937 0 2 C0 1.34 0 0.68 0 0 Z " fill="#FF699E" transform="translate(280,1089)"/>
<path d="M0 0 C-2.34882224 2.34882224 -4.27123667 3.03503024 -7.375 4.1875 C-8.33148437 4.55230469 -9.28796875 4.91710938 -10.2734375 5.29296875 C-13.05285296 6.01370542 -14.35108103 5.98549829 -17 5 C-16.030625 4.71125 -15.06125 4.4225 -14.0625 4.125 C-10.89335797 3.35785318 -10.89335797 3.35785318 -10 1 C-6.52674819 -0.1577506 -3.63932552 -0.06866652 0 0 Z " fill="#FF85B7" transform="translate(940,1083)"/>
<path d="M0 0 C3 1 3 1 4.0625 3 C4.371875 3.66 4.68125 4.32 5 5 C5.66 5.33 6.32 5.66 7 6 C7.8515625 8.06640625 7.8515625 8.06640625 8.625 10.5625 C8.88539063 11.38878906 9.14578125 12.21507812 9.4140625 13.06640625 C9.60742188 13.70449219 9.80078125 14.34257813 10 15 C6.76612108 12.04732794 4.77754751 9.12077252 2.75 5.25 C2.22921875 4.26515625 1.7084375 3.2803125 1.171875 2.265625 C0.78515625 1.51796875 0.3984375 0.7703125 0 0 Z " fill="#FF91BA" transform="translate(132,971)"/>
<path d="M0 0 C3 3 6 6 9 9 C8.67 9.66 8.34 10.32 8 11 C4.49810101 9.10708163 2.00875939 7.48889789 0 4 C0 2.68 0 1.36 0 0 Z " fill="#FF67A2" transform="translate(879,375)"/>
<path d="M0 0 C2.125 0.375 2.125 0.375 4 1 C2.71034824 2.37562854 1.37310707 3.70766393 0 5 C-0.66 5 -1.32 5 -2 5 C-2.66 6.32 -3.32 7.64 -4 9 C-4.66 9 -5.32 9 -6 9 C-6 8.01 -6 7.02 -6 6 C-5.01 6 -4.02 6 -3 6 C-2.87625 5.38125 -2.7525 4.7625 -2.625 4.125 C-2 2 -2 2 0 0 Z " fill="#FF80B5" transform="translate(245,234)"/>
<path d="M0 0 C0.66 0 1.32 0 2 0 C2.36463732 1.74784829 2.7163078 3.49840502 3.0625 5.25 C3.25972656 6.22453125 3.45695312 7.1990625 3.66015625 8.203125 C3.98397535 10.868119 3.85503199 12.48871723 3 15 C2.491217 13.44033782 1.99336531 11.87710759 1.5 10.3125 C1.2215625 9.44238281 0.943125 8.57226562 0.65625 7.67578125 C0.00149195 5.00608323 -0.11831495 2.73603316 0 0 Z " fill="#FF6AA1" transform="translate(433,635)"/>
<path d="M0 0 C0.66 0 1.32 0 2 0 C2 0.66 2 1.32 2 2 C2.66 2 3.32 2 4 2 C4.92844389 6.33273814 4.92844389 9.66726186 4 14 C3.67 14 3.34 14 3 14 C2.01 9.38 1.02 4.76 0 0 Z " fill="#FF82AE" transform="translate(1004,322)"/>
<path d="M0 0 C3.68069887 1.53643852 5.98775204 3.78150945 8.75 6.625 C9.54921875 7.44226563 10.3484375 8.25953125 11.171875 9.1015625 C12.07679688 10.04128906 12.07679688 10.04128906 13 11 C10 11 10 11 8.28125 9.50390625 C7.39953125 8.54291016 7.39953125 8.54291016 6.5 7.5625 C4.21180313 5.07860209 3.27359608 4.09119869 0 3 C0 2.01 0 1.02 0 0 Z " fill="#FF85B4" transform="translate(1011,161)"/>
<path d="M0 0 C2.80435411 -0.05632424 5.35146678 0.04185298 8.125 0.3125 C9.25615234 0.4043457 9.25615234 0.4043457 10.41015625 0.49804688 C12.27463438 0.6514533 14.13752498 0.82393459 16 1 C16 1.33 16 1.66 16 2 C10.06 2.33 4.12 2.66 -2 3 C-1.34 2.01 -0.68 1.02 0 0 Z " fill="#FF7EB5" transform="translate(830,1105)"/>
<path d="M0 0 C0.66 0.33 1.32 0.66 2 1 C2 1.66 2 2.32 2 3 C0.40233897 3.86627399 -1.20339944 4.71766465 -2.8125 5.5625 C-3.70582031 6.03816406 -4.59914063 6.51382813 -5.51953125 7.00390625 C-8 8 -8 8 -11 7 C-9.21475351 5.80286983 -7.4215972 4.61752721 -5.625 3.4375 C-4.62726562 2.77621094 -3.62953125 2.11492188 -2.6015625 1.43359375 C-1.74304688 0.96050781 -0.88453125 0.48742187 0 0 Z " fill="#FF85B3" transform="translate(936,978)"/>
<path d="M0 0 C3.94139078 1.66751148 6.7892812 4.22710649 10 7 C9.67 7.66 9.34 8.32 9 9 C2.35384615 5.67692308 2.35384615 5.67692308 0.5625 2.25 C0.376875 1.5075 0.19125 0.765 0 0 Z " fill="#FF68A4" transform="translate(424,794)"/>
<path d="M0 0 C0.33 0 0.66 0 1 0 C0.88529863 1.75070517 0.75780972 3.50057536 0.625 5.25 C0.55539063 6.22453125 0.48578125 7.1990625 0.4140625 8.203125 C0.01534751 10.89633189 -0.63507063 12.66963279 -2 15 C-2.3690205 4.44191344 -2.3690205 4.44191344 0 0 Z " fill="#FF689D" transform="translate(99,327)"/>
<path d="M0 0 C0.70189453 0.01353516 1.40378906 0.02707031 2.12695312 0.04101562 C3.85579829 0.07629818 5.58424765 0.13010417 7.3125 0.1875 C7.3125 0.5175 7.3125 0.8475 7.3125 1.1875 C5.43862523 1.5271019 3.56333303 1.85888691 1.6875 2.1875 C0.64335938 2.373125 -0.40078125 2.55875 -1.4765625 2.75 C-4.59324865 3.17465797 -7.54680812 3.26295206 -10.6875 3.1875 C-7.97885416 -0.76650025 -4.33266512 -0.15777212 0 0 Z " fill="#FF82B1" transform="translate(858.6875,1102.8125)"/>
<path d="M0 0 C0 3.77910478 -0.99703962 4.46106101 -3.5 7.1875 C-4.47453125 8.26064453 -4.47453125 8.26064453 -5.46875 9.35546875 C-5.9740625 9.89816406 -6.479375 10.44085937 -7 11 C-7.33 10.34 -7.66 9.68 -8 9 C-5.68462045 5.27885429 -3.71420527 2.38770339 0 0 Z " fill="#FF6CA2" transform="translate(735,704)"/>
<path d="M0 0 C0.99 0 1.98 0 3 0 C3 6.27 3 12.54 3 19 C2.67 19 2.34 19 2 19 C1.34 12.73 0.68 6.46 0 0 Z " fill="#FF81B9" transform="translate(766,568)"/>
<path d="M0 0 C3.98381075 2.16264012 6.88983545 4.71211176 10 8 C6.50304596 7.35241592 3.87447123 6.09758712 1 4 C0.1875 1.8125 0.1875 1.8125 0 0 Z " fill="#FF89B3" transform="translate(767,397)"/>
<path d="M0 0 C-2.74025104 1.7126569 -4.96579828 2.13949587 -8.125 2.375 C-12.03485272 2.53862218 -12.03485272 2.53862218 -13.5 5.0625 C-13.665 5.701875 -13.83 6.34125 -14 7 C-14.042721 5.33388095 -14.04063832 3.66617115 -14 2 C-11.28656037 -0.71343963 -3.70523981 -0.11578874 0 0 Z " fill="#FF5F97" transform="translate(811,300)"/>
<path d="M0 0 C0.66 0.33 1.32 0.66 2 1 C-1.3 3.97 -4.6 6.94 -8 10 C-8.66 9.67 -9.32 9.34 -10 9 C-9.0919838 7.86800647 -8.17316174 6.74467637 -7.25 5.625 C-6.73953125 4.99851563 -6.2290625 4.37203125 -5.703125 3.7265625 C-3.89125541 1.88975893 -2.41535913 0.89348651 0 0 Z " fill="#FF6B9F" transform="translate(195,157)"/>
<path d="M0 0 C0.66 0.33 1.32 0.66 2 1 C0.97953925 3.78307477 0.4022379 4.8043167 -2.3125 6.125 C-3.199375 6.41375 -4.08625 6.7025 -5 7 C-5.928125 7.37125 -6.85625 7.7425 -7.8125 8.125 C-8.534375 8.41375 -9.25625 8.7025 -10 9 C-6.83047153 5.73991357 -3.60062011 2.77762123 0 0 Z " fill="#FF87B2" transform="translate(949,968)"/>
<path d="M0 0 C4.05281712 1.22527029 7.44360764 2.69880494 11 5 C7.96929372 6.28222189 6.96403086 5.98589446 3.8125 4.75 C1 3 1 3 0 0 Z " fill="#FF6D9E" transform="translate(675,447)"/>
<path d="M0 0 C3.63559661 3.43361902 6.36113346 6.7973607 9 11 C8.01 11.33 7.02 11.66 6 12 C5.566875 11.0925 5.13375 10.185 4.6875 9.25 C3.15019164 6.07225128 3.15019164 6.07225128 1.3125 3.75 C0 2 0 2 0 0 Z " fill="#FF8EB7" transform="translate(800,429)"/>
<path d="M0 0 C0.66 0.33 1.32 0.66 2 1 C0.35 5.29 -1.3 9.58 -3 14 C-4.00000429 9.99998285 -3.80688405 7.94476647 -3 4 C-2.34 4 -1.68 4 -1 4 C-0.67 2.68 -0.34 1.36 0 0 Z " fill="#FF83B5" transform="translate(203,296)"/>
<path d="M0 0 C2.97 0 5.94 0 9 0 C9 0.66 9 1.32 9 2 C11.97 2.495 11.97 2.495 15 3 C11.34142468 4.31534494 8.91973519 3.65468309 5.25 2.5625 C4.26515625 2.27503906 3.2803125 1.98757812 2.265625 1.69140625 C1.51796875 1.46324219 0.7703125 1.23507813 0 1 C0 0.67 0 0.34 0 0 Z " fill="#FF689C" transform="translate(894,104)"/>
<path d="M0 0 C1.4606285 2.64738916 2 3.89448334 2 7 C2.66 7 3.32 7 4 7 C3.67 9.64 3.34 12.28 3 15 C1.08697693 11.73386305 0.64325339 9.00554752 0.375 5.25 C0.30023438 4.26515625 0.22546875 3.2803125 0.1484375 2.265625 C0.09945312 1.51796875 0.05046875 0.7703125 0 0 Z " fill="#FF87B7" transform="translate(100,879)"/>
<path d="M0 0 C6.93 0.495 6.93 0.495 14 1 C14 1.33 14 1.66 14 2 C9.38 2.33 4.76 2.66 0 3 C0 2.01 0 1.02 0 0 Z " fill="#FF87B8" transform="translate(621,860)"/>
<path d="M0 0 C2.68674602 0.36307379 4.55872304 0.66904228 6.75 2.3125 C8.14744246 4.19904732 8.6037919 5.70199304 9 8 C7 8 7 8 4.5 5.6875 C2 3 2 3 0 0 Z " fill="#FF639C" transform="translate(909,347)"/>
<path d="M0 0 C4.10958767 1.45044271 7.43258745 3.51110752 11 6 C10.01 6.495 10.01 6.495 9 7 C2.52856205 4.80433355 2.52856205 4.80433355 0.5625 1.8125 C0.376875 1.214375 0.19125 0.61625 0 0 Z " fill="#FF699F" transform="translate(214,1057)"/>
<path d="M0 0 C4.7517398 0.43197635 6.92000054 1.32769295 10 5 C5.75354935 5 3.61475228 3.18249194 0 1 C0 0.67 0 0.34 0 0 Z " fill="#FF6BA4" transform="translate(511,746)"/>
<path d="M0 0 C1 2 1 2 0.4375 3.8125 C-1.58442416 6.88934111 -4.10299291 8.73277706 -7 11 C-7.66 10.67 -8.32 10.34 -9 10 C-8.27683594 9.29423828 -8.27683594 9.29423828 -7.5390625 8.57421875 C-6.90742187 7.95160156 -6.27578125 7.32898438 -5.625 6.6875 C-4.68527344 5.76517578 -4.68527344 5.76517578 -3.7265625 4.82421875 C-1.81913393 2.91187472 -1.81913393 2.91187472 0 0 Z " fill="#FF85B3" transform="translate(727,711)"/>
<path d="M0 0 C1.96301592 3.50538557 2.95902388 7.13351728 4 11 C3.01 11.33 2.02 11.66 1 12 C-0.3271261 8.0186217 -0.06915913 4.14954773 0 0 Z " fill="#FF83B0" transform="translate(849,515)"/>
<path d="M0 0 C3.99500618 1.3697164 6.80009492 3.25722422 10 6 C6.6875 5.8125 6.6875 5.8125 3 5 C1.0625 2.4375 1.0625 2.4375 0 0 Z " fill="#FF6199" transform="translate(814,333)"/>
<path d="M0 0 C0.75 1.75 0.75 1.75 1 4 C-0.6875 6.3125 -0.6875 6.3125 -3 8 C-5.25 7.75 -5.25 7.75 -7 7 C-4.66666667 4.66666667 -2.33333333 2.33333333 0 0 Z " fill="#FF66A2" transform="translate(937,326)"/>
<path d="M0 0 C0.33 0 0.66 0 1 0 C1.33 2.97 1.66 5.94 2 9 C1.01 9.495 1.01 9.495 0 10 C-1.13350534 12.01669827 -1.13350534 12.01669827 -2 14 C-1.03644647 4.58997722 -1.03644647 4.58997722 0 0 Z " fill="#FF8AB6" transform="translate(99,318)"/>
<path d="M0 0 C-1.32 0.33 -2.64 0.66 -4 1 C-4 1.66 -4 2.32 -4 3 C-6.64 3 -9.28 3 -12 3 C-8.62803192 -0.37196808 -4.5120049 -1.50400163 0 0 Z " fill="#FF65A1" transform="translate(919,1090)"/>
<path d="M0 0 C0.99 0.33 1.98 0.66 3 1 C3 1.66 3 2.32 3 3 C3.99 3 4.98 3 6 3 C6.33 4.98 6.66 6.96 7 9 C4.03595495 6.19195732 1.55500981 3.81684226 0 0 Z " fill="#FF82AE" transform="translate(142,987)"/>
<path d="M0 0 C1.14926266 0.95421808 2.29430541 1.91352045 3.4375 2.875 C4.07558594 3.40867187 4.71367187 3.94234375 5.37109375 4.4921875 C7 6 7 6 8 8 C4.21479387 7.45925627 2.40822445 5.92427254 0 3 C0 2.01 0 1.02 0 0 Z " fill="#FF699F" transform="translate(414,784)"/>
<path d="M0 0 C0.66 0.33 1.32 0.66 2 1 C-2.75 5.875 -2.75 5.875 -5 7 C-5.66 6.34 -6.32 5.68 -7 5 C-4.69 3.35 -2.38 1.7 0 0 Z " fill="#FF89B4" transform="translate(697,738)"/>
<path d="M0 0 C1.98362069 2.91708924 1.9876191 4.12380904 1.625 7.75 C1.41875 8.8225 1.2125 9.895 1 11 C-0.5625 9.8125 -0.5625 9.8125 -2 8 C-1.71263151 5.12631508 -0.91403285 2.74209856 0 0 Z " fill="#FF82B8" transform="translate(796,304)"/>
<path d="M0 0 C0.66 0 1.32 0 2 0 C1.52797514 4.24822374 -0.96655518 6.19989709 -4 9 C-4 7.68 -4 6.36 -4 5 C-3.01 5 -2.02 5 -1 5 C-0.67 3.35 -0.34 1.7 0 0 Z " fill="#FF87B7" transform="translate(232,247)"/>
<path d="M0 0 C0.78890625 0.22042969 1.5778125 0.44085938 2.390625 0.66796875 C3.18984375 0.88066406 3.9890625 1.09335938 4.8125 1.3125 C5.71742188 1.58126953 5.71742188 1.58126953 6.640625 1.85546875 C6.640625 2.18546875 6.640625 2.51546875 6.640625 2.85546875 C2.350625 2.85546875 -1.939375 2.85546875 -6.359375 2.85546875 C-2.359375 -0.14453125 -2.359375 -0.14453125 0 0 Z " fill="#FF88B8" transform="translate(812.359375,183.14453125)"/>
<path d="M0 0 C3.1875 0.875 3.1875 0.875 6 2 C6 2.99 6 3.98 6 5 C3.03 4.01 0.06 3.02 -3 2 C-2.01 1.34 -1.02 0.68 0 0 Z " fill="#FF80B0" transform="translate(268,1084)"/>
<path d="M0 0 C0.99 0.66 1.98 1.32 3 2 C0.03 4.475 0.03 4.475 -3 7 C-3.33 6.01 -3.66 5.02 -4 4 C-2.68 2.68 -1.36 1.36 0 0 Z " fill="#FF80B2" transform="translate(788,781)"/>
<path d="M0 0 C0.66 0 1.32 0 2 0 C0.90931332 3.77545388 0.0916909 6.47043472 -3 9 C-2.5020163 5.26512223 -2.12508244 3.18762365 0 0 Z " fill="#FF6EA1" transform="translate(753,673)"/>
<path d="M0 0 C0.99 0 1.98 0 3 0 C1.47291037 3.43595166 -0.59927045 6.11912454 -3 9 C-3.1875 6.6875 -3.1875 6.6875 -3 4 C-1.5 2.25 -1.5 2.25 0 1 C0 0.67 0 0.34 0 0 Z " fill="#FF8AB0" transform="translate(463,497)"/>
<path d="M0 0 C-0.99 0.495 -0.99 0.495 -2 1 C-2 1.66 -2 2.32 -2 3 C-5.63 3 -9.26 3 -13 3 C-8.72352613 0.14901742 -5.0682068 -0.14480591 0 0 Z " fill="#FF88B6" transform="translate(547,343)"/>
<path d="M0 0 C6.15234375 -0.09765625 6.15234375 -0.09765625 8 0 C9 1 9 1 9.0625 3.5625 C9.041875 4.366875 9.02125 5.17125 9 6 C8.34 5.01 7.68 4.02 7 3 C3.44327821 1.7811879 3.44327821 1.7811879 0 1 C0 0.67 0 0.34 0 0 Z " fill="#FF5C97" transform="translate(940,301)"/>
<path d="M0 0 C-1.28524261 0.86380259 -2.57842419 1.71580369 -3.875 2.5625 C-4.59429687 3.03816406 -5.31359375 3.51382813 -6.0546875 4.00390625 C-6.69664062 4.33261719 -7.33859375 4.66132813 -8 5 C-8.66 4.67 -9.32 4.34 -10 4 C-7.26634436 -0.10048346 -4.7993062 -1.59976873 0 0 Z " fill="#FF88B3" transform="translate(275,216)"/>
<path d="M0 0 C0 0.66 0 1.32 0 2 C-3.21451269 3.60725635 -6.43612536 3.05748185 -10 3 C-6.26223701 0.50815801 -4.5227786 0 0 0 Z " fill="#FF699C" transform="translate(679,850)"/>
<path d="M0 0 C3.93673644 1.31224548 6.22719294 2.91910327 9 6 C2.35384615 4.52307692 2.35384615 4.52307692 0.5625 1.875 C0.376875 1.25625 0.19125 0.6375 0 0 Z " fill="#FF699D" transform="translate(452,816)"/>
<path d="M0 0 C0.99 0.33 1.98 0.66 3 1 C1.35 3.64 -0.3 6.28 -2 9 C-3 6 -3 6 -1.5625 2.8125 C-1.046875 1.884375 -0.53125 0.95625 0 0 Z " fill="#FF85B9" transform="translate(457,506)"/>
<path d="M0 0 C1.32 0.33 2.64 0.66 4 1 C1.03 3.475 1.03 3.475 -2 6 C-2.66 5.67 -3.32 5.34 -4 5 C-2.68 3.35 -1.36 1.7 0 0 Z " fill="#FF6EA0" transform="translate(445,387)"/>
<path d="M0 0 C3.3 1.98 6.6 3.96 10 6 C8 7 8 7 6.125 6.8125 C3.35478386 5.75329971 1.90455437 4.24465336 0 2 C0 1.34 0 0.68 0 0 Z " fill="#FF96BB" transform="translate(732,372)"/>
<path d="M0 0 C1.41750563 0.11509661 2.83401169 0.24253658 4.25 0.375 C5.03890625 0.44460938 5.8278125 0.51421875 6.640625 0.5859375 C9 1 9 1 13 3 C9.37 3 5.74 3 2 3 C2 2.34 2 1.68 2 1 C1.34 0.67 0.68 0.34 0 0 Z " fill="#FF80B1" transform="translate(654,343)"/>
<path d="M0 0 C1.27162597 3.8148779 0.64661571 5.3931275 -1 9 C-2.32 9.33 -3.64 9.66 -5 10 C-3.35 6.7 -1.7 3.4 0 0 Z " fill="#FF93B9" transform="translate(127,238)"/>
<path d="M0 0 C0.66 0.33 1.32 0.66 2 1 C0.68 3.31 -0.64 5.62 -2 8 C-2.33 8 -2.66 8 -3 8 C-2.74438677 5.6568787 -2.40729228 3.32156597 -2 1 C-1.34 0.67 -0.68 0.34 0 0 Z " fill="#FF82B3" transform="translate(1072,962)"/>
<path d="M0 0 C-3.18762365 2.12508244 -5.26512223 2.5020163 -9 3 C-8.67 2.01 -8.34 1.02 -8 0 C-4.71023192 -1.09658936 -3.28696233 -0.79953138 0 0 Z " fill="#FF80B3" transform="translate(673,853)"/>
<path d="M0 0 C4.875 1.875 4.875 1.875 6 3 C6.04063832 4.66617115 6.042721 6.33388095 6 8 C3.87961365 5.38485683 1.86908256 2.80362384 0 0 Z " fill="#FF88B4" transform="translate(736,500)"/>
<path d="M0 0 C0 3 0 3 -2.5 5.6875 C-3.325 6.450625 -4.15 7.21375 -5 8 C-4.64950425 4.75791433 -4.43778819 3.38472296 -1.9375 1.1875 C-1.298125 0.795625 -0.65875 0.40375 0 0 Z " fill="#FF6C9F" transform="translate(395,437)"/>
<path d="M0 0 C5.875 3.75 5.875 3.75 7 6 C4.625 5.8125 4.625 5.8125 2 5 C0.6875 2.4375 0.6875 2.4375 0 0 Z " fill="#FF82B5" transform="translate(756,388)"/>
<path d="M0 0 C0.33 0 0.66 0 1 0 C3.27678571 8.03571429 3.27678571 8.03571429 2 12 C1.34 11.67 0.68 11.34 0 11 C0 7.37 0 3.74 0 0 Z " fill="#FF8BB7" transform="translate(1095,296)"/>
<path d="M0 0 C0.99 0.33 1.98 0.66 3 1 C-1.39453125 5.00390625 -1.39453125 5.00390625 -3 6 C-3.99 5.67 -4.98 5.34 -6 5 C-2.25 1.125 -2.25 1.125 0 0 Z " fill="#FF90BE" transform="translate(256,226)"/>
<path d="M0 0 C2.4375 1.125 2.4375 1.125 5 3 C5.8125 6.1875 5.8125 6.1875 6 9 C2.91910327 6.22719294 1.31224548 3.93673644 0 0 Z " fill="#FF69A4" transform="translate(1057,215)"/>
<path d="M0 0 C2.64 1.98 5.28 3.96 8 6 C6.68 6.33 5.36 6.66 4 7 C0 2.25 0 2.25 0 0 Z " fill="#FF83B0" transform="translate(1002,153)"/>
<path d="M0 0 C6.64615385 1.47692308 6.64615385 1.47692308 8.4375 4.125 C8.7159375 5.053125 8.7159375 5.053125 9 6 C5.06326356 4.68775452 2.77280706 3.08089673 0 0 Z " fill="#FF679E" transform="translate(976,137)"/>
<path d="M0 0 C2.64 0.66 5.28 1.32 8 2 C8 2.99 8 3.98 8 5 C4.62496331 3.8141763 2.35277269 2.72426311 0 0 Z " fill="#FF85B0" transform="translate(221,1063)"/>
<path d="M0 0 C5.75 1.625 5.75 1.625 8 5 C4.75791433 4.64950425 3.38472296 4.43778819 1.1875 1.9375 C0.795625 1.298125 0.40375 0.65875 0 0 Z " fill="#FF6DA1" transform="translate(250,970)"/>
<path d="M0 0 C2.64 0.66 5.28 1.32 8 2 C8 2.99 8 3.98 8 5 C4.62496331 3.8141763 2.35277269 2.72426311 0 0 Z " fill="#FF8CB8" transform="translate(457,821)"/>
<path d="M0 0 C0.66 0.33 1.32 0.66 2 1 C0.68 3.31 -0.64 5.62 -2 8 C-2.33 8 -2.66 8 -3 8 C-2.74438677 5.6568787 -2.40729228 3.32156597 -2 1 C-1.34 0.67 -0.68 0.34 0 0 Z " fill="#FF80B5" transform="translate(452,516)"/>
<path d="M0 0 C1.13643966 3.40931897 0.86747764 4.00335456 -0.4375 7.1875 C-0.86869141 8.26064453 -0.86869141 8.26064453 -1.30859375 9.35546875 C-1.53675781 9.89816406 -1.76492188 10.44085937 -2 11 C-3.31826804 7.04519588 -2.29536133 4.88608399 -1 1 C-0.67 0.67 -0.34 0.34 0 0 Z " fill="#FF689C" transform="translate(354,509)"/>
<path d="M0 0 C1.31223496 3.93670488 0.24296256 6.12488144 -1 10 C-1.33 10 -1.66 10 -2 10 C-2.33 7.69 -2.66 5.38 -3 3 C-2.34 3 -1.68 3 -1 3 C-0.67 2.01 -0.34 1.02 0 0 Z " fill="#FF8AB5" transform="translate(195,321)"/>
<path d="" fill="#FF80FF" transform="translate(0,0)"/>
<path d="" fill="#FF80FF" transform="translate(0,0)"/>
<path d="" fill="#FF80FF" transform="translate(0,0)"/>
</svg>
