<?xml version="1.0" encoding="UTF-8"?>
<svg version="1.1" xmlns="http://www.w3.org/2000/svg" width="500" height="500">
<path d="M0 0 C1.29027662 -0.00583219 2.58055324 -0.01166439 3.90992916 -0.01767331 C5.329465 -0.01404065 6.74900036 -0.0102163 8.16853523 -0.00622082 C9.68609083 -0.00924289 11.20364491 -0.01313266 12.72119629 -0.01781338 C16.8838108 -0.0280949 21.04633919 -0.02591117 25.20896077 -0.02163279 C29.70122217 -0.01916585 34.19346282 -0.02817934 38.68571663 -0.03567028 C47.48365086 -0.0484202 56.28155457 -0.0502106 65.07949649 -0.04787002 C72.23076283 -0.04608702 79.38201991 -0.04783611 86.53328514 -0.05209446 C87.55107114 -0.05268965 88.56885714 -0.05328484 89.61748514 -0.05389806 C91.68511883 -0.05510981 93.75275251 -0.05632395 95.82038619 -0.05754044 C115.21116483 -0.06841712 134.60192609 -0.06625288 153.99270572 -0.06015559 C171.73035113 -0.05498637 189.46794162 -0.06624181 207.20557617 -0.08525381 C225.42051632 -0.10462768 243.63543049 -0.112889 261.85038102 -0.10913056 C272.07590551 -0.10721783 282.30138325 -0.10971313 292.52689934 -0.1238451 C301.23201631 -0.13575411 309.93705777 -0.13716916 318.64217578 -0.12505493 C323.0827728 -0.11916288 327.52323166 -0.11807584 331.9638195 -0.13005733 C336.03132925 -0.14090457 340.09858529 -0.13782662 344.16608311 -0.12379565 C345.63506857 -0.12114553 347.10407384 -0.12352519 348.57303987 -0.13153151 C358.25898143 -0.18064561 367.10312318 0.09573949 374.97911263 6.31697559 C375.64040169 6.82357716 376.30169075 7.33017872 376.98301888 7.85213184 C377.45610481 8.31490528 377.92919075 8.77767872 378.41661263 9.25447559 C378.41661263 9.91447559 378.41661263 10.57447559 378.41661263 11.25447559 C379.07661263 11.25447559 379.73661263 11.25447559 380.41661263 11.25447559 C381.22072501 12.58034028 382.00916069 13.9157139 382.79161263 15.25447559 C383.232472 15.99697559 383.67333138 16.73947559 384.12755013 17.50447559 C387.99378625 25.75244599 387.70516153 34.0259783 387.68403816 42.961339 C387.68777789 44.46183347 387.69238069 45.962326 387.69776881 47.46281546 C387.70997425 51.57369926 387.70974125 55.68450153 387.70738006 59.79539931 C387.70697127 64.23383273 387.71801687 68.67224022 387.72749519 73.11066151 C387.74409233 81.80150922 387.74960414 90.49232981 387.75071995 99.18319205 C387.75167096 106.24860538 387.75578393 113.31400978 387.7621212 120.37942028 C387.77972954 140.41929768 387.78896062 160.45915367 387.78746025 180.49903885 C387.78738034 181.57889206 387.78730043 182.65874527 387.78721809 183.7713213 C387.78713633 184.85249565 387.78705457 185.93367 387.78697033 187.04760721 C387.78615739 204.57045755 387.80529828 222.09322194 387.83349483 239.61604742 C387.86223072 257.61632746 387.87603475 275.61656559 387.87430727 293.61686915 C387.87364365 303.71950008 387.87912388 313.82204089 387.90066338 323.92465115 C387.91888436 332.52576412 387.92321489 341.1267461 387.90964453 349.72787002 C387.90311974 354.11408223 387.90298001 358.5000432 387.92035103 362.88623142 C387.93610832 366.90637677 387.93319129 370.92607222 387.91578276 374.94620677 C387.91271871 376.39568473 387.91632278 377.84519648 387.92750292 379.29463456 C388.00621579 390.22884066 386.43376614 398.9992543 380.41661263 408.25447559 C378.03380013 410.38728809 378.03380013 410.38728809 375.29161263 412.37947559 C374.4021595 413.04205372 373.51270638 413.70463184 372.59630013 414.38728809 C363.84998691 419.52332951 355.48440251 419.68715066 345.51356697 419.64215565 C344.00395814 419.64633295 342.49435245 419.65181265 340.98475254 419.65847546 C336.85328438 419.67289683 332.72201627 419.66869574 328.59053731 419.66130865 C324.1282568 419.65657106 319.6660192 419.66909207 315.20375252 419.67932606 C306.46824147 419.69650793 297.73280238 419.69735532 288.99727882 419.69211315 C281.89565403 419.68806901 274.79405047 419.68951792 267.69242668 419.69486141 C266.1753464 419.69598405 266.1753464 419.69598405 264.62761804 419.69712936 C262.57287288 419.69866086 260.51812773 419.70019921 258.46338259 419.70174433 C239.20128723 419.71546721 219.9392325 419.71003321 200.67713808 419.69855911 C183.06381645 419.68862744 165.45059989 419.70156666 147.83729447 419.7254933 C129.74205693 419.749889 111.6468683 419.75949098 93.55161464 419.75284058 C83.39646657 419.74934935 73.24139928 419.7515741 63.08626366 419.76909161 C54.44125079 419.78381946 45.7963756 419.78444139 37.15136541 419.76702069 C32.74287381 419.75851307 28.3346281 419.75635532 23.92614937 419.77167225 C19.88568203 419.78553646 15.84567084 419.78073418 11.80522977 419.76143301 C10.34838267 419.75767798 8.89149889 419.76058063 7.43468453 419.77104466 C-4.79249213 419.85258258 -14.63197869 418.14871013 -23.63807487 409.46541309 C-30.2630387 401.93583573 -31.70566895 394.63779112 -31.71202183 384.7335577 C-31.71524627 383.45721466 -31.71847072 382.18087162 -31.72179288 380.86585152 C-31.72032196 379.46203707 -31.71875426 378.05822271 -31.71710014 376.65440845 C-31.71896946 375.15335339 -31.72127065 373.65229881 -31.72396547 372.151245 C-31.73007481 368.03425752 -31.72995089 363.91729038 -31.72877109 359.80029941 C-31.72856687 355.35712449 -31.73408786 350.91395607 -31.73882866 346.47078419 C-31.74713077 337.76911039 -31.74988329 329.06744337 -31.75044104 320.36576594 C-31.75091636 313.29268668 -31.7529719 306.21960966 -31.75614166 299.14653111 C-31.76494664 279.09061764 -31.76956122 259.03470952 -31.76881119 238.97879411 C-31.76877123 237.89785006 -31.76873128 236.816906 -31.76869011 235.70320606 C-31.76864923 234.62094159 -31.76860835 233.53867712 -31.76856623 232.42361675 C-31.76815969 214.87997984 -31.77773167 197.33636439 -31.79182848 179.79273368 C-31.80619063 161.77667938 -31.81309876 143.76063555 -31.8122347 125.74457538 C-31.8119027 115.63084277 -31.81465119 105.51713265 -31.82541275 95.40340519 C-31.83451557 86.79345734 -31.83669475 78.18354219 -31.82990333 69.5735916 C-31.82663717 65.18162719 -31.82658493 60.78972552 -31.83525658 56.39776707 C-31.84311811 52.37471758 -31.84169369 48.35178064 -31.83297244 44.32873391 C-31.83143671 42.87589845 -31.8332564 41.42305461 -31.83883252 39.97022904 C-31.88033501 28.38685563 -31.59530331 18.28638904 -23.58338737 9.25447559 C-16.41396432 3.05357427 -9.58924222 0.00748562 0 0 Z M51.47520638 23.34431934 C50.94024544 24.28404591 50.4052845 25.22377247 49.85411263 26.19197559 C49.27274544 27.18970997 48.69137825 28.18744434 48.09239388 29.21541309 C47.26288216 30.71974903 47.26288216 30.71974903 46.41661263 32.25447559 C45.91516731 33.13361622 45.413722 34.01275684 44.89708138 34.91853809 C41.0737157 41.68380185 39.30757655 46.30138803 40.41661263 54.25447559 C42.06733446 58.16230687 44.10731777 61.7011856 46.41661263 65.25447559 C47.07661263 65.25447559 47.73661263 65.25447559 48.41661263 65.25447559 C48.49911263 65.77010059 48.58161263 66.28572559 48.66661263 66.81697559 C49.73801488 70.29903292 51.55184867 73.12648444 53.41661263 76.25447559 C49.90297912 73.71097807 47.41324194 71.08601792 44.93004036 67.53255177 C39.97413535 60.45283139 35.20010513 55.52397608 26.35020638 53.86775684 C18.59132613 53.44079759 6.84778019 54.96703055 0.41661263 59.25447559 C-0.73410316 62.05062924 -0.73410316 62.05062924 -0.58338737 65.25447559 C1.29612507 68.16438779 1.29612507 68.16438779 4.04161263 70.75447559 C4.98023657 71.7130117 5.91775006 72.67263654 6.85411263 73.63338184 C8.12255013 74.93082325 8.12255013 74.93082325 9.41661263 76.25447559 C10.3092882 77.38659279 11.18941619 78.52908254 12.04161263 79.69197559 C16.18852702 84.16627797 20.72250736 86.44163859 26.85411263 86.75447559 C35.39672455 86.42077982 44.34189708 83.94604744 52.41661263 81.25447559 C52.41661263 81.91447559 52.41661263 82.57447559 52.41661263 83.25447559 C51.75016731 83.41303028 51.083722 83.57158497 50.39708138 83.73494434 C34.63404372 87.707648 34.63404372 87.707648 22.72911263 97.87947559 C18.87051837 104.56851204 18.25694973 111.53945844 17.54161263 119.12947559 C17.42044075 120.40564747 17.29926888 121.68181934 17.17442513 122.99666309 C17.08957334 126.28311564 17.08957334 126.28311564 19.15489388 128.23103809 C23.16676948 130.04642913 26.39404283 128.6116344 30.41661263 127.25447559 C39.25160816 123.75474052 48.29618252 120.02580892 52.49083138 110.92342091 C53.441882 108.18162621 53.78229097 105.87731313 53.97911263 102.98885059 C54.05387825 102.01689747 54.12864388 101.04494434 54.20567513 100.04353809 C54.34737946 98.00194606 54.48798818 95.9602777 54.62755013 93.91853809 C54.70231575 92.95174122 54.77708138 91.98494434 54.85411263 90.98885059 C54.91469856 90.10423145 54.9752845 89.21961231 55.03770638 88.30818653 C55.16274544 87.63046192 55.2877845 86.95273731 55.41661263 86.25447559 C56.07661263 85.92447559 56.73661263 85.59447559 57.41661263 85.25447559 C57.47719856 86.23287403 57.5377845 87.21127247 57.60020638 88.21931934 C57.8832652 101.59566017 57.8832652 101.59566017 61.41661263 114.25447559 C62.07661263 114.25447559 62.73661263 114.25447559 63.41661263 114.25447559 C63.64348763 114.83197559 63.87036263 115.40947559 64.10411263 116.00447559 C68.09960245 122.85388673 76.96912522 125.94783447 84.24864388 128.08650684 C87.80201755 128.90715536 87.80201755 128.90715536 91.41661263 129.25447559 C92.40661263 128.59447559 93.39661263 127.93447559 94.41661263 127.25447559 C95.76878088 116.76854332 94.75453509 105.50829276 88.47911263 96.75447559 C85.17478423 92.59542758 81.73846833 90.15119955 76.68614388 88.50056934 C75.80120247 88.20344044 74.91626106 87.90631153 74.00450325 87.60017872 C73.08862434 87.30047169 72.17274544 87.00076466 71.22911263 86.69197559 C69.40005085 86.09330423 67.57308878 85.48816642 65.74864388 84.87556934 C64.94144905 84.6118755 64.13425423 84.34818165 63.30259895 84.07649708 C61.41661263 83.25447559 61.41661263 83.25447559 60.41661263 81.25447559 C61.66055794 81.61541309 62.90450325 81.97635059 64.18614388 82.34822559 C78.9002585 86.89351337 78.9002585 86.89351337 93.79161263 85.00447559 C99.16755543 81.42051372 103.25515647 77.43415351 107.29161263 72.44197559 C107.80208138 71.85094044 108.31255013 71.25990528 108.83848763 70.65095997 C111.63879442 67.18085006 112.44810575 65.94663961 112.23692513 61.30525684 C111.83087044 59.79512012 111.83087044 59.79512012 111.41661263 58.25447559 C109.5423911 57.77227297 107.66719509 57.29385727 105.79161263 56.81697559 C104.747472 56.55013966 103.70333138 56.28330372 102.62755013 56.00838184 C94.66592863 54.13904736 86.23320738 52.67794858 78.45176888 55.95760059 C71.57207242 60.34159143 66.63180267 68.07612302 61.82676888 74.53963184 C60.41661263 76.25447559 60.41661263 76.25447559 58.41661263 77.25447559 C58.77489143 76.66432667 59.13317024 76.07417774 59.50230598 75.46614552 C61.1226511 72.79327302 62.73842761 70.11766734 64.35411263 67.44197559 C64.91807747 66.51320606 65.48204231 65.58443653 66.063097 64.62752247 C66.60128059 63.73484669 67.13946419 62.84217091 67.69395638 61.92244434 C68.44020271 60.68917408 68.44020271 60.68917408 69.20152473 59.43098927 C72.23463305 53.99796523 72.06229311 48.31051329 71.41661263 42.25447559 C70.20590838 38.60607537 68.42052576 35.5221631 66.41661263 32.25447559 C65.86231575 31.24256153 65.30801888 30.23064747 64.73692513 29.18806934 C62.3924189 24.98869749 62.3924189 24.98869749 59.41661263 21.25447559 C55.60786536 20.4758645 54.16418081 20.44974928 51.47520638 23.34431934 Z M207.41661263 167.25447559 C206.26032356 168.05498341 206.26032356 168.05498341 205.08067513 168.87166309 C204.5315345 169.32799122 203.98239388 169.78431934 203.41661263 170.25447559 C203.41661263 170.91447559 203.41661263 171.57447559 203.41661263 172.25447559 C202.75661263 172.25447559 202.09661263 172.25447559 201.41661263 172.25447559 C201.41661263 172.91447559 201.41661263 173.57447559 201.41661263 174.25447559 C200.75661263 174.25447559 200.09661263 174.25447559 199.41661263 174.25447559 C197.82649916 175.93320625 197.82649916 175.93320625 196.29161263 178.06697559 C195.7527845 178.77467091 195.21395638 179.48236622 194.65880013 180.21150684 C193.1568465 182.28320554 193.1568465 182.28320554 193.41661263 185.25447559 C192.42661263 185.25447559 191.43661263 185.25447559 190.41661263 185.25447559 C190.41661263 176.34447559 190.41661263 167.43447559 190.41661263 158.25447559 C171.27661263 158.25447559 152.13661263 158.25447559 132.41661263 158.25447559 C132.41661263 223.59447559 132.41661263 288.93447559 132.41661263 356.25447559 C152.21661263 356.25447559 172.01661263 356.25447559 192.41661263 356.25447559 C192.44239388 348.29451466 192.46817513 340.33455372 192.49473763 332.13338184 C192.51993305 327.06108497 192.54628689 321.98884613 192.57676888 316.91658497 C192.62493834 308.88296577 192.66904509 300.849504 192.68760872 292.81575489 C192.70286164 286.3316508 192.73745942 279.84790096 192.78492165 273.3639555 C192.7996468 270.90234378 192.80764849 268.44068146 192.80849648 265.97902584 C192.83451523 228.28725994 192.83451523 228.28725994 204.41661263 215.25447559 C206.94112544 213.1923969 209.48065203 211.65284033 212.41661263 210.25447559 C213.03149544 209.90513966 213.64637825 209.55580372 214.27989388 209.19588184 C222.53067917 205.56070953 235.60617157 205.76266042 244.04161263 208.94197559 C253.11872302 213.35909788 256.63131914 218.98235605 260.41661263 228.25447559 C261.19218123 231.57189677 261.57937002 234.74865162 261.72189522 238.14900684 C261.78238092 239.56306812 261.78238092 239.56306812 261.84408855 241.0056963 C261.88212062 242.01591846 261.92015268 243.02614063 261.95933723 244.06697559 C262.00115844 245.12940479 262.04297964 246.19183399 262.08606815 247.28645802 C262.50651315 258.60742738 262.64074843 269.926906 262.73301888 281.25447559 C262.75367404 283.43978153 262.77467212 285.62508425 262.7959919 287.8103838 C262.85033135 293.47191677 262.90011661 299.13348025 262.94883919 304.79506397 C263.00870735 311.63632903 263.07443394 318.47754018 263.13913918 325.31876087 C263.23603412 335.63063196 263.32564775 345.94254283 263.41661263 356.25447559 C283.21661263 356.25447559 303.01661263 356.25447559 323.41661263 356.25447559 C323.53339018 333.1529402 323.53339018 333.1529402 323.61192513 310.05135059 C323.63554389 300.61343535 323.66311594 291.17566422 323.71837044 281.73787403 C323.75861495 274.86051658 323.78413328 267.98327747 323.7929666 261.10580552 C323.79811878 257.47425252 323.80996383 253.84303765 323.83953285 250.21159458 C324.02876304 225.99581778 323.28427834 201.49826333 310.41661263 180.25447559 C309.89067513 179.37275684 309.36473763 178.49103809 308.82286263 177.58260059 C300.78360298 165.0686587 286.81279518 158.25563054 272.65880013 154.87459278 C267.40156284 153.86906697 262.19505558 153.64320138 256.85411263 153.50447559 C255.80803841 153.46193653 254.76196419 153.41939747 253.68419075 153.37556934 C235.72417072 152.7735575 222.03637755 156.4367548 207.41661263 167.25447559 Z M31.41661263 158.25447559 C31.41661263 223.59447559 31.41661263 288.93447559 31.41661263 356.25447559 C51.54661263 356.25447559 71.67661263 356.25447559 92.41661263 356.25447559 C92.41661263 290.91447559 92.41661263 225.57447559 92.41661263 158.25447559 C72.28661263 158.25447559 52.15661263 158.25447559 31.41661263 158.25447559 Z " fill="#FD7AA8" transform="translate(71.58338737487793,38.745524406433105)"/>
<path d="M0 0 C0.33 0.99 0.66 1.98 1 3 C0.01 3.33 -0.98 3.66 -2 4 C-2.33 4.66 -2.66 5.32 -3 6 C-3.33 6.66 -3.66 7.32 -4 8 C-4.99 8.33 -5.98 8.66 -7 9 C-7.33 9.99 -7.66 10.98 -8 12 C-8.66 12 -9.32 12 -10 12 C-11.01540112 16.10223585 -11.01540112 16.10223585 -10 20 C-10.30424167 20.7358419 -10.60848333 21.4716838 -10.92194444 22.22982395 C-12.17543638 25.45080205 -12.24956594 27.87112513 -12.24888897 31.32281685 C-12.25578716 33.24735874 -12.25578716 33.24735874 -12.26282471 35.21078026 C-12.25780982 36.63247436 -12.25260757 38.0541678 -12.24723816 39.4758606 C-12.24882636 40.98771586 -12.25129008 42.49957042 -12.25455457 44.01142299 C-12.26097315 48.16734496 -12.254896 52.32316963 -12.24679029 56.47908521 C-12.24021702 60.96035402 -12.24516093 65.44161189 -12.24867249 69.92288208 C-12.25371665 78.70170435 -12.2480703 87.48048897 -12.23882218 96.25930656 C-12.22844522 106.47632129 -12.22850818 116.69332785 -12.22899476 126.91034685 C-12.22949552 145.13506341 -12.22032981 163.35976243 -12.20581055 181.58447266 C-12.19171872 199.28174153 -12.18463994 216.97899497 -12.18530273 234.67626953 C-12.18534269 235.76650009 -12.18538265 236.85673064 -12.18542381 237.97999848 C-12.18546417 239.06831758 -12.18550452 240.15663668 -12.1855461 241.27793515 C-12.18623539 261.40907541 -12.18034958 281.5402091 -12.17139288 301.67134724 C-12.16837277 308.7988745 -12.16731288 315.92640055 -12.16686058 323.05392838 C-12.16617945 331.73435933 -12.16172875 340.4147792 -12.15252777 349.09520544 C-12.14790124 353.52689885 -12.14486743 357.95857806 -12.14612198 362.39027405 C-12.14721356 366.44267035 -12.14371986 370.49503517 -12.13647345 374.5474249 C-12.13465384 376.01770829 -12.13453591 377.48799491 -12.13624074 378.95827843 C-12.13829385 380.94847466 -12.13365652 382.93867449 -12.12863445 384.92886543 C-12.12793003 386.03683704 -12.1272256 387.14480864 -12.12649983 388.28635514 C-12.11863471 391.09694369 -12.11863471 391.09694369 -11 394 C-11.66 394.99 -12.32 395.98 -13 397 C-15.14585329 388.68071837 -15.28266525 380.58664215 -15.25396729 372.03916931 C-15.25627489 370.53552413 -15.25945342 369.03188007 -15.26342177 367.52823836 C-15.27173709 363.4180035 -15.26765941 359.30786205 -15.26144934 355.19762695 C-15.25691249 350.75654664 -15.26391469 346.31548206 -15.26940918 341.87440491 C-15.27829145 333.18315874 -15.27638642 324.49194716 -15.2705839 315.80069964 C-15.26606312 308.73627147 -15.26545631 301.67185298 -15.26763153 294.60742378 C-15.267938 293.6011457 -15.26824446 292.59486761 -15.26856022 291.55809625 C-15.26919968 289.51373517 -15.26984811 287.46937409 -15.2705054 285.42501301 C-15.2762052 266.26598915 -15.26965613 247.10698444 -15.25890467 227.94796372 C-15.24996811 211.51437183 -15.25152274 195.08080818 -15.26074219 178.6472168 C-15.27144864 159.55416939 -15.27565735 140.46113877 -15.26951766 121.36808878 C-15.26888057 119.33164601 -15.26825183 117.29520323 -15.26763153 115.25876045 C-15.26732298 114.2568406 -15.26701443 113.25492075 -15.26669653 112.22263969 C-15.26497082 105.1675003 -15.267882 98.11237156 -15.27259064 91.05723381 C-15.27820356 82.45833445 -15.27667427 73.8594716 -15.26602915 65.26057642 C-15.26077822 60.87466941 -15.25870588 56.48882325 -15.26532745 52.10291672 C-15.27130088 48.08553409 -15.26798884 44.06826853 -15.25737235 40.05089647 C-15.25514425 38.60017119 -15.25626133 37.14943595 -15.26112393 35.69871711 C-15.29728816 24.00982171 -14.89172668 14.20998351 -7 5 C-4.74740898 3.06340372 -2.53627539 1.57249074 0 0 Z " fill="#F496B9" transform="translate(55,43)"/>
<path d="M0 0 C46.72781745 -0.06866155 93.45562956 -0.12152647 140.1834875 -0.15319599 C145.69971766 -0.15694812 151.21594772 -0.16083109 156.73217773 -0.16479492 C157.83036318 -0.16558185 158.92854862 -0.16636878 160.06001241 -0.16717956 C177.84336204 -0.18023467 195.6266826 -0.20388911 213.41001498 -0.23145839 C231.65636685 -0.25950963 249.90270349 -0.27617567 268.14907604 -0.28226548 C279.40871121 -0.2863825 290.66826417 -0.29938743 301.92787404 -0.3237494 C309.64824876 -0.3396031 317.36858096 -0.34440118 325.08897077 -0.34050413 C329.54370329 -0.33858203 333.99829212 -0.34153563 338.45299911 -0.35761642 C342.53372887 -0.37223953 346.61421861 -0.37293675 350.69495953 -0.36269668 C352.16886979 -0.36143149 353.64279517 -0.36521663 355.11667579 -0.37464955 C373.23359135 -0.48382837 373.23359135 -0.48382837 378.73416799 4.60405952 C379.15189256 5.06471988 379.56961712 5.52538024 380 6 C378.515 6.495 378.515 6.495 377 7 C377 6.34 377 5.68 377 5 C376.236875 4.855625 375.47375 4.71125 374.6875 4.5625 C372 4 372 4 369 3 C366.9578142 2.90260439 364.91254797 2.8661878 362.86804676 2.8613348 C361.57670065 2.85586036 360.28535453 2.85038591 358.95487672 2.84474558 C357.51344103 2.8436693 356.07200527 2.84268462 354.63056946 2.84178162 C353.10592763 2.83721753 351.58128705 2.83221773 350.05664796 2.82681805 C345.85624801 2.81321011 341.65585617 2.80581091 337.45543993 2.79939139 C332.9298783 2.7913991 328.40433363 2.7776973 323.87878418 2.76467896 C316.03436627 2.74289957 308.18994666 2.72476043 300.3455143 2.70907402 C289.00369658 2.6863887 277.66189762 2.65824402 266.3200958 2.62875474 C247.92002982 2.58106241 229.51995618 2.53780268 211.11987305 2.49731445 C193.24291386 2.45796787 175.36596148 2.41654366 157.48901367 2.37231445 C156.38760047 2.36959018 155.28618728 2.36686591 154.15139792 2.36405908 C148.62608745 2.35037974 143.10077707 2.33665944 137.57546675 2.32291877 C91.71699203 2.20892822 45.85850258 2.10212457 0 2 C0 1.34 0 0.68 0 0 Z " fill="#F4B2CC" transform="translate(65,39)"/>
<path d="M0 0 C6.75 -0.125 6.75 -0.125 9 1 C9 1.66 9 2.32 9 3 C132.09 3 255.18 3 382 3 C382 2.34 382 1.68 382 1 C384.64 0.67 387.28 0.34 390 0 C387.79957211 3.02558835 385.17048952 3.76778724 381.62672234 4.59455907 C375.81385141 5.49178972 369.91287559 5.27714792 364.04516602 5.26069641 C362.51778508 5.26371929 360.99040566 5.26760946 359.46302891 5.27228898 C355.27794009 5.28255986 351.09293703 5.28038949 346.90784121 5.27610838 C342.38971314 5.27363956 337.87160563 5.2826572 333.35348511 5.29014587 C324.50722819 5.30288988 315.66100163 5.30468699 306.81473708 5.30234561 C299.62487052 5.3005622 292.43501317 5.30231258 285.24514771 5.30657005 C284.22165775 5.30716524 283.19816779 5.30776043 282.14366299 5.30837366 C280.06443111 5.30958541 277.98519923 5.31079954 275.90596735 5.31201603 C256.41125194 5.32289012 236.91655383 5.32072951 217.42183745 5.31463119 C199.58658228 5.30946039 181.75138171 5.320722 163.91613734 5.33972941 C145.60059928 5.35909901 127.28508706 5.36736546 108.96953869 5.36360615 C98.68761079 5.361693 88.40572937 5.36419292 78.12380981 5.37832069 C69.37220941 5.39022416 60.62068411 5.39165088 51.86908269 5.37953053 C47.40429968 5.373635 42.93965413 5.37256108 38.47488022 5.38453293 C34.38649161 5.39536818 30.29835562 5.39231657 26.20997894 5.37827124 C24.7322929 5.37561784 23.25458722 5.37801104 21.77692044 5.38600711 C7.75053178 5.45663016 7.75053178 5.45663016 1 2 C0.67 1.34 0.34 0.68 0 0 Z " fill="#F47EA8" transform="translate(54,452)"/>
<path d="M0 0 C0.66 0 1.32 0 2 0 C2 43.23 2 86.46 2 131 C2.99 131 3.98 131 5 131 C5 131.66 5 132.32 5 133 C3.35 133.33 1.7 133.66 0 134 C0 89.78 0 45.56 0 0 Z " fill="#ED95B3" transform="translate(395,261)"/>
<path d="M0 0 C1.47943027 0.29032661 2.95852623 0.58235679 4.4375 0.875 C5.3553125 1.05546875 6.273125 1.2359375 7.21875 1.421875 C9.64730774 1.92668756 12.03399197 2.51541463 14.4375 3.125 C22.12012357 4.82770912 29.10450863 5.13729482 36 1 C36.99 1 37.98 1 39 1 C37.4375 3.4375 37.4375 3.4375 35 6 C31.25 6.8125 31.25 6.8125 28 7 C28 8.65 28 10.3 28 12 C28.66 12.33 29.32 12.66 30 13 C30.625 16.0625 30.625 16.0625 31 19 C31.66 19 32.32 19 33 19 C33.625 21.3125 33.625 21.3125 34 24 C33.34 24.99 32.68 25.98 32 27 C31.84144531 26.41992188 31.68289062 25.83984375 31.51953125 25.2421875 C29.45675713 18.33588299 26.97053045 13.81532416 20.625 9.9375 C15.93973905 7.77090534 10.96323005 6.28778558 6.01611328 4.83764648 C4.31446253 4.31294557 2.65205103 3.66457034 1 3 C0.67 2.01 0.34 1.02 0 0 Z " fill="#F18FB2" transform="translate(132,120)"/>
<path d="M0 0 C0.66 0 1.32 0 2 0 C0.125 5.75 0.125 5.75 -1 8 C-1.85906177 15.17930194 -1.04539321 20.15249321 2.90625 26.22265625 C4 28 4 28 4 30 C4.66 30 5.32 30 6 30 C7.98 33.96 9.96 37.92 12 42 C7.86498814 39.93249407 5.83886137 37.70365751 3.0625 34.1875 C-2.7883926 26.35549024 -2.7883926 26.35549024 -10.8125 21.1875 C-11.864375 20.795625 -12.91625 20.40375 -14 20 C-14 19.67 -14 19.34 -14 19 C-10.37 18.67 -6.74 18.34 -3 18 C-3.03480469 17.11957031 -3.06960937 16.23914063 -3.10546875 15.33203125 C-3.14607422 13.58986328 -3.14607422 13.58986328 -3.1875 11.8125 C-3.22230469 10.66394531 -3.25710937 9.51539062 -3.29296875 8.33203125 C-2.97436317 4.70842376 -2.21947332 2.85360856 0 0 Z " fill="#EE9BBA" transform="translate(114,74)"/>
<path d="M0 0 C0.33 0.99 0.66 1.98 1 3 C0.01 3.33 -0.98 3.66 -2 4 C-2.33 4.66 -2.66 5.32 -3 6 C-3.33 6.66 -3.66 7.32 -4 8 C-4.99 8.33 -5.98 8.66 -7 9 C-7.33 9.99 -7.66 10.98 -8 12 C-8.66 12 -9.32 12 -10 12 C-11.01540112 16.10223585 -11.01540112 16.10223585 -10 20 C-10.30279877 20.74094406 -10.60559753 21.48188812 -10.91757202 22.24528503 C-12.14538168 25.36998774 -12.27653323 27.72554769 -12.31884766 31.07543945 C-12.33871735 32.27630692 -12.35858704 33.47717438 -12.37905884 34.71443176 C-12.39061005 36.00105209 -12.40216125 37.28767242 -12.4140625 38.61328125 C-12.43278598 39.95136189 -12.45236027 41.28943087 -12.4727478 42.62748718 C-12.5239507 46.13726916 -12.56363936 49.64708938 -12.60089111 53.15704346 C-12.64100539 56.74346278 -12.69206374 60.3297247 -12.7421875 63.91601562 C-12.83880627 70.94389499 -12.92325567 77.97187322 -13 85 C-13.33 85 -13.66 85 -14 85 C-14.16295913 76.19371421 -14.28695358 67.38795578 -14.3626852 58.58048534 C-14.39905299 54.48971585 -14.44829349 50.39998583 -14.52807617 46.30981445 C-14.60473587 42.35451015 -14.64611369 38.40019861 -14.6641407 34.44420815 C-14.67696883 32.94316306 -14.70201793 31.44216579 -14.7401104 29.9415493 C-14.98257769 19.98402751 -13.78653671 12.70989589 -7 5 C-4.73414414 2.99954302 -2.61531923 1.54784199 0 0 Z " fill="#EF7FA7" transform="translate(55,43)"/>
<path d="M0 0 C0.53367187 0.28875 1.06734375 0.5775 1.6171875 0.875 C12.30108753 6.19846576 21.2855449 3.70917699 32.33984375 0.875 C36 0 36 0 39 0 C39 0.66 39 1.32 39 2 C38.47567383 2.20157715 37.95134766 2.4031543 37.41113281 2.61083984 C35.02329252 3.5301742 32.63664066 4.45255606 30.25 5.375 C29.425 5.69210938 28.6 6.00921875 27.75 6.3359375 C26.95078125 6.6453125 26.1515625 6.9546875 25.328125 7.2734375 C24.22839355 7.69761963 24.22839355 7.69761963 23.10644531 8.13037109 C20.97187011 8.9716957 20.97187011 8.9716957 18.91699219 10.10791016 C17 11 17 11 14 11 C13.67 9.68 13.34 8.36 13 7 C12.0925 7.020625 11.185 7.04125 10.25 7.0625 C7.57327412 7.0110245 5.53011948 6.7784983 3 6 C3 5.01 3 4.02 3 3 C2.01 2.67 1.02 2.34 0 2 C0 1.34 0 0.68 0 0 Z " fill="#F0A5BF" transform="translate(85,120)"/>
<path d="M0 0 C0.66 0 1.32 0 2 0 C2.08564209 0.70608398 2.17128418 1.41216797 2.25952148 2.13964844 C2.64958944 5.34342067 3.04350251 8.54670875 3.4375 11.75 C3.57220703 12.86117187 3.70691406 13.97234375 3.84570312 15.1171875 C3.97783203 16.18710938 4.10996094 17.25703125 4.24609375 18.359375 C4.36654053 19.34389648 4.4869873 20.32841797 4.61108398 21.34277344 C4.94467414 23.62199202 5.39012541 25.78143734 6 28 C5.01 28.33 4.02 28.66 3 29 C2.67 26.36 2.34 23.72 2 21 C1.34 21 0.68 21 0 21 C-0.33 21.99 -0.66 22.98 -1 24 C-1.33 24 -1.66 24 -2 24 C-2.13619034 16.3128119 -2.03361631 8.6308957 -1 1 C-0.67 0.67 -0.34 0.34 0 0 Z " fill="#F17FA6" transform="translate(127,124)"/>
<path d="M0 0 C0.33 0 0.66 0 1 0 C1 4.95 1 9.9 1 15 C2.32 14.67 3.64 14.34 5 14 C1.40962507 18.96230682 -2.3674894 23.76454552 -6.25 28.5 C-6.68618652 29.04043945 -7.12237305 29.58087891 -7.57177734 30.13769531 C-8.66910923 31.46404672 -9.8299384 32.7373436 -11 34 C-11.66 34 -12.32 34 -13 34 C-11.37959101 29.41326853 -8.98096517 25.48954713 -6.4375 21.375 C-3.08153051 15.93402286 -0.96747807 11.74794805 -0.4375 5.3125 C-0.35371094 4.31863281 -0.26992187 3.32476562 -0.18359375 2.30078125 C-0.12300781 1.54152344 -0.06242188 0.78226562 0 0 Z " fill="#F4B5CC" transform="translate(143,82)"/>
<path d="M0 0 C1.65 0 3.3 0 5 0 C5 0.66 5 1.32 5 2 C7.64 2 10.28 2 13 2 C13.99 5.3 14.98 8.6 16 12 C14.37660195 13.70884005 12.70680947 15.37446717 11 17 C10.34 17 9.68 17 9 17 C8.87625 18.1446875 8.87625 18.1446875 8.75 19.3125 C7.84730645 22.54715191 6.86406539 23.35099265 4 25 C3.34 25 2.68 25 2 25 C3.52195142 21.51553227 5.62484569 19.03265768 8.125 16.1875 C11.61198383 12.03397763 11.61198383 12.03397763 12.5 6.875 C12.335 5.92625 12.17 4.9775 12 4 C6.06 3.01 6.06 3.01 0 2 C0 1.34 0 0.68 0 0 Z " fill="#F2A1BF" transform="translate(171,93)"/>
<path d="M0 0 C-1.98 0.99 -1.98 0.99 -4 2 C-4.495 1.01 -4.495 1.01 -5 0 C-9.73696086 -1.57898695 -14.53943413 -1.18447895 -19.5 -1.1875 C-20.55832031 -1.19974609 -21.61664063 -1.21199219 -22.70703125 -1.22460938 C-23.72152344 -1.22654297 -24.73601562 -1.22847656 -25.78125 -1.23046875 C-26.71001953 -1.23457764 -27.63878906 -1.23868652 -28.59570312 -1.24291992 C-31.26276785 -1.16300159 -31.26276785 -1.16300159 -34 1 C-36.1875 0.625 -36.1875 0.625 -38 0 C-26.67434313 -6.20214543 -11.35408637 -6.11373882 0 0 Z " fill="#F2A1BF" transform="translate(320,249)"/>
<path d="M0 0 C0.66 0 1.32 0 2 0 C3.20568053 4.67201205 3.09382426 9.21496292 3 14 C2.67 13.34 2.34 12.68 2 12 C1.34 12 0.68 12 0 12 C0 14.31 0 16.62 0 19 C-2 17 -2 17 -2.01171875 13.33984375 C-1.914548 11.87163362 -1.80600369 10.40414243 -1.6875 8.9375 C-1.63916016 8.19177734 -1.59082031 7.44605469 -1.54101562 6.67773438 C-1.14395028 1.14395028 -1.14395028 1.14395028 0 0 Z " fill="#F1A1BC" transform="translate(127,124)"/>
<path d="M0 0 C0.33 0.99 0.66 1.98 1 3 C0.01 3.33 -0.98 3.66 -2 4 C-2.33 4.66 -2.66 5.32 -3 6 C-3.33 6.66 -3.66 7.32 -4 8 C-4.99 8.33 -5.98 8.66 -7 9 C-7.33 9.99 -7.66 10.98 -8 12 C-8.66 12 -9.32 12 -10 12 C-10.66 14.64 -11.32 17.28 -12 20 C-12.66 19.67 -13.32 19.34 -14 19 C-13.04621044 12.7005527 -9.8697751 7.48522524 -5.046875 3.30859375 C-3.40931843 2.14033693 -1.70963911 1.05997625 0 0 Z " fill="#F29FBD" transform="translate(55,43)"/>
<path d="M0 0 C6.35450323 1.24702151 12.68327435 2.57364259 19 4 C17.34375 5.57421875 17.34375 5.57421875 15 7 C12.34375 6.70703125 12.34375 6.70703125 9.5 5.8125 C8.09234375 5.38904297 8.09234375 5.38904297 6.65625 4.95703125 C4.32232002 4.11613001 2.18405087 3.16929138 0 2 C0 1.34 0 0.68 0 0 Z " fill="#E8ABC2" transform="translate(132,120)"/>
<path d="M0 0 C0.52207031 0.27714844 1.04414062 0.55429688 1.58203125 0.83984375 C7.71477249 3.85788278 13.20069654 4.74582043 20 5 C19.01 5.66 18.02 6.32 17 7 C15.80767387 9.05003955 15.80767387 9.05003955 15 11 C14.34 9.68 13.68 8.36 13 7 C12.0925 7.020625 11.185 7.04125 10.25 7.0625 C7.57327412 7.0110245 5.53011948 6.7784983 3 6 C3 5.01 3 4.02 3 3 C2.01 2.67 1.02 2.34 0 2 C0 1.34 0 0.68 0 0 Z " fill="#ED80A5" transform="translate(85,120)"/>
<path d="M0 0 C0.66 0.99 1.32 1.98 2 3 C0.32598022 6.95677402 -2.13149285 9.84464213 -5 13 C-5.66 13 -6.32 13 -7 13 C-5.35821735 8.22390502 -2.73453298 4.20617096 0 0 Z " fill="#ECB5C9" transform="translate(137,103)"/>
<path d="M0 0 C3.04049801 3.64859761 4.96518762 7.7444533 7 12 C3.55571735 10.55218207 1.63869038 8.72305391 -0.75 5.875 C-1.36359375 5.15054688 -1.9771875 4.42609375 -2.609375 3.6796875 C-3.06828125 3.12539062 -3.5271875 2.57109375 -4 2 C-3.34 1.67 -2.68 1.34 -2 1 C-1.34 1.33 -0.68 1.66 0 2 C0 1.34 0 0.68 0 0 Z " fill="#E6B6C8" transform="translate(119,104)"/>
<path d="M0 0 C3.0916909 2.52956528 3.90931332 5.22454612 5 9 C2.75 8.9375 2.75 8.9375 0 8 C-1.67849824 5.7691525 -2.75999263 3.52594094 -4 1 C-2.68 1.33 -1.36 1.66 0 2 C0 1.34 0 0.68 0 0 Z " fill="#F1A3BE" transform="translate(114,97)"/>
<path d="M0 0 C0.66 0 1.32 0 2 0 C0.125 6.75 0.125 6.75 -1 9 C-3.5625 9.625 -3.5625 9.625 -6 10 C-4.63312778 6.01328937 -2.84804907 3.11505367 0 0 Z " fill="#F4A0BE" transform="translate(276,253)"/>
<path d="M0 0 C0.33 0 0.66 0 1 0 C1.02505615 0.67579102 1.0501123 1.35158203 1.07592773 2.04785156 C1.19210742 5.1154168 1.31473437 8.18269158 1.4375 11.25 C1.47681641 12.31347656 1.51613281 13.37695312 1.55664062 14.47265625 C1.59853516 15.49746094 1.64042969 16.52226562 1.68359375 17.578125 C1.72025146 18.52075195 1.75690918 19.46337891 1.79467773 20.43457031 C1.97939228 22.74251377 2.35861612 24.78140524 3 27 C2.01 27 1.02 27 0 27 C0 18.09 0 9.18 0 0 Z " fill="#E98BAC" transform="translate(262,197)"/>
<path d="M0 0 C0 0.66 0 1.32 0 2 C-4.62197306 4.21854707 -7.76824163 5.38281159 -13 5 C-13 4.34 -13 3.68 -13 3 C-11.39743892 2.49487756 -9.79288208 1.99608373 -8.1875 1.5 C-7.29417969 1.2215625 -6.40085937 0.943125 -5.48046875 0.65625 C-3 0 -3 0 0 0 Z " fill="#EBA7C1" transform="translate(124,120)"/>
<path d="M0 0 C0 3.5636547 -0.51648148 4.51116345 -3 7 C-5.48046875 7.390625 -5.48046875 7.390625 -8.1875 7.25 C-9.53908203 7.19585937 -9.53908203 7.19585937 -10.91796875 7.140625 C-11.60503906 7.09421875 -12.29210937 7.0478125 -13 7 C-10.31767339 5.21178226 -7.69711039 3.79857396 -4.8125 2.375 C-3.91144531 1.92898437 -3.01039062 1.48296875 -2.08203125 1.0234375 C-1.39496094 0.68570313 -0.70789063 0.34796875 0 0 Z " fill="#F29BBA" transform="translate(117,158)"/>
<path d="M0 0 C6.75 -0.125 6.75 -0.125 9 1 C9 1.66 9 2.32 9 3 C10.32 3.33 11.64 3.66 13 4 C9.75784173 5.08557659 7.97678191 4.94015194 4.8125 3.6875 C3.77029297 3.29111328 3.77029297 3.29111328 2.70703125 2.88671875 C1 2 1 2 0 0 Z " fill="#F49EBD" transform="translate(54,452)"/>
<path d="M0 0 C2.97 0 5.94 0 9 0 C9 0.33 9 0.66 9 1 C8.113125 1 7.22625 1 6.3125 1 C1.91600527 2.32724369 1.0494098 4.40844599 -1.1171875 8.28515625 C-1.55417969 9.13400391 -1.55417969 9.13400391 -2 10 C-3.08784335 6.68604014 -3.07262544 6.16419665 -1.5625 2.75 C-1.046875 1.8425 -0.53125 0.935 0 0 Z " fill="#F0A2C0" transform="translate(122,59)"/>
<path d="M0 0 C-0.66 1.98 -1.32 3.96 -2 6 C-6.455 4.02 -6.455 4.02 -11 2 C-11 1.67 -11 1.34 -11 1 C-7.26562152 0.12132271 -3.83225427 -0.08912219 0 0 Z " fill="#F79FBE" transform="translate(111,92)"/>
<path d="M0 0 C1.07765625 0.00902344 2.1553125 0.01804687 3.265625 0.02734375 C4.08546875 0.03894531 4.9053125 0.05054687 5.75 0.0625 C5.75 0.3925 5.75 0.7225 5.75 1.0625 C4.52023438 1.26166016 4.52023438 1.26166016 3.265625 1.46484375 C1.64914063 1.72974609 1.64914063 1.72974609 0 2 C-1.60101563 2.26103516 -1.60101563 2.26103516 -3.234375 2.52734375 C-5.61347593 2.94954171 -7.91915211 3.43452884 -10.25 4.0625 C-10.25 3.0725 -10.25 2.0825 -10.25 1.0625 C-6.78777385 -0.00473961 -3.60960734 -0.03923486 0 0 Z " fill="#F5A8C5" transform="translate(158.25,91.9375)"/>
<path d="M0 0 C3.63 0 7.26 0 11 0 C11.33 1.32 11.66 2.64 12 4 C6.06 2.515 6.06 2.515 0 1 C0 0.67 0 0.34 0 0 Z " fill="#F3A3C2" transform="translate(345,194)"/>
<path d="M0 0 C3.96 1.98 7.92 3.96 12 6 C12 6.33 12 6.66 12 7 C3.8125 6.05528846 3.8125 6.05528846 1 4 C0.67 2.68 0.34 1.36 0 0 Z " fill="#F0AFC6" transform="translate(137,157)"/>
<path d="M0 0 C1.32 0.33 2.64 0.66 4 1 C3.25 3.4375 3.25 3.4375 2 6 C-0.125 6.8125 -0.125 6.8125 -2 7 C-1.34 4.69 -0.68 2.38 0 0 Z " fill="#F29FBB" transform="translate(139,99)"/>
<path d="M0 0 C0.66 0.33 1.32 0.66 2 1 C-1.44615385 5.8 -1.44615385 5.8 -4.25 6.8125 C-5.11625 6.9053125 -5.11625 6.9053125 -6 7 C-6.33 6.01 -6.66 5.02 -7 4 C-6.030625 3.525625 -5.06125 3.05125 -4.0625 2.5625 C-1.19522563 1.29806053 -1.19522563 1.29806053 0 0 Z " fill="#F799BB" transform="translate(169,120)"/>
<path d="M0 0 C-3.66291938 2.47785723 -6.6109185 3.48964169 -11 4 C-11 3.34 -11 2.68 -11 2 C-10.01 2 -9.02 2 -8 2 C-8 1.34 -8 0.68 -8 0 C-2.25 -1.125 -2.25 -1.125 0 0 Z " fill="#F2A4C1" transform="translate(444,453)"/>
<path d="M0 0 C0.33 0 0.66 0 1 0 C1.06058594 0.60328125 1.12117187 1.2065625 1.18359375 1.828125 C1.26738281 2.62734375 1.35117188 3.4265625 1.4375 4.25 C1.51871094 5.03890625 1.59992188 5.8278125 1.68359375 6.640625 C1.97634993 8.82364639 2.42064419 10.8773182 3 13 C2.01 13.33 1.02 13.66 0 14 C0 9.38 0 4.76 0 0 Z " fill="#F6ADC8" transform="translate(130,139)"/>
<path d="M0 0 C1.1875 1.625 1.1875 1.625 2 4 C0.625 7.25 0.625 7.25 -1 10 C-1.33 10 -1.66 10 -2 10 C-2.1953125 3.9453125 -2.1953125 3.9453125 -2 2 C-1.34 1.34 -0.68 0.68 0 0 Z " fill="#F59EC1" transform="translate(455,434)"/>
<path d="M0 0 C0.556875 0.33 1.11375 0.66 1.6875 1 C4.30284522 2.1309601 6.1806646 2.15662974 9 2 C9 2.99 9 3.98 9 5 C7.02 5 5.04 5 3 5 C2.67 4.01 2.34 3.02 2 2 C1.34 2 0.68 2 0 2 C0 1.34 0 0.68 0 0 Z " fill="#F39EBF" transform="translate(89,165)"/>
<path d="M0 0 C0.66 0 1.32 0 2 0 C2.3125 2.25 2.3125 2.25 2 5 C-0.5 7.3125 -0.5 7.3125 -3 9 C-3.66 8.67 -4.32 8.34 -5 8 C-4.360625 7.236875 -3.72125 6.47375 -3.0625 5.6875 C-0.85767219 3.11753287 -0.85767219 3.11753287 0 0 Z " fill="#F397B9" transform="translate(123,149)"/>
<path d="M0 0 C0.33 0 0.66 0 1 0 C1.06058594 0.61488281 1.12117188 1.22976563 1.18359375 1.86328125 C1.26738281 2.67152344 1.35117187 3.47976563 1.4375 4.3125 C1.51871094 5.11300781 1.59992187 5.91351563 1.68359375 6.73828125 C1.95265693 9.16087179 1.95265693 9.16087179 3 12 C2.34 12.99 1.68 13.98 1 15 C-0.09506492 11.71480525 -0.09960608 9.26336585 -0.0625 5.8125 C-0.05347656 4.72582031 -0.04445312 3.63914062 -0.03515625 2.51953125 C-0.02355469 1.68808594 -0.01195312 0.85664063 0 0 Z " fill="#EE93B6" transform="translate(41,425)"/>
<path d="M0 0 C4.455 1.98 4.455 1.98 9 4 C5 6 5 6 3 6 C3 5.01 3 4.02 3 3 C2.01 2.67 1.02 2.34 0 2 C0 1.34 0 0.68 0 0 Z " fill="#F6A9C5" transform="translate(85,120)"/>
<path d="M0 0 C2.5 2.3125 2.5 2.3125 5 5 C5 5.99 5 6.98 5 8 C1.125 6.125 1.125 6.125 0 5 C-0.04063832 3.33382885 -0.042721 1.66611905 0 0 Z " fill="#F3ACC6" transform="translate(76,109)"/>
<path d="M0 0 C2.5 1.375 2.5 1.375 5 3 C5 3.66 5 4.32 5 5 C5.66 5 6.32 5 7 5 C7.33 5.99 7.66 6.98 8 8 C7.01 8.495 7.01 8.495 6 9 C6 8.01 6 7.02 6 6 C5.34 6 4.68 6 4 6 C4 5.34 4 4.68 4 4 C2.68 3.67 1.36 3.34 0 3 C0 2.01 0 1.02 0 0 Z " fill="#F3A6C3" transform="translate(445,45)"/>
<path d="M0 0 C1.32 0.66 2.64 1.32 4 2 C-0.95 3.485 -0.95 3.485 -6 5 C-5.67 4.01 -5.34 3.02 -5 2 C-3.35 2 -1.7 2 0 2 C0 1.34 0 0.68 0 0 Z " fill="#F1A8C5" transform="translate(298,193)"/>
<path d="M0 0 C0.66 0 1.32 0 2 0 C2 0.66 2 1.32 2 2 C2.66 2 3.32 2 4 2 C4.625 4.3125 4.625 4.3125 5 7 C4.01 8.485 4.01 8.485 3 10 C2.01 6.7 1.02 3.4 0 0 Z " fill="#F6AFCB" transform="translate(161,137)"/>
<path d="M0 0 C1.32 0 2.64 0 4 0 C4 0.99 4 1.98 4 3 C2.02 3.66 0.04 4.32 -2 5 C-1.34 3.35 -0.68 1.7 0 0 Z " fill="#F59ABA" transform="translate(102,126)"/>
<path d="M0 0 C1.11375 0.3403125 1.11375 0.3403125 2.25 0.6875 C0.5625 2.25 0.5625 2.25 -1.75 3.6875 C-4.5 3.375 -4.5 3.375 -6.75 2.6875 C-4.29511132 0.41445492 -3.41240272 -0.38777304 0 0 Z " fill="#F4A3C2" transform="translate(148.75,123.3125)"/>
<path d="M0 0 C0.99 1.32 1.98 2.64 3 4 C2.01 4.495 2.01 4.495 1 5 C0.67 5.66 0.34 6.32 0 7 C-1.32 5.02 -2.64 3.04 -4 1 C-2.68 1.33 -1.36 1.66 0 2 C0 1.34 0 0.68 0 0 Z " fill="#F2C0D2" transform="translate(119,104)"/>
<path d="M0 0 C1.485 0.99 1.485 0.99 3 2 C3.29296875 4.8203125 3.29296875 4.8203125 3.1875 8.125 C3.16042969 9.22070312 3.13335937 10.31640625 3.10546875 11.4453125 C3.07066406 12.28835937 3.03585938 13.13140625 3 14 C2.67 14 2.34 14 2 14 C1.93941406 13.32453125 1.87882813 12.6490625 1.81640625 11.953125 C1.73261719 11.06109375 1.64882812 10.1690625 1.5625 9.25 C1.48128906 8.36828125 1.40007812 7.4865625 1.31640625 6.578125 C1.03761535 4.30649548 0.61209423 2.20148177 0 0 Z " fill="#EF91B2" transform="translate(142,78)"/>
<path d="M0 0 C0.66 0.33 1.32 0.66 2 1 C2 1.99 2 2.98 2 4 C2.66 4 3.32 4 4 4 C4 4.66 4 5.32 4 6 C2.35 5.67 0.7 5.34 -1 5 C-0.67 3.35 -0.34 1.7 0 0 Z " fill="#F57CA7" transform="translate(110,93)"/>
</svg>
